<svg width="366" height="227" viewBox="0 0 366 227" fill="none" xmlns="http://www.w3.org/2000/svg">
<path fill-rule="evenodd" clip-rule="evenodd" d="M269.832 182.46C268.101 184.462 265.545 185.947 263.584 187.777C261.525 189.7 259.289 191.38 257.238 193.279C248.19 182.22 235.794 175.438 225.056 166.261C219.965 161.91 216.215 156.009 213.47 149.952C212.063 146.847 211.023 143.651 210.21 140.343C209.843 138.853 209.485 137.369 209.246 135.858C208.956 134.03 208.88 133.874 207.647 132.446C207.115 131.832 206.087 130.037 205.046 130.235C204.171 130.401 202.569 133.067 202.016 133.725C199.355 136.891 196.775 140.154 193.974 143.197C189.688 147.855 185.786 152.438 181.806 157.374C173.666 167.473 164.885 176.979 156.024 186.482C155.367 187.187 153.834 189.253 152.89 189.531C151.742 189.869 149.876 188.461 148.72 187.673C145.93 185.774 143.73 183.422 141.344 181.067C136.689 176.472 133.536 170.022 131.416 163.885C130.146 160.211 129.321 156.403 128.011 152.742C127.465 151.216 126.227 149.341 126.855 148.012C127.042 147.616 128.233 146.563 128.653 146.482C129.15 146.387 129.978 147.068 130.151 147.021C131.798 146.57 130.884 144.845 131.864 143.917C132.42 143.39 135.246 143.467 136.09 143.178C139.175 142.12 141.942 140.101 144.859 138.896C157.069 133.852 169.427 128.945 179.967 120.708C182.701 118.572 184.517 116.966 187.779 115.586C191.075 114.191 194.389 112.946 197.752 111.729C200.719 110.655 203.703 109.647 206.768 108.878C210.083 108.045 214.785 106.989 218.097 108.062C224.601 110.167 226.701 115.526 229.291 121.18C232.795 128.828 237.032 136.066 241.626 143.106C250.462 156.651 261.209 168.805 269.832 182.46Z" fill="#ADDEA2"/>
<path fill-rule="evenodd" clip-rule="evenodd" d="M73.9599 62.714C73.602 62.5323 70.8078 63.6696 70.3388 63.8436C68.4653 64.5387 66.7007 65.6936 64.9358 66.6332C66.2884 68.2794 67.6415 69.926 68.9938 71.5725C70.3196 68.3204 72.0236 65.6369 73.9599 62.714ZM74.8822 82.9483C74.422 83 78.3076 92.3372 78.7613 93.3857C80.4124 97.1988 82.146 100.975 83.819 104.778C85.4399 108.464 87.4961 111.855 89.5676 115.298C91.3395 118.243 93.162 122.813 95.8347 124.994C94.1471 117.507 94.3694 108.899 89.5289 102.613C84.5114 96.096 79.5507 89.7323 74.8822 82.9483ZM269.832 182.792C262.334 170.919 252.948 160.416 245.129 148.754C240.752 142.225 236.49 135.612 232.805 128.661C230.125 123.606 228.459 116.392 224.319 112.527C222.494 110.824 220.545 109.157 218.097 108.394C214.747 107.35 210.134 108.385 206.768 109.21C200.497 110.748 194.37 113.136 188.429 115.644C182.404 118.188 177.263 122.757 171.818 126.428C165.978 130.366 159.656 133.235 153.113 135.747C147.416 137.933 142.347 141.073 136.68 143.274C135.551 143.713 133.246 143.648 132.299 144.22C131.278 144.836 131.68 146.655 130.441 147.326C129.882 147.629 129.696 146.531 129.267 146.549C128.742 146.571 128.263 147.187 127.757 147.577C125.698 149.166 126.959 150.226 127.775 152.412C130.433 159.537 131.861 166.785 135.594 173.511C138.662 179.039 143.054 183.993 148.225 187.653C149.012 188.21 151.575 190.368 152.499 190.224C153.33 190.096 155.021 187.886 155.595 187.286C158.199 184.563 160.579 181.634 163.181 178.907C167.202 174.692 171.073 170.364 174.975 166.092C179.505 161.133 183.515 155.513 187.595 150.214C189.472 147.776 191.888 145.79 193.974 143.53C196.779 140.49 199.355 137.223 202.016 134.057C202.821 133.099 204.17 130.649 205.421 130.678C206.298 130.698 207.844 132.762 208.302 133.409C210.007 135.814 209.999 140.156 210.847 143.157C212.915 150.476 216.645 157.625 221.76 163.273C226.846 168.889 233.362 172.883 239.378 177.397C245.895 182.288 252.07 187.294 257.238 193.611C259.289 191.712 261.525 190.032 263.584 188.11C265.545 186.279 268.101 184.794 269.832 182.792ZM173.318 216.383C174.776 216.398 177.244 217.294 178.548 216.755C174.68 212.475 171.128 208.803 166.234 205.666C161.156 202.411 156.094 199.186 151.162 195.714C141.222 188.718 133.91 180.42 129.758 168.769C128.689 165.769 127.973 162.622 127.189 159.538C126.768 157.877 125.929 150.105 124.503 149.435C123.659 149.037 117.306 153.502 116.299 154.058C113.946 155.36 111.583 156.369 109.15 157.388C103.92 159.578 98.5282 161.248 92.9818 162.643C86.3324 164.315 81.803 161.548 77.6837 156.322C73.0104 150.392 69.1267 143.702 64.8538 137.476C62.9106 134.643 61.3008 131.816 59.8658 128.692C58.9266 126.648 55.2016 121.134 56.4887 118.956C60.1608 121.752 61.4821 127.311 63.9835 131.054C67.1012 135.719 70.6147 140.118 73.7484 144.779C76.3836 148.698 79.072 153.448 82.9653 156.266C86.3898 158.744 89.6431 157.982 93.3286 156.868C97.7955 155.518 102.426 154.853 106.803 153.179C111.541 151.368 116.023 148.798 120.645 146.703C122.799 145.726 125.379 145.17 127.41 143.952C129.16 142.903 128.899 142.349 129.027 140.115C129.178 137.508 129.35 134.899 129.466 132.29C129.543 130.537 128.595 128.16 129.239 126.851C123.991 127.761 118.863 128.979 113.652 130.057C110.799 130.647 108.048 131.377 105.166 131.841C104.068 132.017 102.566 132.012 101.582 132.491C100.797 132.266 100.397 132.409 100.382 132.921C100.344 133.198 100.285 133.472 100.203 133.742C98.5945 134.474 97.6587 132.904 96.2631 131.398C94.5411 129.539 93.2516 127.446 91.9882 125.262C89.1634 120.38 85.9074 115.788 83.2933 110.768C80.6289 105.65 78.4651 100.171 76.2062 94.8613C74.1339 89.9902 72.8069 84.7221 70.5169 79.9663C69.495 77.8435 68.1998 76.0881 66.6873 74.2947C65.4393 72.8148 63.5191 69.6225 61.6553 68.9427C61.1625 68.763 59.8719 69.0649 59.3121 69.0251C58.1962 68.9454 57.2018 68.5358 56.0599 68.6254C53.5876 68.8189 50.8922 70.3824 48.9165 71.7569C50.1933 72.8949 53.3872 74.2782 51.093 76.3283C48.8667 78.3186 47.637 74.7484 46.7875 73.1842C42.787 76.4693 43.3652 80.999 42.9031 85.6406C42.6617 88.0639 42.0267 90.4504 41.6171 92.8373C41.3221 94.5551 41.529 96.332 41.4447 98.0859C41.2297 102.543 40.7818 106.809 40.8036 111.203C40.8266 115.9 41.1466 120.437 41.5225 125.1C42.1551 132.95 43.6047 140.804 44.8478 148.592C45.5471 152.97 46.5043 157.224 47.4336 161.531C48.4881 166.419 50.4389 171.049 51.5329 175.925C52.6476 174.508 53.486 174.501 55.289 174.689C56.6757 174.833 57.6073 174.503 57.526 176.428C57.4735 177.676 56.3722 178.63 55.1537 178.848C53.5646 179.132 53.0247 178.339 52.2058 177.135C52.0142 179.415 53.547 181.798 54.1532 184.024C54.7268 186.133 55.1069 188.201 56.071 190.22C57.0118 192.189 57.8172 194.132 58.7691 196.083C59.2075 196.98 59.6175 197.892 60.0608 198.787C60.285 199.24 60.549 199.865 60.8835 200.247C61.6683 201.143 61.5434 200.709 62.4619 201.219C64.4629 202.33 63.7115 202.053 63.7582 204.349C63.8038 206.613 64.9649 208.276 66.8268 209.549C70.7771 212.25 74.6734 213.001 79.1644 214.365C83.3488 215.637 87.7563 216.728 92.1871 216.703C97.6139 216.673 102.969 215.961 108.395 215.889C114.382 215.81 120.427 215.842 126.401 216.049C128.863 216.134 131.148 216.244 133.525 216.872C136.284 217.603 138.953 217.313 141.797 217.202C147.865 216.966 154.141 216.497 160.129 216.454C164.441 216.424 168.99 216.123 173.318 216.383ZM330.651 218.735C331.73 219.305 334.148 219.071 335.232 218.913C337.143 218.634 337.347 217.877 338.559 216.174C340.645 213.24 342.339 210.431 343.566 207.033C345.915 200.53 346.875 193.877 347.906 187.075C349.052 179.516 346.959 171.681 346.21 164.173C346.038 162.451 345.803 160.744 345.531 159.035C345.368 158.013 345.325 154.536 344.653 153.651C343.361 151.951 337.352 153.322 334.99 153.476C328.396 153.907 321.759 154.008 315.168 154.083C311.654 154.122 308.12 154.27 304.64 154.297C303.043 154.309 301.48 154.23 299.877 154.075C299.34 154.023 298.816 153.899 298.276 153.87C296.426 153.767 296.565 153.499 296.087 155.137C295.249 158.007 295.894 161.659 295.674 164.638C295.38 168.618 295.221 172.655 295.293 176.644C295.361 180.33 295.235 184.008 295.373 187.703C295.43 189.233 295.597 190.48 296.001 191.941C296.457 193.593 296.959 197.452 298.096 198.596C298.225 198.726 299.191 198.422 299.447 198.747C299.842 199.246 299.77 200.302 300.041 200.625C300.919 201.669 302.733 201.752 304.05 202.222C307.661 203.51 310.974 204.908 314.378 206.644C317.419 208.196 322.323 209.516 324.152 212.577C324.99 213.981 325.103 215.831 325.874 217.279C326.752 218.928 324.996 218.066 327.146 218.735C328.115 219.036 329.659 218.735 330.651 218.735ZM10.015 200.082C9.74143 203.89 7.59594 207.518 6.84911 211.263C6.49964 213.016 5.90684 214.74 5.49606 216.483C5.10214 218.155 3.67897 220.135 3.82305 221.79C9.07582 219.919 14.3964 219.448 19.8864 218.943C25.0897 218.465 30.5866 218.274 35.7463 218.272C41.004 218.269 46.6258 217.756 52.0395 217.676C57.7011 217.593 63.4482 217.446 69.0279 216.859C66.1103 214.698 62.4596 212.669 60.3053 209.662C57.9632 206.394 56.747 202.299 54.6862 198.851C50.5508 191.93 47.9217 183.342 45.754 175.567C41.3776 159.871 36.487 144.464 35.3083 128.183C33.0651 129.332 31.2844 133.789 30.1613 136.008C28.7277 138.842 27.9771 141.914 27.0452 144.926C25.1261 151.129 23.798 157.561 21.4483 163.706C16.9573 175.451 14.0707 188.107 10.015 200.082ZM295.152 108.6C296.123 115.62 298.16 122.731 298.238 129.836C298.255 131.399 297.991 133.135 298.316 134.676C298.664 136.321 299.796 137.776 300.449 139.34C301.486 141.822 304.112 146.91 301.58 149.013C301.528 147.017 299.702 144.483 298.781 142.737C297.395 140.107 295.573 137.703 294.069 135.138C290.923 129.77 287.397 124.517 283.341 119.784C279.391 115.175 274.839 111.086 270.65 106.696C269.392 105.377 259.296 92.6833 258.895 92.8607C262.027 104.937 267.35 115.444 274.635 125.554C278.206 130.511 282.493 133.773 286.841 137.972C290.462 141.469 297.286 145.208 296.034 150.938C301.694 150.394 307.317 149.524 313.029 149.524C312.09 142.295 311.37 135.181 309.694 128.071C307.79 119.997 306.5 111.683 304.89 103.538C303.246 95.2223 300.457 87.1722 298.722 78.8727C297.061 70.9253 295.634 62.9921 294.417 54.9563C293.41 59.4089 293.782 64.2996 293.424 68.8427C293.06 73.4843 293.095 78.0404 293.216 82.7092C293.441 91.3812 294.366 99.9486 295.152 108.6ZM319.678 67.2548C319.71 63.5428 320.429 59.881 320.651 56.1779C320.719 55.0417 321.851 47.2902 320.795 46.8855C319.927 48.7777 319.725 51.1991 318.937 53.1844C318.149 55.1678 317.096 57.0573 316.34 59.0545C314.703 63.3811 314.139 68.2767 313.962 72.8765C313.563 83.2809 313.357 93.6619 314.057 104.066C314.356 108.526 314.586 112.993 314.504 117.461C314.414 122.378 313.661 126.646 314.575 131.522C315.481 136.351 316.049 141.16 316.351 146.06C316.562 149.499 316.647 149.255 319.928 149.013C322.297 148.839 324.689 149.025 327.061 148.917C325.952 135.514 325.77 122.084 323.999 108.733C323.095 101.922 323.071 95.0123 321.948 88.2264C321.39 84.8555 320.454 81.5524 319.916 78.1776C319.339 74.5542 319.623 70.9062 319.678 67.2548ZM79.7595 58.8204C86.0756 59.3676 92.7941 61.2559 99.2681 60.009C98.2009 59.5768 95.4082 58.9805 96.6651 57.2746C97.943 55.5399 100.097 57.7401 101.371 57.5129C102.157 57.3727 103.894 54.0876 104.378 53.4074C105.477 51.8616 105.61 51.5922 107.587 51.196C109.502 50.8128 109.936 51.2278 110.179 49.3237C110.457 47.1342 109.7 44.6726 109.775 42.4336C109.936 37.6135 111.491 33.3865 112.938 28.8514C106.789 30.1891 100.777 31.7755 94.4893 32.6377C91.8016 33.0064 87.6203 33.8567 85.1786 32.0296C84.5436 31.5544 84.6452 30.913 84.1256 30.3623C83.2542 29.4385 81.6379 28.4828 80.4021 28.2195C72.7969 26.6006 72.0551 37.4422 75.8663 41.499C76.8208 42.5156 78.1489 43.0176 79.1265 43.9491C80.4312 45.1914 80.5381 46.5 80.7286 48.3964C81.0857 51.9524 80.6006 55.5222 79.0835 58.7751L79.7595 58.8204ZM172.049 110.003C174.294 110.429 176.637 110.332 178.888 110.696C179.688 110.825 182.085 111.275 182.789 110.808C183.862 110.094 184.244 107.476 184.752 106.256C185.645 104.112 186.908 102.241 187.759 100.057C191.239 91.1371 194.483 82.1816 198.691 73.5663C197.079 73.1471 195.84 73.1306 194.215 72.9141C192.521 72.6884 190.986 71.6871 189.371 71.2568C187.835 70.8479 186.227 70.9522 184.705 70.4766C183.867 70.2149 183.148 69.6328 182.322 69.4294C181.005 69.1056 179.468 68.9163 178.685 69.7807C177.882 70.6674 177.6 73.0988 177.163 74.2441C176 77.2955 174.649 80.2403 173.674 83.3618C172.795 86.1771 171.959 88.9625 171.185 91.8035C170.368 94.8027 168.756 97.2746 167.774 100.14C167.027 102.32 166.323 104.55 166.211 106.875C166.103 109.144 165.772 109.288 168.041 109.651C169.187 109.834 170.971 110.514 172.049 110.003ZM319.765 216.191C320.35 216.464 320.901 216.428 321.418 216.082C316.349 213.941 311.418 210.971 306.129 209.502C301.168 208.125 296.346 206.479 291.566 204.782C287.682 203.403 284.191 202.33 280.68 199.903C278.548 198.43 276.655 196.774 275.19 194.622C273.56 192.225 273.197 188.815 271.431 186.657C269.048 189.274 266.248 191.257 263.428 193.337C262.452 194.056 260.112 195.625 259.778 196.739C259.357 198.144 260.485 199.488 261.043 200.91C262.472 204.552 263.17 208.192 263.946 211.978C264.256 213.495 264.927 215.777 266.174 216.412C267.309 216.991 270.596 216.57 272.008 216.463C279.377 215.905 286.615 215.333 294.028 215.841C302.417 216.417 311.398 216.814 319.765 216.191ZM334.483 148.707C335.822 148.711 337.13 148.544 338.465 148.544C337.694 144.948 339.495 140.294 340.133 136.705C340.848 132.689 341.391 128.537 341.868 124.489C342.872 115.964 343.327 107.541 343.34 98.9534C343.352 90.6432 344.865 83.0491 346.984 75.0603C349.259 66.4807 352.985 58.7652 356.066 50.491C352.687 52.2774 350.816 56.4576 349.04 59.6534C346.796 63.6942 345.3 68.1683 344.384 72.7045C342.615 81.4554 340.676 90.2328 338.635 98.9691C336.51 108.066 335.261 117.246 332.827 126.268C331.64 130.668 330.026 136.081 329.936 140.618C329.899 142.495 329.334 146.426 330.184 148.056C330.98 149.581 332.739 148.862 334.483 148.707ZM132.331 137.42C132.26 138.355 132.193 139.243 132.027 140.166C133.882 140.148 136.232 138.223 137.823 137.359C139.761 136.307 141.701 135.146 143.597 134.088C147.257 132.045 151.411 130.698 155.318 129.02C159.807 127.092 163.933 124.762 168.225 122.441C169.725 121.63 180.501 116.959 180.32 115.683C177.954 115.604 175.588 115.525 173.222 115.447C171.194 115.379 168.053 115.838 166.11 115.211C165.047 114.867 163.852 113.602 163.451 112.611C163.053 111.631 163.946 107.123 163.427 106.836C160.779 109.539 159.114 113.132 156.747 116.049C154.131 119.272 150.75 121.154 147.025 122.867C142.91 124.759 138.652 126.224 134.447 127.845C132.674 128.529 132.709 128.92 132.555 130.864C132.382 133.037 132.401 135.242 132.331 137.42ZM346.13 219.178C350.59 219.656 355.161 219.384 359.656 219.757C361.291 219.892 363.559 220.095 361.913 222.29C360.877 223.672 357.558 223.229 356.052 223.325C352.01 223.582 347.73 223.444 343.679 223.384C342.826 223.371 341.883 223.118 341.021 223.175C340.026 223.24 338.834 223.956 337.927 223.951C337.368 223.947 337.168 223.358 336.686 223.304C335.635 223.186 334.585 223.099 333.526 223.1C317.513 223.103 301.719 222.781 285.745 222.764C278.107 222.756 270.346 222.624 262.711 222.266C261.108 222.19 251.977 222.518 252.23 219.631C252.36 218.144 255.34 217.935 256.428 217.777C257.234 217.66 258.07 217.678 258.877 217.635C261.022 217.52 261.962 218.036 261.509 215.689C259.793 206.787 256.718 199.43 250.147 193.029C244.773 187.795 238.304 183.047 232.218 178.677C224.828 173.369 218.834 167.788 214.447 159.667C211.885 154.924 209.74 150.076 208.424 144.832C207.95 142.946 207.939 140.8 207.358 138.982C206.912 137.582 205.894 136.602 205.295 135.151C197.943 147.431 188.199 157.705 179.264 168.777C174.995 174.066 170.125 179.09 165.025 183.692C163.511 185.058 162.099 186.484 160.686 187.953C159.504 189.183 157.628 190.276 156.63 191.641C155.673 192.95 155.909 192.888 157.365 193.927C159.291 195.301 161.414 196.442 163.37 197.782C166.497 199.924 169.91 201.733 172.706 204.31C175.73 207.098 178.371 210.327 181.014 213.469C182.776 215.564 185.087 218.252 185.53 220.901C185.677 221.777 186.234 223.945 185.499 224.587C184.87 225.135 184.933 224.927 184.153 224.592C183.131 224.154 182.83 223.148 181.581 222.669C178.386 221.442 174.519 221.864 171.194 221.849C167.868 221.834 164.514 222.207 161.19 222.194C153.598 222.162 146.168 222.777 138.578 223.107C130.518 223.457 122.358 222.617 114.324 222.736C108.372 222.824 102.26 222.379 96.1436 222.71C92.9972 222.879 89.9071 222.486 86.8393 222.442C82.8227 222.384 78.6977 222.93 74.6466 223.008C67.9975 223.137 61.4296 223.136 54.7398 223.296C40.3503 223.64 26.0385 223.996 11.6405 224.224C9.71997 224.254 7.6174 224.189 5.71946 224.405C3.70503 224.635 4.74501 225.063 3.36284 225.788C-0.506615 227.818 0.386985 220.294 0.479717 218.814C0.977098 210.883 2.99038 203.105 5.40984 195.576C7.70515 188.436 9.56861 180.962 11.5125 173.667C13.6404 165.682 16.4128 158.024 18.9303 150.118C21.51 142.017 23.6102 133.6 28.2955 126.419C29.3627 124.783 30.4655 123.023 32.1822 121.992C34.1066 120.836 34.1894 121.511 34.1878 119.395C34.1867 117.403 34.3093 114.741 33.8391 112.839C33.4142 111.122 33.4797 112.14 32.5229 110.906C31.7442 109.903 30.9296 109.217 30.3709 107.998C26.939 111.478 19.0832 109.642 15.7675 107.136C11.7091 104.069 8.61791 98.8948 7.4852 93.9669C6.57551 90.0097 7.69174 82.4666 12.0716 80.5637C14.2067 79.636 22.0491 78.9348 22.3629 75.9114C22.5247 74.3507 19.7645 72.1561 19.1277 70.8142C17.9474 68.3281 16.814 65.0211 16.486 62.2959C15.8453 56.9764 18.2601 51.0282 22.107 47.435C29.1638 40.8434 41.5803 37.4606 50.6577 41.6427C48.7395 34.315 47.5815 27.9935 48.5475 20.371C49.3798 13.8043 53.2542 10.1303 58.5855 6.85937C67.6832 1.27694 80.0549 -0.926406 90.4574 0.696788C92.8213 1.0658 95.0898 1.85709 97.2786 2.48667C100.458 3.40134 104.265 3.09671 107.267 4.58284C109.444 5.65999 111.097 7.80585 113.009 9.2386C115.241 10.9112 117.096 13.4077 118.646 15.7164C121.963 20.6535 120.667 29.8163 117.891 34.7721C117.296 35.8351 116.561 36.7298 115.576 37.4552C114.55 38.2101 112.987 38.445 112.459 39.424C111.106 41.932 112.411 47.3614 112.592 50.0721C112.802 53.2196 111.211 55.5839 107.642 55.8349C105.577 55.9805 105.511 54.7827 104.522 57.2474C103.882 58.8449 103.3 60.5853 102.375 62.0499C100.469 65.0683 96.977 64.7736 93.7965 64.692C90.1148 64.5969 86.4883 64.0153 82.8047 63.6482C83.7776 66.7654 86.4408 69.1849 88.1038 71.9619C90.3524 75.7179 91.7058 78.8313 92.0714 83.2073C92.3519 86.5695 91.7464 89.2246 89.4458 91.7268C88.4935 92.7626 87.6494 92.8135 87.8858 94.0083C88.0299 94.7372 89.2902 95.9396 89.7362 96.5213C90.9161 98.0602 92.286 99.4726 93.3244 101.116C97.3203 107.44 98.5006 117.079 98.5105 124.44C98.5109 124.778 98.691 125.495 98.542 125.845C98.4316 126.102 97.5932 126.919 97.5809 126.989C97.4169 127.936 98.3396 129.558 99.7877 129.719C101.309 129.887 104.094 128.618 105.509 128.201C107.773 127.533 110.08 127.04 112.339 126.355C115.987 125.248 119.619 124.365 123.328 123.498C125.004 123.106 126.689 122.779 128.371 122.413C130.286 121.996 131.176 121.19 132.164 123.139C133.012 124.811 132.485 125.114 134.539 124.272C136.579 123.434 138.572 122.397 140.563 121.452C144.076 119.786 148.259 118.3 151.288 115.841C156.342 111.737 158.214 105.202 163.051 100.848C164.398 99.6355 165.201 99.614 166.053 97.9345C166.964 96.137 167.435 93.8317 167.914 91.8981C168.753 88.5122 169.351 85.1145 170.112 81.7317C171.06 77.5174 173.11 73.7008 174.606 69.6811C175.188 68.115 175.49 66.1243 176.43 64.7169C176.679 64.3437 177.155 64.1333 177.35 63.8244C178.018 62.7642 178.011 62.4729 178.185 61.1973C178.995 55.2368 182.553 58.3724 186.441 59.7392C188.079 60.3152 195.857 64.0501 192.887 66.534C196.428 67.5613 202.099 67.003 202.051 72.0772C202.027 74.6772 200.472 77.4584 199.637 79.892C198.896 82.0528 198.179 84.222 197.426 86.3794C195.776 91.1053 193.775 95.6898 192.165 100.43C191.432 102.591 190.826 104.802 189.804 106.841C188.904 108.639 186.722 110.622 186.363 112.589C195.798 108.563 204.527 102.744 215.088 103.114C219.712 103.277 223.909 105.22 226.463 109.287C229.665 114.383 231.771 120.089 234.901 125.233C246.286 143.943 259.865 160.942 272.363 178.878C273.323 180.256 274.557 181.56 274.89 183.263C275.108 184.374 274.686 185.486 274.947 186.553C275.487 188.772 278.219 191.542 280.071 192.817C283.622 195.261 289.394 198.708 293.825 198.403C291.044 191.72 291.081 184.398 291.21 177.269C291.333 170.498 292.065 163.781 292.934 157.08C293.131 155.563 293.302 154.158 293.738 152.688C294.238 151.002 294.924 151.162 293.426 149.646C291.121 147.313 288.379 145.393 286.055 143.03C281.029 137.92 275.877 133.916 271.921 127.814C268.159 122.011 264.19 116.039 261.405 109.684C258.538 103.142 257.392 96.1553 255.968 89.2269C255.391 86.4154 253.285 83.2767 253.708 80.3407C254.243 76.6303 255.963 79.3322 256.664 81.329C258.801 87.4244 263.806 92.8798 267.952 97.782C272.43 103.078 277.908 107.508 282.583 112.65C287.674 118.25 291.161 124.686 295.688 130.664C295.688 123.245 293.155 115.691 292.119 108.352C291.207 101.892 290.921 95.4127 290.344 88.9253C289.036 74.1886 290.167 59.0177 292.003 44.3863C292.876 37.4376 292.381 30.6524 292.408 23.6799C292.416 21.4608 291.497 16.3464 292.668 14.3772C294.91 10.6054 296.218 18.8528 296.331 20.0825C297.009 27.4076 295.793 34.651 296.415 41.9447C297.064 49.5613 298.472 56.9642 299.671 64.4927C300.969 72.6443 303.084 80.612 305.108 88.6073C307.233 97.0018 309.02 105.571 311.383 113.899C312.02 111.281 311.126 108.066 310.949 105.4C310.697 101.585 310.205 97.769 310.162 93.944C310.094 87.8478 310.047 81.6386 310.391 75.5708C310.731 69.5899 310.629 63.3228 312.463 57.5608C313.333 54.826 314.61 52.1578 315.859 49.5816C317.401 46.405 317.946 43.3249 318.799 39.9463C319.53 37.0528 320.6 34.2356 321.087 31.2843C321.39 29.4488 322.235 24.0305 324.336 28.1356C325.556 30.5183 325.029 34.0506 325.063 36.6103C325.107 39.8919 324.604 43.0827 324.527 46.3506C324.377 52.7621 324.27 59.166 323.792 65.5668C323.29 72.2822 323.728 78.3006 325.005 84.9175C326.404 92.1606 326.813 99.4194 327.538 106.751C327.911 110.536 328.541 114.301 328.845 118.092C329.006 120.099 328.181 125.856 329.619 127.286C329.759 123.809 330.755 120.329 331.51 116.94C332.405 112.926 332.766 108.707 333.426 104.635C334.494 98.0391 336.566 91.7398 337.937 85.2176C340.763 71.7726 343.111 54.4926 354.955 45.6923C356.504 44.5408 358.207 43.6908 359.883 42.7432C360.831 42.2068 362.24 40.8188 363.325 40.5767C364.51 40.3123 365.004 40.5177 365.484 41.8918C366.153 43.8073 364.929 44.7021 363.786 46.0935C359.83 50.9079 358.14 57.0795 355.698 62.7258C350.105 75.6551 347.63 89.292 347.602 103.268C347.587 110.584 347.082 117.64 346.302 124.912C345.462 132.738 344.357 141.015 341.979 148.544C344.364 149.078 346.951 148.281 347.598 151.053C347.757 151.734 347.47 152.539 347.646 153.425C347.817 154.287 348.228 155.144 348.471 155.991C348.974 157.743 349.24 159.472 349.484 161.272C350.43 168.226 352.053 174.84 352.226 181.891C352.385 188.409 351.109 195.012 349.933 201.405C348.749 207.843 345.352 213.331 342.677 219.154C343.829 219.154 344.979 219.166 346.13 219.178Z" fill="#2E4A43"/>
<path fill-rule="evenodd" clip-rule="evenodd" d="M194.77 204.377C193.501 204.736 187.378 205.413 187.38 207.334C187.38 208.486 193.495 208.464 194.577 208.589C194.642 207.185 194.706 205.781 194.77 204.377ZM208.285 217.635C211.814 218.306 216.603 217.363 218.859 214.252C219.913 212.799 220.413 210.588 220.756 208.853C221.084 207.2 222.096 203.075 221.407 201.526C220.562 199.623 212.455 201.612 210.094 201.83C205.975 202.21 201.716 202.255 197.595 201.986C197.595 206.242 197.377 210.39 199.88 214.053C201.686 216.695 205.077 217.319 208.285 217.635ZM207.576 222.892C203.742 221.489 199.717 222.401 197.221 218.285C196.587 217.241 196.054 216.118 195.671 214.958C195.483 214.45 195.338 213.93 195.234 213.397C195.429 212.249 195.009 211.926 193.974 212.426C191.942 212.031 189.713 213.426 187.573 213.015C182.381 212.017 183.324 204.581 186.808 202.007C187.496 201.498 188.184 201.356 188.972 201.105C190.708 200.552 191.648 201.17 193.237 201.013C194.52 200.886 194.873 199.54 196.253 198.947C197.156 198.559 198.41 198.589 199.359 198.55C204.329 198.346 209.313 198.347 214.314 198.024C216.647 197.873 219.165 198.242 221.45 197.844C222.52 197.657 222.366 196.945 223.38 197.569C224.428 198.216 223.975 200.608 223.923 201.562C223.616 207.077 223.288 212.992 220.334 217.814C217.631 222.225 212.312 222.677 207.576 222.892Z" fill="#2E4A43"/>
<path fill-rule="evenodd" clip-rule="evenodd" d="M5.10315 224.412C6.33664 224.398 7.56975 224.385 8.79902 224.373C7.564 224.386 6.33357 224.399 5.10315 224.412Z" fill="#2E4A43"/>
<path fill-rule="evenodd" clip-rule="evenodd" d="M347.609 106.82C347.607 105.635 347.604 104.45 347.602 103.267C347.604 104.453 347.607 105.636 347.609 106.82Z" fill="#2E4A43"/>
<path fill-rule="evenodd" clip-rule="evenodd" d="M33.8429 111.685C33.8391 112.839 33.8353 113.994 33.8314 115.145C33.8349 113.99 33.8387 112.838 33.8429 111.685Z" fill="#2E4A43"/>
<path fill-rule="evenodd" clip-rule="evenodd" d="M136.373 223.103C137.354 223.105 138.336 223.106 139.312 223.109C138.329 223.107 137.351 223.106 136.373 223.103Z" fill="#2E4A43"/>
<path fill-rule="evenodd" clip-rule="evenodd" d="M76.7878 222.868C77.7692 222.871 78.7502 222.874 79.7269 222.878C78.744 222.875 77.7661 222.871 76.7878 222.868Z" fill="#2E4A43"/>
<path fill-rule="evenodd" clip-rule="evenodd" d="M291.34 174.934C291.297 175.713 291.253 176.492 291.21 177.269C291.254 176.49 291.297 175.712 291.34 174.934Z" fill="#2E4A43"/>
<path fill-rule="evenodd" clip-rule="evenodd" d="M346.131 219.178C345.372 219.169 344.614 219.162 343.856 219.154C344.618 218.836 345.376 218.85 346.131 219.178Z" fill="#2E4A43"/>
<path fill-rule="evenodd" clip-rule="evenodd" d="M278.802 222.627C279.346 222.618 279.89 222.61 280.429 222.601C279.884 222.609 279.343 222.618 278.802 222.627Z" fill="#2E4A43"/>
<path fill-rule="evenodd" clip-rule="evenodd" d="M347.314 116.433C347.327 115.844 347.341 115.255 347.354 114.668C347.341 115.258 347.327 115.845 347.314 116.433Z" fill="#2E4A43"/>
<path fill-rule="evenodd" clip-rule="evenodd" d="M296.415 41.9447C296.37 41.3373 296.325 40.7303 296.28 40.1245C296.325 40.7323 296.37 41.3385 296.415 41.9447Z" fill="#2E4A43"/>
<path fill-rule="evenodd" clip-rule="evenodd" d="M347.583 109.139C347.59 108.53 347.597 107.922 347.604 107.315C347.597 107.924 347.59 108.532 347.583 109.139Z" fill="#2E4A43"/>
<path fill-rule="evenodd" clip-rule="evenodd" d="M176.418 221.872C176.902 221.879 177.386 221.886 177.865 221.892C177.381 221.885 176.899 221.879 176.418 221.872Z" fill="#2E4A43"/>
<path fill-rule="evenodd" clip-rule="evenodd" d="M301.072 222.865C301.545 222.874 302.018 222.883 302.487 222.893C302.012 222.884 301.542 222.874 301.072 222.865Z" fill="#2E4A43"/>
<path fill-rule="evenodd" clip-rule="evenodd" d="M352.171 180.059C352.137 179.525 352.103 178.991 352.07 178.458C352.104 178.992 352.138 179.525 352.171 180.059Z" fill="#2E4A43"/>
<path fill-rule="evenodd" clip-rule="evenodd" d="M343.679 223.384C344.064 223.381 344.449 223.379 344.829 223.378C344.443 223.381 344.061 223.383 343.679 223.384Z" fill="#2E4A43"/>
<path fill-rule="evenodd" clip-rule="evenodd" d="M291.213 222.889C291.594 222.88 291.976 222.87 292.353 222.861C291.97 222.871 291.591 222.88 291.213 222.889Z" fill="#2E4A43"/>
<path fill-rule="evenodd" clip-rule="evenodd" d="M205.498 222.598C205.918 222.595 206.338 222.593 206.753 222.59C206.333 222.592 205.915 222.595 205.498 222.598Z" fill="#2E4A43"/>
<path fill-rule="evenodd" clip-rule="evenodd" d="M108.701 222.596C109.1 222.599 109.499 222.602 109.894 222.606C109.493 222.603 109.097 222.6 108.701 222.596Z" fill="#2E4A43"/>
<path fill-rule="evenodd" clip-rule="evenodd" d="M85.1533 222.661C85.5603 222.638 85.9665 222.615 86.3696 222.593C85.9615 222.616 85.5576 222.638 85.1533 222.661Z" fill="#2E4A43"/>
<path fill-rule="evenodd" clip-rule="evenodd" d="M197.89 67.6149C197.284 67.5628 196.679 67.5107 196.073 67.4582C196.68 67.5007 197.321 67.1421 197.89 67.6149Z" fill="#2E4A43"/>
<path fill-rule="evenodd" clip-rule="evenodd" d="M352.229 219.408C351.632 219.348 351.035 219.287 350.438 219.227C351.035 219.287 351.632 219.348 352.229 219.408Z" fill="#2E4A43"/>
<path fill-rule="evenodd" clip-rule="evenodd" d="M310.587 71.2908C310.547 71.8138 310.506 72.3373 310.466 72.8588C310.507 72.335 310.547 71.8127 310.587 71.2908Z" fill="#2E4A43"/>
<path fill-rule="evenodd" clip-rule="evenodd" d="M347.733 93.0989C347.774 92.6031 347.814 92.1072 347.855 91.6133C347.814 92.1099 347.773 92.6042 347.733 93.0989Z" fill="#2E4A43"/>
<path fill-rule="evenodd" clip-rule="evenodd" d="M310.349 79.4045C310.306 79.9268 310.263 80.4487 310.22 80.9691C310.263 80.4464 310.306 79.9253 310.349 79.4045Z" fill="#2E4A43"/>
<path fill-rule="evenodd" clip-rule="evenodd" d="M347.48 113.116C347.476 112.611 347.472 112.107 347.469 111.604C347.795 112.107 347.782 112.61 347.48 113.116Z" fill="#2E4A43"/>
<path fill-rule="evenodd" clip-rule="evenodd" d="M291.348 185.59C291.344 186.095 291.34 186.602 291.334 187.105C291 186.595 291.067 186.091 291.348 185.59Z" fill="#2E4A43"/>
<path fill-rule="evenodd" clip-rule="evenodd" d="M329.4 127.068C329.342 126.556 329.283 126.043 329.225 125.533C329.284 126.046 329.342 126.557 329.4 127.068Z" fill="#2E4A43"/>
<path fill-rule="evenodd" clip-rule="evenodd" d="M14.3163 80.0771C13.9205 80.6002 13.3813 80.2419 12.9108 80.3055C13.3798 80.2293 13.8481 80.1534 14.3163 80.0771Z" fill="#2E4A43"/>
<path fill-rule="evenodd" clip-rule="evenodd" d="M210.047 198.387C209.547 198.387 209.047 198.388 208.547 198.389C209.047 198.388 209.547 198.387 210.047 198.387Z" fill="#2E4A43"/>
<path fill-rule="evenodd" clip-rule="evenodd" d="M289.941 82.2263C289.988 82.6517 290.034 83.077 290.081 83.5008C290.034 83.0747 289.988 82.6505 289.941 82.2263Z" fill="#2E4A43"/>
<path fill-rule="evenodd" clip-rule="evenodd" d="M42.8034 39.9832C42.3007 39.9931 41.7979 40.0031 41.2952 40.0131C41.7925 39.7203 42.2938 39.6356 42.8034 39.9832Z" fill="#2E4A43"/>
<path fill-rule="evenodd" clip-rule="evenodd" d="M310.337 86.7622C310.304 87.2082 310.271 87.6539 310.239 88.098C310.272 87.652 310.304 87.2071 310.337 86.7622Z" fill="#2E4A43"/>
<path fill-rule="evenodd" clip-rule="evenodd" d="M296.55 32.0111C296.589 31.6045 296.628 31.198 296.666 30.7937C296.627 31.201 296.589 31.6061 296.55 32.0111Z" fill="#2E4A43"/>
<path fill-rule="evenodd" clip-rule="evenodd" d="M292.599 30.7375C292.56 31.1786 292.52 31.62 292.481 32.0596C292.521 31.6177 292.56 31.1775 292.599 30.7375Z" fill="#2E4A43"/>
<path fill-rule="evenodd" clip-rule="evenodd" d="M74.2215 1.27319C73.71 1.33527 73.1984 1.39735 72.6873 1.45904C73.1988 1.39696 73.71 1.33527 74.2215 1.27319Z" fill="#2E4A43"/>
<path fill-rule="evenodd" clip-rule="evenodd" d="M37.2729 40.3342C36.7479 40.3879 36.223 40.4415 35.6984 40.4952C36.2233 40.4415 36.7483 40.3879 37.2729 40.3342Z" fill="#2E4A43"/>
<path fill-rule="evenodd" clip-rule="evenodd" d="M324.946 41.627C324.979 41.2166 325.01 40.8058 325.042 40.3977C325.01 40.8085 324.978 41.2177 324.946 41.627Z" fill="#2E4A43"/>
<path fill-rule="evenodd" clip-rule="evenodd" d="M20.0424 109.358C20.3447 109.363 20.6466 109.367 20.9444 109.372C20.6409 109.367 20.3416 109.363 20.0424 109.358Z" fill="#2E4A43"/>
<path fill-rule="evenodd" clip-rule="evenodd" d="M292.614 160.01C292.584 160.465 292.554 160.919 292.524 161.372C292.554 160.918 292.584 160.464 292.614 160.01Z" fill="#2E4A43"/>
<path fill-rule="evenodd" clip-rule="evenodd" d="M323.456 71.5695C323.444 71.1315 323.432 70.6939 323.419 70.2571C323.432 70.6954 323.444 71.1323 323.456 71.5695Z" fill="#2E4A43"/>
<path fill-rule="evenodd" clip-rule="evenodd" d="M87.0992 0.236916C86.6329 0.236916 86.1665 0.237299 85.7009 0.237299C86.1673 -0.0830479 86.6332 -0.0750007 87.0992 0.236916Z" fill="#2E4A43"/>
<path fill-rule="evenodd" clip-rule="evenodd" d="M211.602 103.324C211.091 103.337 210.58 103.35 210.07 103.363C210.572 103.008 211.083 102.999 211.602 103.324Z" fill="#2E4A43"/>
<path fill-rule="evenodd" clip-rule="evenodd" d="M256.24 221.854C256.542 221.86 256.846 221.867 257.144 221.874C256.84 221.868 256.54 221.861 256.24 221.854Z" fill="#2E4A43"/>
<path fill-rule="evenodd" clip-rule="evenodd" d="M267.642 222.386C267.944 222.376 268.247 222.365 268.545 222.354C268.241 222.365 267.942 222.376 267.642 222.386Z" fill="#2E4A43"/>
<path fill-rule="evenodd" clip-rule="evenodd" d="M89.1921 222.597C89.5075 222.605 89.8229 222.613 90.134 222.62C89.8175 222.612 89.5048 222.605 89.1921 222.597Z" fill="#2E4A43"/>
<path fill-rule="evenodd" clip-rule="evenodd" d="M351.909 174.991C351.864 174.558 351.82 174.125 351.774 173.694C351.82 174.127 351.864 174.559 351.909 174.991Z" fill="#2E4A43"/>
<path fill-rule="evenodd" clip-rule="evenodd" d="M310.723 101.994C310.759 102.407 310.794 102.819 310.83 103.229C310.794 102.816 310.758 102.405 310.723 101.994Z" fill="#2E4A43"/>
<path fill-rule="evenodd" clip-rule="evenodd" d="M326.573 94.9084C326.524 94.4708 326.475 94.0332 326.426 93.5972C326.475 94.0352 326.524 94.4716 326.573 94.9084Z" fill="#2E4A43"/>
<path fill-rule="evenodd" clip-rule="evenodd" d="M91.7506 222.858C92.0687 222.853 92.3871 222.848 92.7017 222.844C92.3821 222.849 92.0664 222.853 91.7506 222.858Z" fill="#2E4A43"/>
<path fill-rule="evenodd" clip-rule="evenodd" d="M207.576 222.892C207.886 222.878 208.195 222.864 208.5 222.85C208.19 222.865 207.883 222.878 207.576 222.892Z" fill="#2E4A43"/>
<path fill-rule="evenodd" clip-rule="evenodd" d="M323.986 62.9545C323.972 62.5112 323.958 62.0678 323.944 61.6252C323.958 62.069 323.972 62.5116 323.986 62.9545Z" fill="#2E4A43"/>
<path fill-rule="evenodd" clip-rule="evenodd" d="M61.5924 223.147C61.9028 223.145 62.2128 223.142 62.519 223.14C62.207 223.143 61.9001 223.145 61.5924 223.147Z" fill="#2E4A43"/>
<path fill-rule="evenodd" clip-rule="evenodd" d="M323.856 223.143C324.175 223.146 324.494 223.149 324.809 223.153C324.489 223.149 324.172 223.146 323.856 223.143Z" fill="#2E4A43"/>
<path fill-rule="evenodd" clip-rule="evenodd" d="M330.744 223.105C331.052 223.127 331.36 223.149 331.664 223.17C331.355 223.149 331.05 223.127 330.744 223.105Z" fill="#2E4A43"/>
<path fill-rule="evenodd" clip-rule="evenodd" d="M333.526 223.099C333.84 223.109 334.153 223.118 334.463 223.125C334.148 223.115 333.837 223.107 333.526 223.099Z" fill="#2E4A43"/>
<path fill-rule="evenodd" clip-rule="evenodd" d="M347.809 96.6661C347.789 96.23 347.768 95.7936 347.748 95.3586C347.769 95.7955 347.789 96.2308 347.809 96.6661Z" fill="#2E4A43"/>
<path fill-rule="evenodd" clip-rule="evenodd" d="M137.31 217.383C138.264 217.334 139.218 217.284 140.172 217.234C139.218 217.284 138.264 217.334 137.31 217.383Z" fill="#2E4A43"/>
<path fill-rule="evenodd" clip-rule="evenodd" d="M79.7595 58.8203C80.5876 58.8924 81.4157 58.9644 82.243 59.0357C81.4149 58.964 80.5872 58.892 79.7595 58.8203Z" fill="#2E4A43"/>
<path fill-rule="evenodd" clip-rule="evenodd" d="M313.562 94.8218C313.588 95.6119 313.614 96.4021 313.64 97.1899C313.614 96.3994 313.588 95.6108 313.562 94.8218Z" fill="#2E4A43"/>
<path fill-rule="evenodd" clip-rule="evenodd" d="M330.651 218.734C331.516 218.787 332.38 218.839 333.244 218.891C332.375 218.931 331.492 219.179 330.651 218.734Z" fill="#2E4A43"/>
<path fill-rule="evenodd" clip-rule="evenodd" d="M325.536 125.272C325.542 124.518 325.549 123.765 325.555 123.013C325.548 123.767 325.542 124.519 325.536 125.272Z" fill="#2E4A43"/>
<path fill-rule="evenodd" clip-rule="evenodd" d="M323.323 148.953C324.082 148.963 324.841 148.973 325.599 148.983C324.84 148.973 324.082 148.963 323.323 148.953Z" fill="#2E4A43"/>
<path fill-rule="evenodd" clip-rule="evenodd" d="M132.386 135.702C132.367 136.277 132.348 136.851 132.33 137.423C132.349 136.848 132.367 136.275 132.386 135.702Z" fill="#2E4A43"/>
<path fill-rule="evenodd" clip-rule="evenodd" d="M335.947 111.379C335.916 111.951 335.885 112.522 335.854 113.091C335.886 112.519 335.916 111.949 335.947 111.379Z" fill="#2E4A43"/>
<path fill-rule="evenodd" clip-rule="evenodd" d="M319.765 216.191C320.317 216.153 320.869 216.116 321.419 216.081C321.004 216.413 320.587 216.44 319.765 216.191Z" fill="#2E4A43"/>
<path fill-rule="evenodd" clip-rule="evenodd" d="M316.072 141.469C316.11 142.086 316.148 142.702 316.186 143.316C316.148 142.7 316.11 142.085 316.072 141.469Z" fill="#2E4A43"/>
<path fill-rule="evenodd" clip-rule="evenodd" d="M109.757 44.2144C109.762 43.6193 109.768 43.0242 109.774 42.4314C109.769 43.0273 109.763 43.6208 109.757 44.2144Z" fill="#2E4A43"/>
<path fill-rule="evenodd" clip-rule="evenodd" d="M316.74 149.078L318.797 149.033C318.118 149.361 317.433 149.372 316.74 149.078Z" fill="#2E4A43"/>
<path fill-rule="evenodd" clip-rule="evenodd" d="M335.714 153.469C335.229 153.474 334.744 153.478 334.262 153.483C334.748 153.479 335.231 153.474 335.714 153.469Z" fill="#2E4A43"/>
<path fill-rule="evenodd" clip-rule="evenodd" d="M158.116 216.428C158.787 216.437 159.458 216.445 160.13 216.454C159.453 216.793 158.781 216.841 158.116 216.428Z" fill="#2E4A43"/>
<path fill-rule="evenodd" clip-rule="evenodd" d="M313.798 99.8965C313.832 100.515 313.865 101.133 313.898 101.75C313.865 101.131 313.832 100.514 313.798 99.8965Z" fill="#2E4A43"/>
<path fill-rule="evenodd" clip-rule="evenodd" d="M96.3221 60.2721C96.8965 59.9889 97.4755 59.9414 98.0603 60.2415C97.4805 60.2518 96.9015 60.2622 96.3221 60.2721Z" fill="#2E4A43"/>
<path fill-rule="evenodd" clip-rule="evenodd" d="M295.009 107.038C295.057 107.56 295.104 108.082 295.152 108.602C295.104 108.079 295.057 107.558 295.009 107.038Z" fill="#2E4A43"/>
<path fill-rule="evenodd" clip-rule="evenodd" d="M343.532 94.8653C343.237 94.3549 343.247 93.8471 343.546 93.344C343.541 93.8517 343.537 94.3587 343.532 94.8653Z" fill="#2E4A43"/>
<path fill-rule="evenodd" clip-rule="evenodd" d="M313.893 77.146C313.893 77.6622 313.893 78.1787 313.893 78.6933C313.893 78.176 313.893 77.661 313.893 77.146Z" fill="#2E4A43"/>
<path fill-rule="evenodd" clip-rule="evenodd" d="M334.483 148.707C335.074 148.526 335.665 148.269 336.254 148.713C335.664 148.711 335.073 148.709 334.483 148.707Z" fill="#2E4A43"/>
<path fill-rule="evenodd" clip-rule="evenodd" d="M61.8622 217.151C62.4071 216.912 62.9508 216.786 63.4877 217.17C62.9455 217.163 62.404 217.157 61.8622 217.151Z" fill="#2E4A43"/>
<path fill-rule="evenodd" clip-rule="evenodd" d="M173.318 216.382C173.901 216.128 174.482 215.988 175.057 216.4C174.477 216.394 173.898 216.389 173.318 216.382Z" fill="#2E4A43"/>
<path fill-rule="evenodd" clip-rule="evenodd" d="M43.6128 140.999C43.6565 141.525 43.7005 142.052 43.7438 142.576C43.6998 142.05 43.6561 141.525 43.6128 140.999Z" fill="#2E4A43"/>
<path fill-rule="evenodd" clip-rule="evenodd" d="M178.888 110.695C179.461 110.487 180.033 110.378 180.596 110.726C180.026 110.715 179.457 110.705 178.888 110.695Z" fill="#2E4A43"/>
<path fill-rule="evenodd" clip-rule="evenodd" d="M313.789 126.356C313.821 126.87 313.853 127.384 313.885 127.898C313.853 127.383 313.821 126.869 313.789 126.356Z" fill="#2E4A43"/>
<path fill-rule="evenodd" clip-rule="evenodd" d="M43.2423 79.9548C43.1947 80.3691 43.1472 80.7837 43.1001 81.1956C43.1476 80.7806 43.1947 80.3679 43.2423 79.9548Z" fill="#2E4A43"/>
<path fill-rule="evenodd" clip-rule="evenodd" d="M10.015 200.082C9.98549 200.486 9.95637 200.889 9.92725 201.289C9.95752 200.886 9.98626 200.484 10.015 200.082Z" fill="#2E4A43"/>
<path fill-rule="evenodd" clip-rule="evenodd" d="M325.79 129.077C325.758 128.661 325.726 128.244 325.694 127.829C325.726 128.246 325.758 128.662 325.79 129.077Z" fill="#2E4A43"/>
<path fill-rule="evenodd" clip-rule="evenodd" d="M132.192 139.25C132.288 139.553 132.383 139.857 132.478 140.161C131.841 140.315 131.746 140.011 132.192 139.25Z" fill="#2E4A43"/>
<path fill-rule="evenodd" clip-rule="evenodd" d="M170.493 110.009C171.012 110.007 171.53 110.005 172.049 110.003C171.531 110.249 171.013 110.418 170.493 110.009Z" fill="#2E4A43"/>
<path fill-rule="evenodd" clip-rule="evenodd" d="M43.9036 143.49C43.9212 143.95 43.9388 144.411 43.9557 144.869C43.9377 144.409 43.9204 143.95 43.9036 143.49Z" fill="#2E4A43"/>
<path fill-rule="evenodd" clip-rule="evenodd" d="M296.269 148.339C296.287 148.762 296.306 149.185 296.325 149.607C296.307 149.182 296.288 148.761 296.269 148.339Z" fill="#2E4A43"/>
<path fill-rule="evenodd" clip-rule="evenodd" d="M38.7604 218.17C39.2528 217.843 39.7463 217.872 40.2406 218.165C39.7471 218.167 39.2535 218.169 38.7604 218.17Z" fill="#2E4A43"/>
<path fill-rule="evenodd" clip-rule="evenodd" d="M51.7268 74.0396C51.7532 74.4718 51.7801 74.9044 51.8077 75.334C51.7812 74.901 51.754 74.4703 51.7268 74.0396Z" fill="#2E4A43"/>
<path fill-rule="evenodd" clip-rule="evenodd" d="M36.1984 218.215C36.7103 218.217 37.2222 218.219 37.7338 218.221C37.2203 218.571 36.7088 218.587 36.1984 218.215Z" fill="#2E4A43"/>
<path fill-rule="evenodd" clip-rule="evenodd" d="M319.678 67.2543C319.682 66.8152 319.686 66.3765 319.69 65.9385C319.686 66.378 319.682 66.816 319.678 67.2543Z" fill="#2E4A43"/>
<path fill-rule="evenodd" clip-rule="evenodd" d="M84.6486 59.5752C85.1383 59.6392 85.628 59.7032 86.1173 59.7668C85.6276 59.7028 85.1379 59.6392 84.6486 59.5752Z" fill="#2E4A43"/>
<path fill-rule="evenodd" clip-rule="evenodd" d="M41.434 97.4724C41.4405 97.8824 41.447 98.2928 41.4547 98.7009C41.4481 98.2901 41.4412 97.8813 41.434 97.4724Z" fill="#2E4A43"/>
<path fill-rule="evenodd" clip-rule="evenodd" d="M322.975 97.4135C322.948 96.9958 322.921 96.5781 322.894 96.1624C322.921 96.5808 322.949 96.9973 322.975 97.4135Z" fill="#2E4A43"/>
<path fill-rule="evenodd" clip-rule="evenodd" d="M208.757 217.725C209.361 217.78 209.965 217.835 210.569 217.889C209.965 217.834 209.361 217.78 208.757 217.725Z" fill="#2E4A43"/>
<path fill-rule="evenodd" clip-rule="evenodd" d="M206.738 202.082C206.411 202.088 206.085 202.093 205.761 202.1C206.088 202.095 206.413 202.089 206.738 202.082Z" fill="#2E4A43"/>
<path fill-rule="evenodd" clip-rule="evenodd" d="M206.765 217.486C207.272 217.536 207.779 217.586 208.286 217.636C207.779 217.586 207.272 217.536 206.765 217.486Z" fill="#2E4A43"/>
<path fill-rule="evenodd" clip-rule="evenodd" d="M115.558 183.356C116.217 187.082 110.427 190.726 109.967 185.429C109.8 183.492 111.095 182.13 112.545 180.946C114.604 179.266 115.754 180.875 115.558 183.356Z" fill="#2E4A43"/>
<path fill-rule="evenodd" clip-rule="evenodd" d="M51.7288 137.895C53.0929 138.453 63.5153 141.85 58.1016 143.558C56.6685 144.01 54.5023 144.077 53.26 143.281C51.7655 142.322 50.2581 139.493 51.7288 137.895Z" fill="#2E4A43"/>
<path fill-rule="evenodd" clip-rule="evenodd" d="M54.2939 87.4351C57.8315 87.0243 61.0909 92.8346 56.7294 92.6461C53.5547 92.5086 49.2852 87.4351 54.2939 87.4351Z" fill="#2E4A43"/>
<path fill-rule="evenodd" clip-rule="evenodd" d="M66.9487 101.682C69.9027 104.259 64.4273 110.027 62.2535 107.795C61.1434 106.654 62.1673 104.198 63.0835 103.244C64.0238 102.264 65.6968 102.081 66.9487 101.682Z" fill="#2E4A43"/>
<path fill-rule="evenodd" clip-rule="evenodd" d="M75.7429 168.498C73.999 168.775 66.3298 171.281 67.9293 166.729C68.5393 164.993 70.2407 165.508 71.7961 165.588C74.3029 165.716 75.7429 165.596 75.7429 168.498Z" fill="#2E4A43"/>
<path fill-rule="evenodd" clip-rule="evenodd" d="M70.6913 180.222C73.302 181.619 69.4858 189.435 67.3219 187.772C64.3196 185.465 68.4259 180.924 70.6913 180.222Z" fill="#2E4A43"/>
<path fill-rule="evenodd" clip-rule="evenodd" d="M82.0774 173.939C83.3469 173.421 89.3312 179.177 87.0531 180.778C85.8855 181.599 83.6734 180.192 82.9694 179.344C81.6497 177.753 81.5302 175.79 82.0774 173.939Z" fill="#2E4A43"/>
<path fill-rule="evenodd" clip-rule="evenodd" d="M47.5508 126.889C48.8483 127.102 51.0884 127.17 51.1723 128.993C51.2459 130.595 49.2368 131.115 47.8225 131.24C46.3549 131.371 44.4121 130.956 44.3841 129.111C44.3546 127.121 47.5048 127.241 47.5508 126.889Z" fill="#2E4A43"/>
<path fill-rule="evenodd" clip-rule="evenodd" d="M79.5464 206.229C80.9282 207.068 87.3735 210.089 84.6107 212.27C83.5768 213.087 80.4427 211.401 79.7373 210.543C78.8954 209.52 78.0727 207.123 79.5464 206.229Z" fill="#2E4A43"/>
<path fill-rule="evenodd" clip-rule="evenodd" d="M97.4637 184.313C97.264 180.98 102.889 179.653 101.722 184.385C101.394 185.719 101.076 187.744 99.426 187.821C97.4763 187.913 97.4058 185.606 97.4637 184.313Z" fill="#2E4A43"/>
<path fill-rule="evenodd" clip-rule="evenodd" d="M80.0891 126.34C80.1282 128.87 75.2823 131.1 75.2448 127.091C75.2115 123.509 80.2699 122.461 80.0891 126.34Z" fill="#2E4A43"/>
<path fill-rule="evenodd" clip-rule="evenodd" d="M76.889 113.169C78.083 113.553 79.6698 113.752 79.7748 115.269C79.8863 116.874 78.3949 117.589 77.053 117.499C75.9524 117.425 74.3239 116.61 74.1239 115.416C73.8307 113.663 75.5413 113.549 76.889 113.169Z" fill="#2E4A43"/>
<path fill-rule="evenodd" clip-rule="evenodd" d="M54.6862 159.471C54.6659 157.384 58.8481 154.876 59.6183 157.297C59.8647 158.072 57.8935 161.546 57.2379 161.807C55.5032 162.495 55.261 160.89 54.6862 159.471Z" fill="#2E4A43"/>
<path fill-rule="evenodd" clip-rule="evenodd" d="M88.9568 194.204C87.5436 195.469 83.3043 199.022 83.6212 194.252C83.8236 191.205 89.3296 191.364 88.9568 194.204Z" fill="#2E4A43"/>
<path fill-rule="evenodd" clip-rule="evenodd" d="M158.024 207.837C158.487 205.831 165.12 209.311 162.906 211.844C162.164 212.694 160.221 211.925 159.475 211.421C157.997 210.424 157.964 209.503 158.024 207.837Z" fill="#2E4A43"/>
<path fill-rule="evenodd" clip-rule="evenodd" d="M121.071 164.905C121.33 164.011 121.617 162.43 122.47 161.859C124.014 160.827 125.358 162.384 125.358 164.026C125.358 167.087 121.873 168.053 121.071 164.905Z" fill="#2E4A43"/>
<path fill-rule="evenodd" clip-rule="evenodd" d="M104.634 200.702C106.356 201.097 110.19 205.283 107.966 206.99C105.826 208.634 102.98 201.952 104.634 200.702Z" fill="#2E4A43"/>
<path fill-rule="evenodd" clip-rule="evenodd" d="M106.273 169.017C108.487 169.194 111.53 172.779 108.089 173.349C105.397 173.795 102.266 169.895 106.273 169.017Z" fill="#2E4A43"/>
<path fill-rule="evenodd" clip-rule="evenodd" d="M126.317 185.516C126.873 183.646 132.364 185.65 132.055 187.709C131.891 188.804 129.646 189.061 128.466 188.772C126.729 188.345 126.278 187.206 126.317 185.516Z" fill="#2E4A43"/>
<path fill-rule="evenodd" clip-rule="evenodd" d="M61.5902 81.056C61.63 78.6381 66.2762 77.6525 66.6165 80.0892C66.9242 82.2906 61.5319 84.6331 61.5902 81.056Z" fill="#2E4A43"/>
<path fill-rule="evenodd" clip-rule="evenodd" d="M124.782 210.431C125.117 209.215 125.262 207.751 126.78 207.591C128.519 207.408 128.468 208.741 128.264 210.123C127.707 213.882 125.583 214.07 124.782 210.431Z" fill="#2E4A43"/>
<path fill-rule="evenodd" clip-rule="evenodd" d="M51.4107 109.824C48.9886 110.371 44.5524 105.706 47.2638 104.705C49.1744 103.999 51.4107 108.417 51.4107 109.824Z" fill="#2E4A43"/>
<path fill-rule="evenodd" clip-rule="evenodd" d="M82.3042 146.06C81.0715 146.641 80.7876 146.993 79.8407 146.04C79.0161 145.211 79.0525 142.899 79.7602 142.036C82.4709 138.732 82.4073 144.723 82.3042 146.06Z" fill="#2E4A43"/>
<path fill-rule="evenodd" clip-rule="evenodd" d="M92.3614 139.358C93.647 139.521 97.4671 143.145 95.4779 144.585C93.0405 146.349 91.6614 140.822 92.3614 139.358Z" fill="#2E4A43"/>
<path fill-rule="evenodd" clip-rule="evenodd" d="M120.177 140.312C119.242 143.91 116.909 141.489 117.042 138.766C117.254 134.405 119.671 138.203 120.177 140.312Z" fill="#2E4A43"/>
<path fill-rule="evenodd" clip-rule="evenodd" d="M134.359 198.107C135.94 198.761 138.086 204.805 135.828 205.129C133.292 205.493 134.136 199.365 134.359 198.107Z" fill="#2E4A43"/>
<path fill-rule="evenodd" clip-rule="evenodd" d="M114.615 194.712C116.424 194.101 117.087 197.917 116.036 198.626C113.722 200.186 114.21 195.612 114.615 194.712Z" fill="#2E4A43"/>
<path fill-rule="evenodd" clip-rule="evenodd" d="M97.4636 184.313C97.4407 184.82 97.418 185.326 97.3943 185.83C97.4169 185.323 97.4399 184.818 97.4636 184.313Z" fill="#2E4A43"/>
<path fill-rule="evenodd" clip-rule="evenodd" d="M158.024 207.837C158.005 208.357 157.987 208.876 157.967 209.393C157.985 208.872 158.005 208.355 158.024 207.837Z" fill="#2E4A43"/>
<path fill-rule="evenodd" clip-rule="evenodd" d="M126.317 185.516C126.307 185.957 126.297 186.397 126.285 186.835C126.295 186.394 126.307 185.955 126.317 185.516Z" fill="#2E4A43"/>
<path fill-rule="evenodd" clip-rule="evenodd" d="M326.418 177.932C330.169 177.812 334.353 176.4 338.039 176.849C339.053 176.973 341.389 177.229 339.763 178.734C338.986 179.453 335.264 179.081 334.137 179.32C327.251 180.778 319.434 181.718 312.373 181.597C309.067 181.54 305.738 181.275 302.434 181.1C299.132 180.926 298.808 179.584 302.523 179.157C306.381 178.714 310.34 178.879 314.218 178.874C318.294 178.869 322.35 178.204 326.418 177.932Z" fill="#2E4A43"/>
<path fill-rule="evenodd" clip-rule="evenodd" d="M334.652 168.896C334.291 169.924 333.974 172.283 332.591 172.437C330.654 172.654 330.333 169.327 330.404 168.111C330.491 166.642 331.019 164.203 332.844 164.712C334.386 165.141 334.54 167.721 334.652 168.896Z" fill="#2E4A43"/>
<path fill-rule="evenodd" clip-rule="evenodd" d="M322.923 168.143C323.206 167.043 323.345 164.561 324.902 164.477C326.642 164.383 327.139 166.969 327.127 168.207C327.116 169.383 326.681 171.605 325.296 171.877C323.418 172.245 323.25 169.401 322.923 168.143Z" fill="#2E4A43"/>
<path fill-rule="evenodd" clip-rule="evenodd" d="M303.39 170.118C302.826 171.44 302.453 173.262 300.709 172.36C299.36 171.663 299.172 168.85 299.426 167.562C299.69 166.228 300.248 164.697 301.781 165.297C303.55 165.99 303.371 168.661 303.39 170.118Z" fill="#2E4A43"/>
<path fill-rule="evenodd" clip-rule="evenodd" d="M318.182 168.896C316.519 173.936 313.487 170.526 314.638 166.763C315.842 162.83 318.029 166.65 318.182 168.896Z" fill="#2E4A43"/>
<path fill-rule="evenodd" clip-rule="evenodd" d="M310.081 169.145C309.619 170.033 309.128 171.947 307.883 171.746C306.357 171.498 306.308 168.562 306.476 167.468C306.622 166.511 307.052 164.916 308.329 164.936C310.174 164.966 310.051 167.997 310.081 169.145Z" fill="#2E4A43"/>
<path fill-rule="evenodd" clip-rule="evenodd" d="M343.247 170.113C342.009 172.89 340.307 170.498 340.852 168.525C341.66 165.6 343.177 168.192 343.247 170.113Z" fill="#2E4A43"/>
<path fill-rule="evenodd" clip-rule="evenodd" d="M312.935 178.878C311.583 178.872 310.231 178.867 308.88 178.862C310.232 178.607 311.585 178.508 312.935 178.878Z" fill="#2E4A43"/>
<path fill-rule="evenodd" clip-rule="evenodd" d="M339.797 176.838C338.624 176.846 337.452 176.853 336.28 176.861C337.451 176.51 338.623 176.502 339.797 176.838Z" fill="#2E4A43"/>
<path fill-rule="evenodd" clip-rule="evenodd" d="M303.39 170.118C303.381 169.444 303.372 168.77 303.364 168.098C303.711 168.768 303.687 169.441 303.39 170.118Z" fill="#2E4A43"/>
<path fill-rule="evenodd" clip-rule="evenodd" d="M310.745 181.583C311.289 181.588 311.833 181.592 312.373 181.597C311.827 181.592 311.286 181.588 310.745 181.583Z" fill="#2E4A43"/>
<path fill-rule="evenodd" clip-rule="evenodd" d="M301.607 181.101C302.159 181.101 302.71 181.1 303.257 181.101C302.704 181.101 302.156 181.101 301.607 181.101Z" fill="#2E4A43"/>
<path fill-rule="evenodd" clip-rule="evenodd" d="M306.126 178.936C305.36 178.999 304.593 179.062 303.827 179.125C304.594 179.062 305.36 178.999 306.126 178.936Z" fill="#2E4A43"/>
<path fill-rule="evenodd" clip-rule="evenodd" d="M316.488 178.869C315.731 178.871 314.974 178.872 314.218 178.874C314.974 178.555 315.73 178.546 316.488 178.869Z" fill="#2E4A43"/>
<path fill-rule="evenodd" clip-rule="evenodd" d="M310.081 169.146C310.062 168.444 310.044 167.742 310.026 167.04C310.045 167.743 310.063 168.444 310.081 169.146Z" fill="#2E4A43"/>
<path fill-rule="evenodd" clip-rule="evenodd" d="M299.427 167.562C299.423 168.247 299.418 168.932 299.413 169.614C299.417 168.928 299.422 168.245 299.427 167.562Z" fill="#2E4A43"/>
<path fill-rule="evenodd" clip-rule="evenodd" d="M330.718 177.677C330.049 177.738 329.38 177.798 328.712 177.859C329.381 177.798 330.05 177.738 330.718 177.677Z" fill="#2E4A43"/>
<path fill-rule="evenodd" clip-rule="evenodd" d="M343.247 170.113C343.225 169.515 343.204 168.917 343.182 168.319C343.204 168.918 343.225 169.515 343.247 170.113Z" fill="#2E4A43"/>
<path fill-rule="evenodd" clip-rule="evenodd" d="M314.788 181.603C315.253 181.594 315.719 181.585 316.18 181.577C315.713 181.586 315.25 181.595 314.788 181.603Z" fill="#2E4A43"/>
<path fill-rule="evenodd" clip-rule="evenodd" d="M334.652 168.896C334.611 168.466 334.57 168.036 334.53 167.607C334.571 168.038 334.612 168.467 334.652 168.896Z" fill="#2E4A43"/>
<path fill-rule="evenodd" clip-rule="evenodd" d="M318.182 168.896C318.152 168.455 318.122 168.013 318.092 167.573C318.122 168.014 318.152 168.455 318.182 168.896Z" fill="#2E4A43"/>
<path fill-rule="evenodd" clip-rule="evenodd" d="M78.0611 39.1746C76.2299 38.6941 75.8865 36.1206 76.1808 34.5399C76.5146 33.7781 76.8483 33.0167 77.1821 32.255C77.0514 31.9733 76.9211 31.6917 76.7908 31.41C76.9583 29.8412 76.5303 29.1595 78.3332 29.7949C81.6823 30.9759 82.2176 39.0535 78.0611 39.1746Z" fill="#2E4A43"/>
<path fill-rule="evenodd" clip-rule="evenodd" d="M105.169 34.1988C106.677 34.08 109.418 35.837 107.916 37.5368C106.986 38.5898 103.92 38.0917 102.669 38.3116C101.01 38.6032 99.2799 39.0021 100.177 36.5175C100.882 34.5663 103.399 34.1479 105.169 34.1988Z" fill="#2E4A43"/>
<path fill-rule="evenodd" clip-rule="evenodd" d="M103.581 45.8855C102.049 44.6566 102.733 39.0593 105.065 40.0664C107.464 41.1029 104.86 45.0777 103.581 45.8855Z" fill="#2E4A43"/>
<path fill-rule="evenodd" clip-rule="evenodd" d="M76.1809 34.5398C76.1809 35.1288 76.1805 35.7181 76.1794 36.3044C75.8598 35.7143 75.8698 35.1268 76.1809 34.5398Z" fill="#2E4A43"/>
<path fill-rule="evenodd" clip-rule="evenodd" d="M78.0612 39.1745C78.3735 39.1657 78.6861 39.1565 78.9946 39.1484C78.6808 39.1584 78.3712 39.1665 78.0612 39.1745Z" fill="#2E4A43"/>
<path fill-rule="evenodd" clip-rule="evenodd" d="M267.274 200.37C267.13 202.916 264.396 201.034 264.59 199.33C264.942 196.24 266.69 199.294 267.274 200.37Z" fill="#2E4A43"/>
</svg>
