<svg width="24" height="25" viewBox="0 0 24 25" fill="none" xmlns="http://www.w3.org/2000/svg">
<path d="M16.7801 18.1406C16.9234 18.2759 17.1131 18.351 17.3101 18.3506C17.5077 18.3542 17.6986 18.2786 17.8401 18.1406C17.9836 17.9996 18.0645 17.8069 18.0645 17.6056C18.0645 17.4044 17.9836 17.2117 17.8401 17.0706L8.48993 7.72046H16.6301C17.0443 7.72046 17.3801 7.38467 17.3801 6.97046C17.3801 6.55625 17.0443 6.22046 16.6301 6.22046H6.78422C6.68637 6.20556 6.585 6.20993 6.48583 6.23526C6.22009 6.30312 6.01259 6.51062 5.94473 6.77635C5.89947 6.95356 5.92113 7.13782 6.00008 7.29637V16.8605C5.99413 17.2579 6.3032 17.589 6.70008 17.6105L6.69008 17.6005C7.1043 17.6005 7.44008 17.2647 7.44008 16.8505V8.79182L16.7801 18.1406Z" fill="#6A8278"/>
</svg>
