<svg width="24" height="24" viewBox="0 0 24 24" fill="none" xmlns="http://www.w3.org/2000/svg">
<path fill-rule="evenodd" clip-rule="evenodd" d="M4.85739 4H19.1431C20.7211 4 22.0002 5.34315 22.0002 7V17C22.0002 18.6569 20.7211 20 19.1431 20H4.85739C3.27943 20 2.00024 18.6569 2.00024 17V7C2.00024 5.34315 3.27943 4 4.85739 4ZM19.1429 18.4899C19.9266 18.4899 20.5619 17.8228 20.5619 16.9999V6.99989C20.5645 6.5995 20.4135 6.21486 20.143 5.93267C19.8725 5.65049 19.5051 5.49451 19.1238 5.49989H4.83813C4.46012 5.49988 4.09773 5.65824 3.83133 5.93983C3.56493 6.22143 3.41655 6.60299 3.41908 6.99989V16.9999C3.41905 17.3986 3.57117 17.7806 3.84142 18.0606C4.11168 18.3406 4.47753 18.4952 4.85718 18.4899H19.1429Z" fill="#2E4A43"/>
<path d="M5.32428 11.9524C5.32428 11.4264 5.75067 11 6.27666 11C6.80264 11 7.22904 11.4264 7.22904 11.9524V12.0476C7.22904 12.5736 6.80264 13 6.27666 13C5.75067 13 5.32428 12.5736 5.32428 12.0476V11.9524Z" fill="#2E4A43"/>
<path d="M9.1338 11.9524C9.1338 11.4264 9.5602 11 10.0862 11C10.6122 11 11.0386 11.4264 11.0386 11.9524V12.0476C11.0386 12.5736 10.6122 13 10.0862 13C9.5602 13 9.1338 12.5736 9.1338 12.0476V11.9524Z" fill="#2E4A43"/>
<path d="M12.9433 11.9524C12.9433 11.4264 13.3697 11 13.8957 11C14.4217 11 14.8481 11.4264 14.8481 11.9524V12.0476C14.8481 12.5736 14.4217 13 13.8957 13C13.3697 13 12.9433 12.5736 12.9433 12.0476V11.9524Z" fill="#2E4A43"/>
<path d="M16.7528 11.9524C16.7528 11.4264 17.1792 11 17.7052 11C18.2312 11 18.6576 11.4264 18.6576 11.9524V12.0476C18.6576 12.5736 18.2312 13 17.7052 13C17.1792 13 16.7528 12.5736 16.7528 12.0476V11.9524Z" fill="#2E4A43"/>
<path d="M5.32428 7.95238C5.32428 7.4264 5.75067 7 6.27666 7C6.80264 7 7.22904 7.4264 7.22904 7.95238V8.04762C7.22904 8.5736 6.80264 9 6.27666 9C5.75067 9 5.32428 8.5736 5.32428 8.04762V7.95238Z" fill="#2E4A43"/>
<path d="M9.1338 7.95238C9.1338 7.4264 9.5602 7 10.0862 7C10.6122 7 11.0386 7.4264 11.0386 7.95238V8.04762C11.0386 8.5736 10.6122 9 10.0862 9C9.5602 9 9.1338 8.5736 9.1338 8.04762V7.95238Z" fill="#2E4A43"/>
<path d="M12.9433 7.95238C12.9433 7.4264 13.3697 7 13.8957 7C14.4217 7 14.8481 7.4264 14.8481 7.95238V8.04762C14.8481 8.5736 14.4217 9 13.8957 9C13.3697 9 12.9433 8.5736 12.9433 8.04762V7.95238Z" fill="#2E4A43"/>
<path d="M16.7528 7.95238C16.7528 7.4264 17.1792 7 17.7052 7C18.2312 7 18.6576 7.4264 18.6576 7.95238V8.04762C18.6576 8.5736 18.2312 9 17.7052 9C17.1792 9 16.7528 8.5736 16.7528 8.04762V7.95238Z" fill="#2E4A43"/>
<path d="M7.70523 15.96C7.70523 15.4298 8.13504 15 8.66523 15H15.3167C15.8469 15 16.2767 15.4298 16.2767 15.96V16.04C16.2767 16.5702 15.8469 17 15.3167 17H8.66523C8.13504 17 7.70523 16.5702 7.70523 16.04V15.96Z" fill="#2E4A43"/>
</svg>
