<svg width="244" height="243" viewBox="0 0 244 243" fill="none" xmlns="http://www.w3.org/2000/svg">
<path d="M122 3.95679C98.7398 3.95679 76.0019 10.8542 56.6617 23.7769C37.3216 36.6996 22.2477 55.0671 13.3464 76.5568C4.44512 98.0464 2.11613 121.693 6.65398 144.506C11.1918 167.32 22.3927 188.275 38.8402 204.722C55.2876 221.17 76.243 232.371 99.0563 236.909C121.87 241.446 145.516 239.117 167.006 230.216C188.495 221.315 206.863 206.241 219.786 186.901C232.708 167.561 239.606 144.823 239.606 121.563C239.606 90.3716 227.215 60.4581 205.16 38.4027C183.104 16.3474 153.191 3.95679 122 3.95679ZM122 79.8315C130.254 79.8315 138.322 82.279 145.185 86.8644C152.047 91.4499 157.396 97.9674 160.555 105.593C163.713 113.218 164.539 121.609 162.929 129.704C161.319 137.799 157.345 145.235 151.508 151.071C145.672 156.907 138.236 160.882 130.141 162.492C122.046 164.102 113.656 163.276 106.03 160.117C98.4048 156.959 91.8873 151.61 87.3019 144.747C82.7164 137.884 80.2689 129.816 80.2689 121.563C80.2689 110.495 84.6656 99.8803 92.4917 92.0542C100.318 84.2281 110.932 79.8315 122 79.8315Z" fill="#FBD1A2"/>
<path d="M122 239.168C52.4988 239.168 0.600471 179.379 4.39421 116.251C4.39421 147.442 16.7848 177.356 38.8401 199.411C60.8955 221.466 90.809 233.857 122 233.857C153.191 233.857 183.104 221.466 205.16 199.411C227.215 177.356 239.606 147.442 239.606 116.251C243.589 179.531 191.349 239.168 122 239.168Z" fill="#F79256"/>
<path d="M217.071 77.0996C214.795 68.5258 215.06 58.8897 210.735 51.3781C206.411 43.8665 197.761 39.2002 191.767 33.0164C187.973 29.2227 182.927 22.1663 179.741 18.9796C162.12 9.1263 142.263 3.96547 122.075 3.99205C101.887 4.01862 82.0436 9.2317 64.449 19.1313C62.3624 21.18 65.3974 20.1936 52.4228 33.1682C46.1252 39.2002 37.7031 43.7527 33.2645 51.3781C28.8258 59.0035 29.2052 68.4499 26.9289 77.0996C24.6527 85.7493 19.5691 93.6024 19.5691 102.594C19.5691 111.585 24.6906 119.779 26.9289 128.087C29.1672 136.396 28.9396 146.297 33.2645 153.809C37.5893 161.321 46.239 165.987 52.4228 172.171C67.5978 187.346 57.165 204.152 63.5385 210.374C64.6241 211.457 66.0126 212.186 67.5208 212.464C69.029 212.743 70.5862 212.557 71.9871 211.933C73.3879 211.308 74.5666 210.274 75.3678 208.966C76.169 207.659 76.5551 206.139 76.4751 204.607V200.813C76.4776 199.782 76.7429 198.768 77.2459 197.868C77.7489 196.967 78.4731 196.21 79.3501 195.667C80.2271 195.124 81.228 194.813 82.2583 194.765C83.2886 194.716 84.3143 194.931 85.2386 195.388C92.4847 199.144 91.6501 200.055 91.6501 208.818C91.6585 210.827 92.4635 212.751 93.8884 214.167C94.9493 215.222 96.2984 215.94 97.7661 216.23C99.2337 216.52 100.754 216.37 102.137 215.798C103.519 215.226 104.702 214.259 105.536 213.017C106.37 211.775 106.819 210.314 106.825 208.818C106.826 207.991 107.02 207.176 107.391 206.438C107.763 205.699 108.302 205.058 108.965 204.564C109.628 204.07 110.397 203.738 111.211 203.594C112.025 203.45 112.861 203.498 113.654 203.734C122.303 206.238 128.07 205.1 144.421 199.41C145.319 199.095 146.279 198.999 147.221 199.131C148.163 199.263 149.059 199.619 149.836 200.169C150.612 200.719 151.245 201.446 151.683 202.291C152.12 203.136 152.349 204.073 152.35 205.024C152.35 207.037 153.149 208.967 154.572 210.39C155.995 211.812 157.925 212.612 159.937 212.612C161.95 212.612 163.88 211.812 165.302 210.39C166.725 208.967 167.525 207.037 167.525 205.024V186.056C167.525 184.043 168.324 182.113 169.747 180.691C171.17 179.268 173.1 178.468 175.112 178.468C177.125 178.468 179.054 179.268 180.477 180.691C181.9 182.113 182.7 184.043 182.7 186.056V189.849C182.7 191.862 183.499 193.792 184.922 195.215C186.345 196.638 188.275 197.437 190.287 197.437C192.299 197.437 194.229 196.638 195.652 195.215C197.075 193.792 197.875 191.862 197.875 189.849C197.875 169.212 208.194 158.437 210.735 153.809C215.06 146.221 214.795 136.661 217.071 128.087C219.347 119.514 224.431 111.585 224.431 102.594C224.431 93.6024 219.309 85.4079 217.071 77.0996ZM122 163.293C113.746 163.293 105.678 160.846 98.8154 156.26C91.9527 151.675 86.604 145.157 83.4454 137.532C80.2869 129.907 79.4605 121.516 81.0707 113.421C82.6809 105.326 86.6554 97.8901 92.4916 92.0539C98.3278 86.2177 105.764 82.2432 113.859 80.633C121.954 79.0228 130.344 79.8492 137.97 83.0077C145.595 86.1662 152.113 91.515 156.698 98.3776C161.284 105.24 163.731 113.309 163.731 121.562C163.731 132.63 159.334 143.244 151.508 151.071C143.682 158.897 133.068 163.293 122 163.293Z" fill="#DCFDF3"/>
<path d="M217.071 77.0996C214.795 68.5258 215.06 58.8897 210.735 51.3781C206.411 43.8665 197.761 39.2002 191.767 33.0164C187.973 29.2227 182.927 22.1663 179.741 18.9796C162.12 9.1263 142.263 3.96547 122.075 3.99205C101.887 4.01862 82.0436 9.2317 64.449 19.1313C62.3624 21.18 65.3974 20.1936 52.4228 33.1682C46.1252 39.2002 37.7031 43.7527 33.2645 51.3781C28.8258 59.0035 29.2052 68.4499 26.9289 77.0996C24.6527 85.7493 19.5691 93.6024 19.5691 102.594C19.5691 111.585 24.6906 119.779 26.9289 128.087C29.1672 136.396 28.9396 146.297 33.2645 153.809C37.5893 161.321 46.239 165.987 52.4228 172.171C67.5978 187.346 57.165 204.152 63.5385 210.374C64.6241 211.457 66.0126 212.186 67.5208 212.464C69.029 212.743 70.5862 212.557 71.9871 211.933C73.3879 211.308 74.5666 210.274 75.3678 208.966C76.169 207.659 76.5551 206.139 76.4751 204.607V200.813C76.4776 199.782 76.7429 198.768 77.2459 197.868C77.7489 196.967 78.4731 196.21 79.3501 195.667C80.2271 195.124 81.228 194.813 82.2583 194.765C83.2886 194.716 84.3143 194.931 85.2386 195.388C92.4847 199.144 91.6501 200.055 91.6501 208.818C91.6585 210.827 92.4635 212.751 93.8884 214.167C94.9493 215.222 96.2984 215.94 97.7661 216.23C99.2337 216.52 100.754 216.37 102.137 215.798C103.519 215.226 104.702 214.259 105.536 213.017C106.37 211.775 106.819 210.314 106.825 208.818C106.826 207.991 107.02 207.176 107.391 206.438C107.763 205.699 108.302 205.058 108.965 204.564C109.628 204.07 110.397 203.738 111.211 203.594C112.025 203.45 112.861 203.498 113.654 203.734C122.303 206.238 128.07 205.1 144.421 199.41C145.319 199.095 146.279 198.999 147.221 199.131C148.163 199.263 149.059 199.619 149.836 200.169C150.612 200.719 151.245 201.446 151.683 202.291C152.12 203.136 152.349 204.073 152.35 205.024C152.35 207.037 153.149 208.967 154.572 210.39C155.995 211.812 157.925 212.612 159.937 212.612C161.95 212.612 163.88 211.812 165.302 210.39C166.725 208.967 167.525 207.037 167.525 205.024V186.056C167.525 184.043 168.324 182.113 169.747 180.691C171.17 179.268 173.1 178.468 175.112 178.468C177.125 178.468 179.054 179.268 180.477 180.691C181.9 182.113 182.7 184.043 182.7 186.056V189.849C182.7 191.862 183.499 193.792 184.922 195.215C186.345 196.638 188.275 197.437 190.287 197.437C192.299 197.437 194.229 196.638 195.652 195.215C197.075 193.792 197.875 191.862 197.875 189.849C197.875 169.212 208.194 158.437 210.735 153.809C215.06 146.221 214.795 136.661 217.071 128.087C219.347 119.514 224.431 111.585 224.431 102.594C224.431 93.6024 219.309 85.4079 217.071 77.0996ZM122 163.293C113.746 163.293 105.678 160.846 98.8154 156.26C91.9527 151.675 86.604 145.157 83.4454 137.532C80.2869 129.907 79.4605 121.516 81.0707 113.421C82.6809 105.326 86.6554 97.8901 92.4916 92.0539C98.3278 86.2177 105.764 82.2432 113.859 80.633C121.954 79.0228 130.344 79.8492 137.97 83.0077C145.595 86.1662 152.113 91.515 156.698 98.3776C161.284 105.24 163.731 113.309 163.731 121.562C163.731 132.63 159.334 143.244 151.508 151.071C143.682 158.897 133.068 163.293 122 163.293Z" fill="#DCFDF3"/>
<path d="M217.071 77.0996C214.795 68.5258 215.06 58.8897 210.735 51.3781C206.411 43.8665 197.761 39.2002 191.767 33.0164C187.973 29.2227 182.927 22.1663 179.741 18.9796C162.12 9.1263 142.263 3.96547 122.075 3.99205C101.887 4.01862 82.0436 9.2317 64.449 19.1313C62.3625 21.18 65.3975 20.1936 52.4229 33.1682C46.1253 39.2002 37.7032 43.7527 33.2645 51.3781C28.8258 59.0035 29.2052 68.4499 26.929 77.0996C24.1975 87.1909 18.2034 95.3854 19.8726 106.387C20.9728 98.7998 24.9942 91.8193 26.929 84.6871C29.2052 76.1132 28.9397 66.4771 33.2645 58.9656C37.5894 51.454 46.2391 46.7877 52.4229 40.6039C65.094 27.9707 62.5142 28.5777 64.4111 26.7188C71.4475 22.7581 78.8715 19.5292 86.5665 17.0827C99.2376 14.9582 101.893 11.5439 122 11.5439C142.107 11.5439 145.711 15.11 157.433 16.9689C165.175 19.3401 172.611 22.6125 179.589 26.7188C183.838 31.1195 187.176 36.4687 191.577 40.7177C197.761 46.9015 206.297 51.454 210.546 59.0794C214.795 66.7048 214.605 76.227 216.881 84.8009C218.816 91.9331 222.837 98.9515 223.938 106.501C225.797 95.3854 219.727 86.8874 217.071 77.0996Z" fill="#DCFDF3"/>
<path d="M163.731 125.356C162.743 135.689 157.939 145.282 150.258 152.263C142.577 159.245 132.569 163.113 122.19 163.113C111.81 163.113 101.803 159.245 94.1217 152.263C86.4406 145.282 81.6369 135.689 80.6483 125.356C80.0945 131.145 80.7566 136.986 82.5924 142.504C84.4281 148.022 87.3968 153.095 91.3082 157.399C95.2195 161.702 99.9871 165.14 105.305 167.493C110.623 169.846 116.374 171.062 122.19 171.062C128.005 171.062 133.756 169.846 139.074 167.493C144.392 165.14 149.16 161.702 153.071 157.399C156.983 153.095 159.951 148.022 161.787 142.504C163.623 136.986 164.285 131.145 163.731 125.356Z" fill="#F79256"/>
<path d="M174.126 11.9614C92.902 -26.6968 0.60047 33.2442 0.60047 121.562C0.593654 143.285 6.41546 164.611 17.4587 183.317C28.5018 202.023 44.3619 217.423 63.3845 227.912C82.4072 238.4 103.896 243.592 125.608 242.946C147.321 242.301 168.463 235.841 186.829 224.241C205.195 212.641 220.112 196.325 230.024 176.996C239.936 157.667 244.48 136.032 243.183 114.349C241.885 92.665 234.793 71.7267 222.647 53.7176C210.5 35.7085 193.744 21.2884 174.126 11.9614ZM175.112 174.675C172.094 174.675 169.199 175.874 167.065 178.008C164.93 180.143 163.731 183.037 163.731 186.056V205.025C163.731 206.031 163.331 206.996 162.62 207.707C161.908 208.419 160.943 208.818 159.937 208.818C158.931 208.818 157.966 208.419 157.255 207.707C156.543 206.996 156.144 206.031 156.144 205.025C156.149 203.466 155.779 201.929 155.065 200.543C154.351 199.157 153.314 197.964 152.042 197.063C150.769 196.163 149.299 195.582 147.754 195.37C146.21 195.157 144.637 195.32 143.169 195.844C126.818 201.496 121.962 202.217 114.716 200.093C113.358 199.692 111.926 199.613 110.532 199.862C109.139 200.111 107.823 200.682 106.688 201.529C105.554 202.376 104.633 203.476 103.998 204.741C103.363 206.007 103.032 207.403 103.031 208.818C103.021 209.565 102.79 210.293 102.368 210.909C101.945 211.525 101.35 212.003 100.658 212.283C99.9647 212.562 99.2047 212.631 98.4729 212.481C97.7411 212.33 97.0701 211.966 96.544 211.436C95.0645 210.032 95.4438 208.818 95.4438 203.014C95.4438 196.375 90.6258 194.023 86.9459 192.202C85.4461 191.437 83.7738 191.073 82.0918 191.146C80.4098 191.219 78.7754 191.727 77.3477 192.619C72.3021 195.73 72.6814 200.206 72.6814 204.607C72.7609 205.39 72.595 206.178 72.2068 206.862C71.8186 207.547 71.2273 208.093 70.5147 208.427C69.8021 208.76 69.0035 208.864 68.2294 208.723C67.4553 208.583 66.7441 208.205 66.1942 207.642C64.7146 206.239 65.094 205.745 65.094 193.454C65.056 184.459 61.4705 175.843 55.1164 169.477C52.7047 167.181 50.172 165.016 47.529 162.99C27.2704 146.829 37.5514 144.021 27.3463 117.996C17.824 93.6025 28.1809 96.1064 32.4678 68.4501C34.6682 54.1097 36.2616 51.4921 47.6428 42.3492C53.7128 37.4552 63.8041 27.7812 66.8011 22.1665C67.9013 20.0799 121.241 -8.98007 177.237 22.1665C181.031 26.3775 184.559 31.4991 188.884 35.8619C195.143 41.8939 203.489 46.4843 207.435 53.2751C211.38 60.0659 211.229 69.4744 213.391 78.0862C215.553 86.6979 220.637 94.513 220.637 102.594C220.637 110.674 215.629 118.793 213.391 127.101C211.153 135.409 211.342 145.197 207.397 151.988C204.779 156.768 194.081 168.074 194.081 189.85C194.081 190.856 193.681 191.821 192.97 192.532C192.258 193.244 191.293 193.643 190.287 193.643C189.281 193.643 188.316 193.244 187.605 192.532C186.893 191.821 186.493 190.856 186.493 189.85V186.056C186.493 183.037 185.294 180.143 183.16 178.008C181.026 175.874 178.131 174.675 175.112 174.675ZM122 235.374C32.4299 235.374 -22.1619 136.016 26.1702 60.3315C24.8804 66.5153 24.5389 71.3712 23.3629 76.0375C21.1625 84.232 15.7754 92.6162 15.7754 102.594C15.7754 112.571 21.0487 120.804 23.3629 129.15C25.6771 137.496 25.2977 147.474 30.1157 155.706C34.9338 163.938 43.6214 168.605 49.957 174.978C58.8343 183.931 57.5065 193.643 57.5065 205.025C57.5001 206.609 57.8247 208.178 58.4596 209.63C59.0945 211.082 60.0257 212.386 61.1936 213.457C62.3614 214.529 63.7401 215.344 65.2414 215.852C66.7428 216.36 68.3336 216.548 69.912 216.406C72.7918 216.068 75.4444 214.675 77.3572 212.496C79.27 210.317 80.3074 207.507 80.2689 204.607V200.813C80.2618 200.423 80.3571 200.037 80.5455 199.694C80.7338 199.352 81.0085 199.065 81.3423 198.861C81.6761 198.658 82.0574 198.546 82.4481 198.535C82.8388 198.525 83.2254 198.617 83.5695 198.803C86.6044 200.282 87.8564 200.662 87.8564 202.824C87.8564 208.515 87.2114 212.764 91.1569 216.633C93.2909 218.765 96.1836 219.962 99.1996 219.962C102.216 219.962 105.108 218.765 107.242 216.633C111.681 212.271 109.784 208.439 111.226 207.377C112.667 206.314 115.02 208.553 122 208.553C130.124 207.713 138.091 205.747 145.673 202.71C146.022 202.594 146.394 202.568 146.756 202.632C147.118 202.697 147.458 202.852 147.745 203.082C148.032 203.312 148.256 203.611 148.398 203.95C148.539 204.289 148.594 204.659 148.556 205.025C148.556 208.043 149.755 210.938 151.89 213.072C154.024 215.207 156.919 216.406 159.937 216.406C162.956 216.406 165.851 215.207 167.985 213.072C170.119 210.938 171.319 208.043 171.319 205.025V186.056C171.319 185.05 171.718 184.085 172.43 183.373C173.141 182.662 174.106 182.262 175.112 182.262C176.118 182.262 177.083 182.662 177.795 183.373C178.506 184.085 178.906 185.05 178.906 186.056V189.85C178.906 204.493 201.668 206.011 201.668 188.408C201.668 170.805 212.177 159.044 214.036 155.706C218.778 147.436 218.551 137.344 220.751 129.15C222.951 120.955 228.338 112.571 228.338 102.594C228.338 92.6162 223.065 84.3838 220.751 76.0375C219.499 71.4471 219.12 66.4015 217.83 60.2556C266.162 135.865 211.76 235.374 122 235.374Z" fill="#F79256"/>
<path d="M122 76.0377C112.996 76.0377 104.194 78.7077 96.7077 83.71C89.2212 88.7124 83.3862 95.8224 79.9405 104.141C76.4948 112.46 75.5933 121.613 77.3499 130.444C79.1064 139.275 83.4423 147.387 89.809 153.753C96.1758 160.12 104.288 164.456 113.118 166.213C121.949 167.969 131.103 167.068 139.422 163.622C147.74 160.176 154.85 154.341 159.852 146.855C164.855 139.368 167.525 130.566 167.525 121.563C167.525 109.489 162.728 97.9092 154.191 89.3716C145.653 80.8341 134.074 76.0377 122 76.0377ZM122 159.5C114.497 159.5 107.162 157.275 100.923 153.106C94.6843 148.938 89.8218 143.013 86.9504 136.081C84.079 129.148 83.3277 121.52 84.7915 114.161C86.2554 106.802 89.8685 100.042 95.1742 94.7368C100.48 89.4311 107.24 85.818 114.599 84.3541C121.958 82.8903 129.586 83.6416 136.518 86.513C143.45 89.3844 149.375 94.2469 153.544 100.486C157.712 106.724 159.937 114.059 159.937 121.563C159.937 131.624 155.94 141.274 148.826 148.388C141.711 155.503 132.062 159.5 122 159.5Z" fill="#F79256"/>
<path d="M129.587 53.2753H137.175C138.181 53.2753 139.146 52.8756 139.857 52.1642C140.569 51.4527 140.969 50.4878 140.969 49.4816C140.969 48.4754 140.569 47.5105 139.857 46.799C139.146 46.0876 138.181 45.6879 137.175 45.6879H129.587C128.581 45.6879 127.616 46.0876 126.905 46.799C126.193 47.5105 125.794 48.4754 125.794 49.4816C125.794 50.4878 126.193 51.4527 126.905 52.1642C127.616 52.8756 128.581 53.2753 129.587 53.2753Z" fill="#F79256"/>
<path d="M154.436 71.8265C162.783 76.0375 162.517 76.0375 163.731 76.0375C164.581 76.0325 165.404 75.7425 166.069 75.2139C166.734 74.6854 167.202 73.949 167.399 73.1226C167.596 72.2961 167.51 71.4276 167.154 70.6561C166.799 69.8845 166.194 69.2547 165.438 68.8674L157.851 65.0736C156.966 64.7054 155.976 64.6853 155.077 65.0174C154.179 65.3495 153.439 66.0092 153.007 66.864C152.575 67.7189 152.482 68.7056 152.747 69.626C153.012 70.5465 153.616 71.3326 154.436 71.8265Z" fill="#F79256"/>
<path d="M186.493 125.356H194.081C195.087 125.356 196.052 124.957 196.763 124.245C197.475 123.534 197.875 122.569 197.875 121.563C197.875 120.556 197.475 119.591 196.763 118.88C196.052 118.168 195.087 117.769 194.081 117.769H186.493C185.487 117.769 184.522 118.168 183.811 118.88C183.099 119.591 182.7 120.556 182.7 121.563C182.7 122.569 183.099 123.534 183.811 124.245C184.522 124.957 185.487 125.356 186.493 125.356Z" fill="#F79256"/>
<path d="M213.05 106.388V98.8001C213.05 97.7939 212.65 96.829 211.938 96.1175C211.227 95.406 210.262 95.0063 209.256 95.0063C208.25 95.0063 207.285 95.406 206.573 96.1175C205.862 96.829 205.462 97.7939 205.462 98.8001V106.388C205.462 107.394 205.862 108.359 206.573 109.07C207.285 109.782 208.25 110.181 209.256 110.181C210.262 110.181 211.227 109.782 211.938 109.07C212.65 108.359 213.05 107.394 213.05 106.388Z" fill="#F79256"/>
<path d="M190.287 68.4502V60.8627C190.287 59.8565 189.887 58.8916 189.176 58.1801C188.465 57.4687 187.5 57.069 186.493 57.069C185.487 57.069 184.522 57.4687 183.811 58.1801C183.099 58.8916 182.7 59.8565 182.7 60.8627V68.4502C182.7 69.4563 183.099 70.4213 183.811 71.1328C184.522 71.8442 185.487 72.2439 186.493 72.2439C187.5 72.2439 188.465 71.8442 189.176 71.1328C189.887 70.4213 190.287 69.4563 190.287 68.4502Z" fill="#F79256"/>
<path d="M167.525 34.3068H159.937C158.931 34.3068 157.966 34.7065 157.255 35.4179C156.543 36.1294 156.144 37.0943 156.144 38.1005C156.144 39.1067 156.543 40.0716 157.255 40.7831C157.966 41.4945 158.931 41.8942 159.937 41.8942H167.525C168.531 41.8942 169.496 41.4945 170.207 40.7831C170.919 40.0716 171.319 39.1067 171.319 38.1005C171.319 37.0943 170.919 36.1294 170.207 35.4179C169.496 34.7065 168.531 34.3068 167.525 34.3068Z" fill="#F79256"/>
<path d="M72.6815 91.2125V83.625C72.6815 82.6189 72.2818 81.6539 71.5703 80.9425C70.8588 80.231 69.8939 79.8313 68.8877 79.8313C67.8816 79.8313 66.9166 80.231 66.2052 80.9425C65.4937 81.6539 65.094 82.6189 65.094 83.625V91.2125C65.094 92.2187 65.4937 93.1836 66.2052 93.8951C66.9166 94.6065 67.8816 95.0062 68.8877 95.0062C69.8939 95.0062 70.8588 94.6065 71.5703 93.8951C72.2818 93.1836 72.6815 92.2187 72.6815 91.2125Z" fill="#F79256"/>
<path d="M49.919 83.6253V72.2441C49.919 71.2379 49.5193 70.2729 48.8079 69.5615C48.0964 68.85 47.1314 68.4503 46.1253 68.4503C45.1191 68.4503 44.1542 68.85 43.4427 69.5615C42.7312 70.2729 42.3315 71.2379 42.3315 72.2441V83.6253C42.3315 84.6314 42.7312 85.5964 43.4427 86.3078C44.1542 87.0193 45.1191 87.419 46.1253 87.419C47.1314 87.419 48.0964 87.0193 48.8079 86.3078C49.5193 85.5964 49.919 84.6314 49.919 83.6253Z" fill="#F79256"/>
<path d="M75.0335 151.381L63.6523 147.587C63.179 147.43 62.6795 147.368 62.1821 147.404C61.6848 147.44 61.1995 147.574 60.7538 147.798C60.3082 148.022 59.911 148.331 59.5849 148.708C59.2588 149.085 59.0102 149.523 58.8532 149.996C58.6963 150.47 58.6341 150.969 58.6703 151.466C58.7064 151.964 58.8401 152.449 59.0638 152.895C59.2875 153.34 59.5968 153.738 59.974 154.064C60.3512 154.39 60.789 154.638 61.2623 154.795L72.6435 158.589C73.1168 158.746 73.6163 158.808 74.1136 158.772C74.611 158.736 75.0963 158.602 75.5419 158.378C75.9876 158.155 76.3848 157.846 76.7109 157.468C77.037 157.091 77.2856 156.653 77.4425 156.18C77.5995 155.707 77.6616 155.207 77.6255 154.71C77.5894 154.213 77.4556 153.727 77.2319 153.282C77.0082 152.836 76.699 152.439 76.3218 152.113C75.9446 151.787 75.5068 151.538 75.0335 151.381Z" fill="#F79256"/>
<path d="M99.2376 170.881H87.8564C86.8502 170.881 85.8852 171.281 85.1738 171.992C84.4623 172.704 84.0626 173.669 84.0626 174.675C84.0626 175.681 84.4623 176.646 85.1738 177.357C85.8852 178.069 86.8502 178.468 87.8564 178.468H99.2376C100.244 178.468 101.209 178.069 101.92 177.357C102.632 176.646 103.031 175.681 103.031 174.675C103.031 173.669 102.632 172.704 101.92 171.992C101.209 171.281 100.244 170.881 99.2376 170.881Z" fill="#F79256"/>
<path d="M121.583 176.761C121.089 175.94 120.303 175.337 119.382 175.072C118.462 174.806 117.475 174.899 116.62 175.331C115.765 175.764 115.106 176.503 114.774 177.402C114.442 178.3 114.462 179.291 114.83 180.175C118.624 187.763 119.003 189.849 122 189.849C122.647 189.848 123.282 189.68 123.846 189.364C124.41 189.047 124.883 188.591 125.222 188.04C125.56 187.489 125.752 186.861 125.779 186.215C125.806 185.568 125.667 184.926 125.376 184.349L121.583 176.761Z" fill="#F79256"/>
<path d="M158.723 171.071L147.342 174.865C146.386 175.187 145.598 175.875 145.149 176.779C144.701 177.682 144.63 178.727 144.952 179.683C145.274 180.639 145.963 181.427 146.866 181.876C147.77 182.324 148.814 182.395 149.77 182.073L161.151 178.279C162.107 177.957 162.896 177.269 163.344 176.365C163.792 175.461 163.863 174.417 163.541 173.461C163.219 172.505 162.531 171.716 161.627 171.268C160.724 170.82 159.679 170.749 158.723 171.071Z" fill="#F79256"/>
<path d="M190.287 155.706C191.041 155.71 191.779 155.49 192.406 155.074C193.034 154.657 193.524 154.063 193.813 153.367C194.102 152.671 194.177 151.905 194.029 151.166C193.881 150.427 193.516 149.749 192.981 149.219L185.393 141.631C184.679 140.917 183.71 140.515 182.7 140.515C181.689 140.515 180.721 140.917 180.006 141.631C179.292 142.345 178.891 143.314 178.891 144.325C178.891 145.335 179.292 146.304 180.006 147.018C188.277 155.289 188.239 155.706 190.287 155.706Z" fill="#F79256"/>
<path d="M95.4438 64.6562L103.031 68.45C103.927 68.8615 104.948 68.9081 105.878 68.5798C106.807 68.2516 107.573 67.5743 108.012 66.6915C108.451 65.8087 108.529 64.7897 108.229 63.8504C107.93 62.911 107.277 62.1251 106.408 61.6592L98.8202 57.8655C97.9243 57.4539 96.9034 57.4073 95.9737 57.7356C95.044 58.0638 94.2787 58.7411 93.8397 59.6239C93.4008 60.5067 93.3228 61.5257 93.6222 62.4651C93.9216 63.4044 94.575 64.1903 95.4438 64.6562Z" fill="#F79256"/>
<path d="M59.7448 124.066L55.951 116.479C55.4851 115.61 54.6992 114.957 53.7599 114.657C52.8205 114.358 51.8015 114.436 50.9187 114.875C50.0359 115.314 49.3586 116.079 49.0304 117.009C48.7021 117.938 48.7487 118.959 49.1603 119.855L52.954 127.443C53.4199 128.312 54.2058 128.965 55.1452 129.264C56.0845 129.564 57.1035 129.486 57.9863 129.047C58.8691 128.608 59.5464 127.843 59.8746 126.913C60.2029 125.983 60.1563 124.962 59.7448 124.066Z" fill="#F79256"/>
<path d="M122 26.7191V19.1316C122 18.1255 121.6 17.1605 120.889 16.4491C120.177 15.7376 119.212 15.3379 118.206 15.3379C117.2 15.3379 116.235 15.7376 115.524 16.4491C114.812 17.1605 114.413 18.1255 114.413 19.1316V26.7191C114.413 27.7253 114.812 28.6902 115.524 29.4017C116.235 30.1131 117.2 30.5128 118.206 30.5128C119.212 30.5128 120.177 30.1131 120.889 29.4017C121.6 28.6902 122 27.7253 122 26.7191Z" fill="#F79256"/>
<path d="M83.0383 36.0137C91.3845 40.1489 91.119 40.1868 92.333 40.1868C93.1825 40.1818 94.0057 39.8917 94.6708 39.3632C95.3358 38.8347 95.8043 38.0982 96.001 37.2718C96.1978 36.4454 96.1115 35.5769 95.756 34.8054C95.4004 34.0338 94.7962 33.4039 94.0401 33.0166L86.4527 29.2229C85.5522 28.7701 84.5087 28.6936 83.5517 29.0102C82.5948 29.3268 81.8029 30.0106 81.3501 30.9111C80.8973 31.8116 80.8208 32.8551 81.1374 33.812C81.454 34.769 82.1378 35.5609 83.0383 36.0137Z" fill="#F79256"/>
<path d="M68.8877 60.8629H76.4752C77.4814 60.8629 78.4463 60.4632 79.1578 59.7517C79.8692 59.0402 80.2689 58.0753 80.2689 57.0691C80.2689 56.063 79.8692 55.098 79.1578 54.3866C78.4463 53.6751 77.4814 53.2754 76.4752 53.2754H68.8877C67.8816 53.2754 66.9166 53.6751 66.2052 54.3866C65.4937 55.098 65.094 56.063 65.094 57.0691C65.094 58.0753 65.4937 59.0402 66.2052 59.7517C66.9166 60.4632 67.8816 60.8629 68.8877 60.8629Z" fill="#F79256"/>
</svg>
