<svg width="242" height="258" viewBox="0 0 242 258" fill="none" xmlns="http://www.w3.org/2000/svg">
<path fill-rule="evenodd" clip-rule="evenodd" d="M188.032 159.866C183.93 161.47 179.185 163.879 178.745 168.264C184.317 163.974 191.2 161.415 198.22 161.021C193.371 167.134 187.247 172.231 180.357 175.889C174.168 179.174 166.334 182.678 165.803 189.667C172.449 181.749 182.667 176.956 193.001 176.908C186.389 186.596 175.788 193.468 164.248 195.545C164.644 198.522 177.439 204.899 181.166 206.126C183.82 217.533 184.97 232.327 187.624 243.734C188.277 246.541 188.852 249.767 187.134 252.081C185.429 254.376 182.21 254.771 179.36 254.973C168.124 255.772 152.752 256.571 141.517 257.37C140.172 251.273 138.827 245.176 137.481 239.079C118.53 240.839 37.284 259.466 22.3742 249.694C-35.1825 211.972 38.2123 199.121 39.7896 153.194C40.1512 142.663 8.50453 124.255 9.00698 113.494C9.33507 106.468 10.4223 99.6042 13.897 93.5709C17.3718 87.5375 22.8778 82.89 28.8623 79.3348C20.6231 77.216 14.3824 68.9991 14.5494 60.4897C14.7163 51.9802 21.2746 44.0147 29.5905 42.221C25.6697 37.5465 19.496 35.404 14.9865 31.2951C9.73323 26.5086 7.09343 18.7873 9.00698 11.9412C10.9205 5.09511 17.6579 -0.291288 24.7568 0.0122239C30.5879 0.261532 35.7193 3.95134 39.7896 8.13626C46.1021 14.6266 50.7968 22.6801 53.335 31.3727C55.0268 37.1667 61.227 40.1142 66.4632 43.1126C71.6994 46.1111 77.137 51.334 75.6618 57.1869C73.7114 49.1779 102.7 58.7176 128.99 61.0528C132.481 61.3629 136.237 61.8143 138.818 64.1866C142.526 67.5957 148.093 68.8391 152.898 67.3314C154.427 71.1231 155.552 75.3821 154.252 79.2585C152.952 83.1348 148.349 86.0935 144.669 84.3153C145.63 89.2593 146.591 94.2033 147.551 99.1473C156.959 99.2604 166.367 99.4526 175.772 99.7238C180.757 99.8676 185.967 100.094 190.299 102.565C194.632 105.036 200.43 101.536 204.711 92.5425C201.941 107.217 205.223 113.081 210.884 114.675C210.896 114.564 211.336 114.617 211.348 114.506C213.034 100.004 222.869 87.1286 236.557 82.0349C235.347 84.8256 226.686 90.3376 220.672 97.3763C214.798 104.252 211.986 113.457 211.695 115.11C221.022 112.663 224.132 119.615 239.957 113.494C232.726 122.193 218.791 124.334 209.283 118.209C204.798 123.214 205.049 128.755 201.871 134.678C207.269 127.967 214.436 133.917 208.75 138.267C211.768 138.557 215.031 138.955 217.22 141.053C219.409 143.152 219.463 147.569 216.64 148.673C207.104 152.404 197.568 156.135 188.032 159.866Z" fill="#ADDEA2"/>
<path fill-rule="evenodd" clip-rule="evenodd" d="M172.412 126.778C172.76 126.108 173.137 125.406 173.777 125.016C174.416 124.625 175.398 124.706 175.742 125.377C176.108 126.092 175.563 126.953 174.923 127.43C174.283 127.907 173.496 128.243 173.08 128.929C175.328 130.43 177.575 131.932 179.823 133.433C181.584 134.609 183.576 136.288 183.215 138.394C183.004 139.629 181.972 140.588 180.822 141.049C179.672 141.51 178.408 141.558 177.173 141.594C168.868 141.836 160.555 141.793 152.253 141.466C151.677 141.443 151.034 141.389 150.651 140.953C150.353 140.615 150.292 140.133 150.244 139.683C149.766 135.204 149.288 130.725 148.81 126.246C148.793 126.081 148.776 125.908 148.834 125.752C149.08 125.098 150.045 125.501 150.585 125.938C154.407 129.03 160.516 128.666 163.955 125.143C164.786 124.291 166.201 124.402 167.268 124.915C168.336 125.428 169.229 126.263 170.3 126.769C170.186 126.142 170.732 125.479 171.361 125.482C171.991 125.485 172.532 126.151 172.412 126.778Z" fill="#FFFDC2"/>
<path fill-rule="evenodd" clip-rule="evenodd" d="M39.7436 78.2493C39.7436 78.2493 38.8209 67.197 41.1435 63.6442C43.4661 60.0913 52.3133 59.0217 52.3133 59.0217C52.3133 59.0217 76.5619 58.7048 89.6634 59.2056C102.765 59.7064 128.967 61.9517 128.967 61.9517C128.967 61.9517 132.372 62.6943 133.903 63.6442C135.433 64.5941 137.568 67.2895 137.568 67.2895C137.568 67.2895 142.213 67.9667 144.524 68.0587C146.835 68.1508 148.952 67.7431 148.952 67.7431C148.952 67.7431 151.898 76.3321 149.815 80.4258C147.733 84.5196 140.743 83.8848 140.743 83.8848L143.217 99.2056C143.217 99.2056 140.275 100.596 138.667 102.339C137.059 104.083 136.414 106.582 136.414 106.582L141.193 153.179C141.193 153.179 142.598 155.601 145.618 156.521C148.638 157.441 155.442 157.519 155.442 157.519C155.442 157.519 155.199 162.217 155.442 164.239C155.684 166.261 155.901 167.369 155.901 167.369L161.023 204.039C161.023 204.039 156.044 204.944 151.118 206.139C146.191 207.335 136.414 210.009 136.414 210.009C136.414 210.009 132.967 211.58 132.52 214.117C132.074 216.654 133.903 224.279 133.903 224.279L79.0125 228.463C79.0125 228.463 73.671 228.563 71.8338 227.406C69.9965 226.248 69.493 222.465 69.493 222.465L62.0686 155.692C62.0686 155.692 50.2045 155.982 46.7394 154.004C43.2744 152.025 42.8553 144.722 42.8553 144.722C42.8553 144.722 43.431 140.582 42.8553 137.71C42.6632 136.751 40.154 126.36 39.311 116.473C38.834 110.879 45.4174 106.582 45.4174 106.582L39.7436 78.2493Z" fill="#FFFDC2"/>
<path fill-rule="evenodd" clip-rule="evenodd" d="M78.3839 62.9656C77.9577 63.6116 78.3145 64.5754 78.9302 65.01C79.5459 65.4446 80.3218 65.4935 81.0575 65.5292C89.0511 65.9161 97.0448 66.303 105.038 66.6899C105.817 66.7276 106.68 66.7359 107.27 66.1879C107.86 65.6398 107.782 64.3327 107.012 64.2011C98.1234 62.681 89.1034 62.0497 80.1064 62.318C79.4747 62.3368 78.7497 62.4113 78.3839 62.9656" fill="#FFC257"/>
<path fill-rule="evenodd" clip-rule="evenodd" d="M113.75 120.232L111.652 110.618C111.652 110.618 111.554 112.6 110.444 113.407C109.333 114.213 107.137 113.896 107.137 113.896C107.137 113.896 106.789 107.182 108.335 105.138C109.881 103.094 111.403 105.024 114.34 104.37C117.274 103.717 116.666 101.565 120.075 102.523C123.484 103.482 126.003 110.606 126.003 110.606C126.003 110.606 123.33 111.481 122.193 111.257C121.055 111.032 121.333 109.685 121.333 109.685C121.333 109.685 120.527 109.35 120.732 111.712C120.832 112.86 121.721 114.585 122.193 116.843C122.368 117.684 122.193 119.573 122.193 119.573C122.193 119.573 119.159 119.875 116.538 120.423C113.916 120.971 113.75 120.232 113.75 120.232Z" fill="#FFC257"/>
<path fill-rule="evenodd" clip-rule="evenodd" d="M40.0013 95.9277C38.9884 95.4033 38.1647 94.6034 37.3574 93.8154C35.2747 91.7827 33.1661 89.7171 31.7211 87.2248C31.5835 86.9875 31.4483 86.7151 31.5276 86.4543C31.6069 86.1936 32.021 86.0455 32.1758 86.2727C34.6875 89.9598 37.8594 93.2299 41.5098 95.8957C41.1816 96.3201 40.4857 96.1784 40.0013 95.9277Z" fill="#363939"/>
<path fill-rule="evenodd" clip-rule="evenodd" d="M43.1349 48.1371C43.6864 47.5161 43.9805 46.6806 44.2344 45.8608C45.0263 43.3047 45.5659 40.6552 45.8409 37.9733C45.8904 37.4902 45.9716 36.934 46.355 36.6878C46.7863 38.9874 46.2521 41.3573 45.721 43.6318C45.2541 45.6314 44.7371 47.731 43.4128 49.202C43.2788 49.3508 43.1077 49.5024 42.9193 49.468C42.6653 49.4216 42.5635 49.0526 42.6541 48.7891C42.7448 48.5257 42.9555 48.3391 43.1349 48.1371L43.1349 48.1371Z" fill="#363939"/>
<path fill-rule="evenodd" clip-rule="evenodd" d="M185.767 67.8318C186.03 67.7564 186.297 67.9788 186.412 68.2434C186.526 68.5081 186.535 68.809 186.586 69.0956C186.785 70.2159 187.726 71.1351 188.784 71.2429C188.916 71.572 188.624 71.9013 188.393 72.1602C187.869 72.7496 187.537 73.5337 187.47 74.3458C187.426 74.8726 187.323 75.606 186.83 75.5991C186.434 75.5936 186.26 75.0794 186.117 74.6828C185.769 73.7139 184.983 72.9391 184.053 72.6488C183.858 72.5878 183.776 72.3203 183.83 72.11C183.884 71.8997 184.032 71.7353 184.174 71.5792C184.785 70.9071 185.404 70.1114 185.398 69.1728C185.394 68.6652 185.31 67.9628 185.767 67.8318Z" fill="#363939"/>
<path fill-rule="evenodd" clip-rule="evenodd" d="M205.493 156.009C204.666 156.907 204.373 158.313 204.767 159.496C204.331 159.702 204.005 159.067 203.789 158.617C203.466 157.941 202.854 157.427 202.158 157.246C203.166 156.574 203.793 155.309 203.743 154.05C204.148 153.771 204.601 154.353 204.718 154.849C204.834 155.345 205.01 155.991 205.493 156.009Z" fill="#FFC257"/>
<path fill-rule="evenodd" clip-rule="evenodd" d="M197.991 157.313C198.566 158.113 199.385 158.778 200.34 159.221C200.682 159.38 200.371 159.822 200.088 160.054C199.375 160.639 198.923 161.462 198.848 162.316C198.224 161.768 197.6 161.22 196.976 160.672C196.726 160.453 196.464 160.114 196.678 159.868C197.333 159.121 197.786 158.238 197.991 157.313Z" fill="#FFC257"/>
<path fill-rule="evenodd" clip-rule="evenodd" d="M161.262 60.2196C161.762 56.9972 162.968 53.8303 165.088 51.3762C167.208 48.9221 170.302 47.2468 173.52 47.2495C176.738 47.2521 179.987 49.0994 181.324 52.0664C182.016 53.6015 182.186 55.3297 182.139 57.0168C182.05 60.2254 181.199 63.4096 179.68 66.2259C178.31 68.7655 176.341 71.0499 173.784 72.3383C171.227 73.6266 168.04 73.7997 165.554 72.3754C163.586 71.2476 162.209 69.2234 161.553 67.0303C160.897 64.8371 160.912 62.4837 161.262 60.2196M180.929 57.7811C180.987 55.7832 180.662 53.72 179.626 52.0195C178.996 50.9857 178.113 50.1114 177.079 49.4966C173.744 47.5141 169.205 48.5791 166.436 51.313C163.666 54.0469 162.465 58.0875 162.341 62.0044C162.275 64.0938 162.497 66.2362 163.373 68.1285C164.25 70.0207 165.853 71.6392 167.85 72.1591C170.464 72.8395 173.222 71.5586 175.271 69.7792C178.69 66.8102 180.797 62.3429 180.929 57.7811Z" fill="#363939"/>
<path fill-rule="evenodd" clip-rule="evenodd" d="M194.376 58.0127C193.813 58.7615 193.225 59.7451 193.657 60.5791C193.811 60.8774 193.411 61.2248 193.093 61.1306C192.775 61.0364 192.595 60.6943 192.51 60.3682C192.425 60.0422 192.398 59.6923 192.228 59.4028C192.058 59.1133 191.672 58.9121 191.391 59.0905C190.991 59.0422 190.95 58.4285 191.182 58.0935C191.415 57.7585 191.797 57.5282 191.94 57.1447C192.053 56.841 191.992 56.5003 192.046 56.1801C192.1 55.8599 192.367 55.5181 192.676 55.5999C192.665 56.1626 192.729 56.7464 193.01 57.2315C193.29 57.7166 193.827 58.0795 194.376 58.0127Z" fill="#363939"/>
<path fill-rule="evenodd" clip-rule="evenodd" d="M146.469 56.7729C146.888 56.278 147.415 55.8543 148.033 55.6741C148.651 55.4938 149.368 55.5888 149.85 56.0203C150.375 56.4897 150.54 57.274 150.428 57.9752C150.316 58.6764 149.968 59.3136 149.602 59.9187C149.126 60.7039 148.61 61.4635 148.055 62.1934C147.882 62.4213 147.692 62.6564 147.427 62.758C147.077 62.8921 146.686 62.7615 146.341 62.6149C145.127 62.0997 143.998 61.3768 143.018 60.4859C142.12 59.6702 141.291 58.4747 141.655 57.3083C141.887 56.5651 142.595 56.0276 143.354 55.9129C144.114 55.7981 144.9 56.0698 145.504 56.5512C145.793 56.7815 146.23 57.0557 146.469 56.7729M142.634 57.2046C142.061 58.0056 142.683 59.1276 143.405 59.7927C144.307 60.6224 145.377 61.2355 146.437 61.8413C146.574 61.9192 146.726 61.9998 146.879 61.9663C147.015 61.9365 147.116 61.8231 147.206 61.715C147.924 60.8508 148.567 59.9225 149.126 58.9442C149.556 58.1917 149.871 57.0861 149.179 56.5738C148.631 56.1686 147.833 56.4951 147.368 56.9963C146.904 57.4975 146.611 58.152 146.104 58.6082C145.707 57.9738 145.286 57.3148 144.643 56.9425C144.001 56.5703 143.069 56.5969 142.634 57.2046H142.634Z" fill="#363939"/>
<path fill-rule="evenodd" clip-rule="evenodd" d="M138.324 35.2055C139.649 34.1845 141.122 33.3515 142.684 32.7401C143.642 32.3653 144.735 32.0768 145.681 32.4782C147.198 33.1214 147.493 35.2739 146.695 36.7017C145.897 38.1295 144.384 38.995 142.943 39.7905C140.118 41.3503 137.293 42.9102 134.467 44.47C135.024 43.3724 134.396 42.0839 133.882 40.9663C132.724 38.4492 132.118 35.6857 132.118 32.9207C132.117 32.0472 132.184 31.1475 132.571 30.3625C132.959 29.5776 133.732 28.9266 134.616 28.9061C136.03 28.8732 136.969 30.3284 137.446 31.6442C137.864 32.7965 138.159 33.9924 138.324 35.2055ZM144.312 33.2043C142.027 33.6632 139.898 34.8514 138.321 36.5484C138.165 36.7155 137.863 36.6419 137.721 36.4634C137.579 36.285 137.552 36.0456 137.525 35.8202C137.347 34.3274 136.952 32.86 136.356 31.4771C136.024 30.7062 135.468 29.8548 134.62 29.8412C133.992 29.8312 133.445 30.3285 133.213 30.9058C132.982 31.4831 133.001 32.1257 133.046 32.7452C133.293 36.2004 134.213 39.6072 135.74 42.7251C138.239 41.3406 140.739 39.9562 143.238 38.5718C144.018 38.1398 144.812 37.6971 145.418 37.0479C146.024 36.3986 146.423 35.4964 146.247 34.6302C146.071 33.7639 145.188 33.0283 144.312 33.2043Z" fill="#363939"/>
<path fill-rule="evenodd" clip-rule="evenodd" d="M120.804 207.024C128.126 206.2 135.496 205.785 142.866 205.782C144.218 205.781 145.394 204.743 145.943 203.523C146.493 202.303 146.537 200.926 146.537 199.591C146.54 194.628 146.067 189.679 145.596 184.739C145.404 182.736 145.213 180.732 145.021 178.728C144.905 177.513 144.782 176.27 144.264 175.161C143.365 173.238 141.374 171.987 139.299 171.448C137.225 170.909 135.044 170.983 132.901 171.06C125.784 171.318 118.667 171.575 111.55 171.833C115.653 170.346 120.121 170.277 124.49 170.224C127.84 170.183 131.19 170.143 134.54 170.103C137.963 170.061 141.876 170.231 144.06 172.836C145.471 174.519 145.782 176.824 146.018 178.997C146.761 185.838 147.305 192.701 147.649 199.574C147.764 201.851 147.671 204.528 145.794 205.855C144.744 206.597 143.382 206.708 142.094 206.794C134.251 207.319 126.408 207.844 118.565 208.369C116.724 208.492 114.783 208.597 113.127 207.793C112.551 207.514 111.96 206.882 112.269 206.327C114.819 207.699 117.919 207.349 120.804 207.024Z" fill="#363939"/>
<path fill-rule="evenodd" clip-rule="evenodd" d="M90.529 97.4875C90.6749 97.7002 90.7081 97.9655 90.7374 98.2198C90.8056 98.812 90.8738 99.4043 90.9419 99.9966C91.0228 100.699 91.0395 101.549 90.4424 101.95C90.1241 102.164 89.7135 102.181 89.3273 102.192C81.2014 102.406 73.0755 102.62 64.9497 102.834C64.4269 102.848 63.8218 102.826 63.5014 102.423C63.3003 102.17 63.2693 101.829 63.2505 101.51C63.1913 100.505 63.1748 99.4988 63.2011 98.4932C63.2051 98.3401 63.2142 98.1754 63.3116 98.0553C63.4284 97.9113 63.6339 97.876 63.8205 97.8514C72.2166 96.7418 80.7258 96.4488 89.1812 96.9782C89.6804 97.0094 90.2508 97.0819 90.529 97.4875M90.1951 101.34C89.3699 100.905 90.2013 99.6305 89.9013 98.7636C89.6435 98.0188 88.6638 97.8425 87.8593 97.7979C80.1974 97.3723 72.4954 97.6377 64.8834 98.5898C64.603 98.6249 64.2921 98.6776 64.1218 98.8977C63.9536 99.1152 63.984 99.4171 64.0223 99.687C64.0816 100.105 64.1408 100.522 64.2001 100.94C64.2468 101.269 64.3181 101.639 64.6015 101.823C64.8071 101.957 65.0717 101.955 65.3187 101.949C73.6108 101.746 81.903 101.543 90.1951 101.34Z" fill="#363939"/>
<path fill-rule="evenodd" clip-rule="evenodd" d="M105.441 111.518C105.479 110.623 105.518 109.728 105.557 108.833C105.632 107.088 105.724 105.278 106.541 103.731C107.358 102.184 109.121 100.982 110.832 101.384C111.903 101.635 112.89 102.471 113.967 102.247C114.905 102.051 115.48 101.131 116.272 100.595C118.161 99.3195 120.793 100.505 122.354 102.16C124.037 103.944 125.131 106.267 125.431 108.693C125.456 108.899 125.469 109.13 125.335 109.29C125.225 109.422 125.044 109.468 124.875 109.506C124.225 109.654 123.575 109.802 122.925 109.95C122.372 110.076 121.797 110.202 121.241 110.088C120.685 109.973 120.151 109.547 120.106 108.985C119.94 112.127 122.309 115.128 121.649 118.205C121.404 118.072 121.158 117.939 120.913 117.806C121.492 114.72 118.723 111.733 119.301 108.647C119.378 108.239 119.543 107.804 119.91 107.606C120.278 107.408 120.859 107.633 120.845 108.048C120.822 108.713 121.545 109.21 122.215 109.204C122.885 109.198 123.494 108.842 124.067 108.496C124.271 108.373 124.215 108.068 124.13 107.846C123.496 106.196 122.663 104.621 121.655 103.166C120.973 102.183 120.151 101.211 119.018 100.811C117.885 100.412 116.389 100.819 115.972 101.939C115.484 103.25 113.639 103.338 112.284 102.96C110.929 102.582 109.409 101.992 108.2 102.708C107.19 103.306 106.851 104.581 106.662 105.734C106.337 107.713 106.187 109.72 106.214 111.724C106.269 112.03 106.662 112.129 106.975 112.121C108.623 112.078 110.153 110.788 110.461 109.18C110.905 109.687 111.064 110.374 111.208 111.031C111.705 113.305 112.202 115.58 112.7 117.854C112.853 118.554 112.674 119.63 111.964 119.503C111.643 117.022 111.166 114.562 110.538 112.139C109.351 112.407 108.164 112.675 106.978 112.943C106.613 113.025 106.206 113.101 105.887 112.908C105.447 112.641 105.419 112.029 105.441 111.518Z" fill="#363939"/>
<path fill-rule="evenodd" clip-rule="evenodd" d="M140.105 173.183C140.704 173.877 139.773 175.159 140.322 175.899C140.607 176.283 140.404 176.893 140.026 177.171C139.649 177.449 139.165 177.487 138.708 177.515C130.84 178.004 122.972 178.493 115.105 178.982C114.57 179.015 113.931 178.995 113.639 178.515C113.511 178.306 113.48 178.047 113.452 177.799C113.381 177.153 113.309 176.506 113.237 175.86C113.214 175.657 113.194 175.44 113.284 175.259C113.431 174.961 113.796 174.897 114.11 174.867C122.379 174.087 130.657 173.427 138.942 172.888C139.354 172.861 139.825 172.859 140.105 173.183ZM139.202 174.275C139.176 174.115 139.142 173.941 139.023 173.841C138.904 173.742 138.738 173.749 138.588 173.761C131.251 174.332 123.915 174.904 116.579 175.476C115.986 175.522 115.371 175.575 114.853 175.887C114.335 176.2 113.945 176.85 114.1 177.464C114.148 177.654 114.251 177.835 114.408 177.937C114.601 178.062 114.843 178.053 115.068 178.039C122.813 177.59 130.559 177.141 138.304 176.692C139.225 176.639 139.357 175.247 139.202 174.275Z" fill="#363939"/>
<path fill-rule="evenodd" clip-rule="evenodd" d="M146.485 166.207C147.826 169.895 148.254 173.865 148.67 177.786C149.638 186.896 150.605 196.005 151.573 205.115C150.853 205.177 150.521 204.211 150.432 203.462C148.966 191.205 148.494 178.789 146.014 166.711C146.171 166.543 146.328 166.375 146.485 166.207Z" fill="#363939"/>
<path fill-rule="evenodd" clip-rule="evenodd" d="M101.157 102.811C100.938 102.725 100.943 102.408 101.111 102.251C101.279 102.095 101.533 102.057 101.769 102.029C103.538 101.821 105.321 101.719 107.103 101.726C107.008 102.431 106.026 102.637 105.261 102.67C103.974 102.725 102.688 102.78 101.402 102.835C101.319 102.838 101.233 102.841 101.157 102.811L101.157 102.811Z" fill="#363939"/>
<path fill-rule="evenodd" clip-rule="evenodd" d="M111.056 195.512C110.909 192.788 110.763 190.065 110.616 187.341C110.22 180.011 109.813 172.606 107.773 165.554C107.512 164.654 107.215 163.74 106.638 163.001C105.193 161.153 102.519 160.94 100.174 160.94C91.1294 160.941 82.0855 161.801 73.2034 163.506C72.3008 163.679 71.3626 163.878 70.6424 164.449C69.4981 165.356 69.1964 166.951 69.0901 168.408C68.8961 171.068 69.0882 173.755 69.6585 176.36C69.3321 176.306 69.0057 176.251 68.6793 176.197C67.4825 173.703 66.9372 170.901 67.112 168.14C67.1879 166.942 67.4083 165.721 68.0258 164.691C69.5616 162.129 72.9422 161.515 75.9117 161.197C83.4459 160.39 91.0083 159.846 98.5805 159.567C101.628 159.455 105.072 159.54 107.164 161.761C108.216 162.877 108.749 164.378 109.168 165.854C110.621 170.983 111.022 176.342 111.415 181.658C111.8 186.853 112.184 192.047 112.569 197.241C112.659 198.462 112.749 199.702 112.502 200.901C111.697 204.808 107.537 207.184 103.577 207.657C99.6173 208.129 95.6305 207.224 91.6431 207.158C86.2807 207.068 80.8866 208.494 75.598 207.603C74.0748 207.347 72.4551 206.807 71.6177 205.509C71.0369 204.608 70.9321 203.492 70.8432 202.424C70.216 194.89 69.5887 187.356 68.9615 179.822C68.9195 179.318 69.2946 178.566 69.682 178.891C70.3736 186.148 71.0651 193.405 71.7567 200.662C71.8503 201.644 71.952 202.655 72.4085 203.53C73.0713 204.8 74.4084 205.607 75.7948 205.967C77.1812 206.326 78.6344 206.297 80.0665 206.278C86.1255 206.199 92.1874 206.35 98.235 206.731C100.257 206.858 102.302 207.01 104.299 206.67C106.297 206.331 108.28 205.441 109.52 203.837C111.286 201.554 111.212 198.394 111.056 195.512Z" fill="#363939"/>
<path fill-rule="evenodd" clip-rule="evenodd" d="M100.988 99.8629C101.549 99.453 101.078 98.6138 101.188 97.9558C101.345 97.025 102.582 96.7053 103.582 96.5971C110.005 95.9024 116.473 95.5738 122.939 95.6139C123.477 95.6172 124.113 95.6733 124.383 96.1084C124.709 96.6308 124.406 97.5425 125.021 97.7255C125.31 97.8114 125.681 97.6525 125.9 97.8488C126.262 98.1734 125.588 98.612 125.088 98.654C117.522 99.2896 109.939 99.7547 102.349 100.049C101.885 100.067 101.392 100.078 100.988 99.8629M123.59 96.9299C123.413 96.514 122.821 96.453 122.343 96.4598C116.248 96.5467 110.155 96.8287 104.08 97.3053C103.368 97.3612 102.527 97.5002 102.23 98.1087C102.087 98.4548 102.359 98.8528 102.718 99.0098C103.077 99.1669 103.492 99.1466 103.888 99.1232C109.956 98.7628 116.025 98.4025 122.094 98.0421C122.467 98.0199 122.857 97.9934 123.179 97.8148C123.501 97.6363 123.728 97.2554 123.59 96.9299Z" fill="#363939"/>
<path fill-rule="evenodd" clip-rule="evenodd" d="M131.613 185.805C132.49 186.539 132.115 188.147 132.878 189.011C133.233 189.412 133.764 189.569 134.264 189.723C134.585 189.822 134.983 190.071 134.881 190.407C134.776 190.75 134.3 190.695 133.981 190.563C132.939 190.133 131.764 189.418 131.706 188.241C131.664 187.381 131.421 186.534 131.006 185.793C131.123 185.584 131.433 185.654 131.613 185.805V185.805Z" fill="#363939"/>
<path fill-rule="evenodd" clip-rule="evenodd" d="M135.955 198.102C135.648 194.276 135.341 190.449 135.034 186.623C134.989 186.061 134.938 185.478 134.65 184.987C134.362 184.496 133.766 184.127 133.204 184.273C130.657 184.934 128.013 185.241 125.377 185.18C123.073 185.128 120.715 184.802 118.497 185.413C118.539 186.475 118.58 187.538 118.621 188.601C118.633 188.911 118.651 189.24 118.834 189.496C119.345 190.212 120.614 189.666 120.903 188.842C121.191 188.017 120.931 187.115 120.98 186.246C120.989 186.092 121.021 185.917 121.156 185.835C121.444 185.662 121.72 186.075 121.794 186.395C122.005 187.312 122.216 188.272 121.967 189.18C121.717 190.088 120.847 190.911 119.884 190.791C118.887 190.666 118.479 191.986 118.455 192.959C118.407 194.902 118.358 196.844 118.31 198.786C118.295 199.398 118.522 200.242 119.15 200.173C120.77 199.996 122.391 199.818 124.011 199.64C124.403 199.597 124.824 199.559 125.169 199.745C125.513 199.93 125.695 200.435 125.413 200.701C123.51 200.863 121.606 201.024 119.703 201.186C119.147 201.233 118.57 201.277 118.046 201.093C117.521 200.908 117.065 200.425 117.112 199.887C117.58 194.603 117.685 189.289 117.426 183.992C117.371 182.865 118.789 182.293 119.934 182.085C123.57 181.425 127.279 181.139 130.977 181.233C132.217 181.264 133.568 181.383 134.467 182.21C135.383 183.052 135.562 184.379 135.689 185.595C136.162 190.153 136.635 194.711 137.108 199.269C137.133 199.515 137.139 199.807 136.936 199.957C136.815 200.046 136.652 200.056 136.5 200.062C134.922 200.126 133.344 200.189 131.765 200.253C130.929 200.286 130.029 200.304 129.333 199.854C128.855 199.546 128.54 199.056 128.262 198.569C127.597 197.402 127.065 196.164 126.68 194.884C126.077 196.347 125.694 197.895 125.55 199.465C124.787 199.544 124.645 198.437 124.822 197.714C125.188 196.223 125.554 194.732 125.92 193.242C125.976 193.015 126.065 192.751 126.295 192.681C126.633 192.578 126.893 192.97 127.016 193.292C127.532 194.633 128.047 195.974 128.563 197.315C129.006 198.469 130.286 199.163 131.549 199.305C132.813 199.447 134.079 199.139 135.312 198.833C135.555 198.773 135.832 198.686 135.927 198.46C135.974 198.348 135.965 198.223 135.955 198.102ZM118.785 184.092C119.928 184.107 121.071 184.121 122.214 184.135C123.072 184.146 123.931 184.157 124.79 184.141C127.89 184.085 130.982 183.682 133.987 182.944C133.317 182.278 132.242 182.241 131.281 182.257C127.844 182.317 124.409 182.51 120.988 182.837C120.072 182.925 118.934 183.214 118.785 184.092L118.785 184.092Z" fill="#363939"/>
<path fill-rule="evenodd" clip-rule="evenodd" d="M113.78 180.907C113.713 180.576 114.186 180.396 114.552 180.344C118.778 179.75 123.062 179.487 127.338 179.56C127.4 179.561 127.463 179.562 127.519 179.584C127.72 179.66 127.711 179.946 127.551 180.081C127.392 180.215 127.158 180.238 126.941 180.253C122.868 180.53 118.737 180.387 114.747 181.178C114.377 181.251 113.848 181.245 113.78 180.907L113.78 180.907Z" fill="#363939"/>
<path fill-rule="evenodd" clip-rule="evenodd" d="M205.797 172.348C206.025 171.814 206.277 171.25 206.762 170.925C207.17 170.652 207.683 170.591 208.173 170.538C209.629 170.381 211.084 170.225 212.54 170.068C213.26 169.99 214.189 169.689 214.162 168.972C214.073 166.654 214.254 163.984 216.111 162.574C217.809 161.283 220.352 161.637 222.094 162.868C223.837 164.099 224.94 166.017 225.893 167.917C226.314 168.758 227.469 168.911 228.402 168.749C229.335 168.587 230.281 168.223 231.202 168.445C232.619 168.786 233.335 170.322 233.823 171.685C236.267 178.529 237.926 185.664 240.967 192.269C242.104 194.739 241.744 197.822 240.068 199.969C239.861 198.264 240.149 196.502 240.889 194.95C241.237 194.218 240.077 193.737 239.262 193.74C230.949 193.761 222.602 193.784 214.381 195.007C214.13 195.045 213.864 195.09 213.677 195.26C213.495 195.426 213.424 195.676 213.361 195.913C213.106 196.873 212.851 197.833 212.596 198.794C212.437 199.395 212.537 200.329 213.161 200.267C221.296 199.449 229.475 199.06 237.652 199.1C238.512 199.104 239.686 199.442 239.575 200.288C230.864 200.39 222.121 200.494 213.504 201.766C212.132 201.969 211.185 200.283 211.341 198.916C211.496 197.549 212.287 196.323 212.51 194.965C212.702 193.794 212.461 192.6 212.203 191.442C211.792 189.602 211.333 187.772 210.826 185.955C210.331 184.181 209.791 182.421 209.252 180.661C208.435 177.998 207.619 175.336 206.802 172.674C205.68 174.304 205.179 176.346 205.422 178.306C205.592 179.671 206.102 180.967 206.484 182.288C207.03 184.178 207.317 186.13 207.602 188.075C208.164 191.906 208.726 195.737 209.288 199.569C209.371 200.133 209.208 200.963 208.64 200.88C206.113 193.128 206.807 184.558 203.825 176.967C204.483 175.427 205.14 173.888 205.797 172.348ZM224.612 173.755C225.436 173.301 225.862 172.24 225.58 171.349C225.297 170.457 224.337 169.829 223.399 169.923C221.101 170.154 218.802 170.385 216.504 170.616C216.292 170.637 216.054 170.672 215.927 170.842C215.826 170.976 215.824 171.157 215.834 171.323C215.895 172.365 216.26 173.387 216.872 174.236C217.348 174.895 218.006 175.684 217.635 176.406C217.17 177.309 215.644 176.803 215.266 175.862C214.887 174.921 215.156 173.859 215.086 172.848C215.016 171.837 214.283 170.674 213.276 170.842C211.624 171.118 209.972 171.394 208.32 171.669C208.083 171.709 207.773 171.854 207.843 172.083C209.854 178.687 211.866 185.292 213.878 191.896C214.128 192.719 214.693 193.738 215.538 193.542C223.286 191.748 231.455 193.445 239.322 192.265C236.965 184.936 234.527 177.632 232.008 170.355C231.933 170.14 231.849 169.912 231.664 169.778C231.46 169.63 231.184 169.634 230.931 169.645C229.751 169.695 228.571 169.744 227.391 169.794C226.924 169.813 226.288 170.034 226.39 170.486C226.711 171.904 227.031 173.322 227.352 174.74C227.407 174.984 227.461 175.246 227.37 175.479C227.12 176.112 226.179 175.952 225.551 175.678C225.14 175.498 224.706 175.301 224.452 174.933C224.197 174.565 224.219 173.972 224.612 173.755ZM221.571 163.467C220.666 162.808 219.476 162.333 218.431 162.741C218.067 162.883 217.751 163.122 217.44 163.358C216.887 163.778 216.317 164.218 215.99 164.828C215.687 165.396 215.624 166.057 215.567 166.697C215.518 167.257 215.468 167.817 215.418 168.377C215.388 168.725 215.375 169.124 215.629 169.365C215.873 169.596 216.255 169.579 216.59 169.548C218.994 169.321 221.398 169.094 223.802 168.867C224.145 168.835 224.563 168.743 224.653 168.413C224.689 168.283 224.66 168.145 224.628 168.014C224.185 166.207 223.082 164.567 221.571 163.467M220.67 169.39C220.428 169.458 220.697 169.908 220.873 169.73C221.098 169.638 220.849 169.219 220.66 169.37L220.67 169.39Z" fill="#363939"/>
<path fill-rule="evenodd" clip-rule="evenodd" d="M144.914 115.848C144.872 115.66 144.955 115.464 145.052 115.319C145.528 114.606 146.324 114.553 147.032 114.551C151.324 114.538 155.616 114.524 159.909 114.51C160.211 114.51 160.535 114.518 160.781 114.755C161.028 114.992 161.124 115.551 160.887 115.806C160.761 115.941 160.587 115.95 160.426 115.952C155.44 116.027 150.454 116.103 145.467 116.178C145.25 116.181 144.976 116.131 144.914 115.848Z" fill="#363939"/>
<path fill-rule="evenodd" clip-rule="evenodd" d="M146.751 120.02C146.493 119.898 146.529 119.555 146.746 119.387C146.963 119.219 147.279 119.179 147.574 119.15C149.345 118.974 151.126 118.877 152.906 118.78C153.887 118.727 154.868 118.674 155.848 118.62C157.123 118.551 158.398 118.482 159.674 118.412C160.079 118.39 160.531 118.381 160.836 118.602C161.141 118.823 161.066 119.354 160.661 119.375C156.161 119.605 151.661 119.835 147.161 120.065C147.021 120.072 146.872 120.077 146.751 120.02L146.751 120.02Z" fill="#363939"/>
<path fill-rule="evenodd" clip-rule="evenodd" d="M170.92 126.149C171.262 125.501 171.633 124.821 172.262 124.444C172.891 124.066 173.857 124.144 174.195 124.794C174.556 125.485 174.02 126.319 173.39 126.78C172.76 127.242 171.985 127.567 171.576 128.231C173.788 129.684 175.999 131.137 178.211 132.59C179.943 133.728 181.903 135.353 181.548 137.391C181.341 138.585 180.325 139.514 179.194 139.96C178.063 140.405 176.819 140.452 175.603 140.487C167.432 140.722 159.253 140.68 151.085 140.363C150.518 140.341 149.886 140.288 149.509 139.866C149.216 139.54 149.156 139.073 149.109 138.638C148.639 134.303 148.169 129.969 147.698 125.634C147.681 125.474 147.664 125.307 147.722 125.157C147.964 124.524 148.913 124.914 149.444 125.336C153.204 128.328 159.216 127.977 162.599 124.567C163.417 123.743 164.808 123.849 165.859 124.346C166.909 124.843 167.788 125.651 168.841 126.141C168.729 125.533 169.266 124.893 169.886 124.895C170.505 124.897 171.037 125.543 170.92 126.149ZM171.382 128.942C171.114 127.958 169.656 127.752 168.851 128.381C168.047 129.011 167.786 130.107 167.717 131.124C167.69 131.504 167.065 131.541 166.85 131.227C166.636 130.912 166.723 130.489 166.842 130.127C167.156 129.174 167.64 128.276 168.264 127.489C168.573 127.099 168.12 126.572 167.712 126.286C166.273 125.277 164.236 124.282 162.916 125.441C159.3 128.617 153.532 129.04 149.489 126.426C149.537 129.68 149.777 132.931 150.208 136.156C150.252 136.481 150.307 136.828 150.533 137.067C150.831 137.383 151.318 137.405 151.753 137.406C158.778 137.415 165.802 137.424 172.826 137.433C173.51 137.434 174.439 137.19 174.386 136.511C174.261 134.93 174.964 133.307 176.202 132.312C175.228 131.606 174.254 130.9 173.28 130.195C172.983 129.98 172.671 129.758 172.309 129.697C171.216 129.51 170.486 130.759 170.1 131.795C169.507 130.739 170.198 129.203 171.382 128.942ZM153.024 139.738C160.339 139.795 167.654 139.783 174.968 139.701C177.045 139.678 179.469 139.468 180.595 137.728C170.495 138.17 160.38 138.28 150.272 138.056C150.146 139.266 151.804 139.728 153.024 139.738M178.057 133.237C177.839 133.1 177.614 132.959 177.36 132.916C176.594 132.785 175.99 133.547 175.658 134.247C175.465 134.652 175.298 135.069 175.157 135.495C175.05 135.819 174.957 136.163 175.025 136.498C175.092 136.833 175.367 137.149 175.71 137.153C176.953 137.167 178.197 137.154 179.441 137.114C179.734 137.104 180.053 137.083 180.272 136.889C180.531 136.661 180.562 136.267 180.498 135.929C180.263 134.705 179.113 133.904 178.057 133.237ZM173.663 125.32C173.65 124.943 173.144 124.751 172.794 124.897C172.444 125.042 172.229 125.389 172.037 125.715C171.805 126.109 171.573 126.502 171.341 126.896C171.22 127.103 171.153 127.454 171.388 127.506C172.005 126.994 172.623 126.482 173.241 125.971C173.447 125.799 173.673 125.588 173.663 125.32ZM169.661 125.936C169.556 126.445 169.818 127.008 170.276 127.257C170.435 126.732 170.342 126.138 170.03 125.687C170.011 125.559 169.837 125.485 169.732 125.56C169.65 125.663 169.621 125.805 169.656 125.931L169.661 125.936Z" fill="#363939"/>
<path fill-rule="evenodd" clip-rule="evenodd" d="M144.427 110.485C144.239 109.594 144.052 108.702 143.865 107.811C143.792 107.465 143.725 107.08 143.91 106.776C144.162 106.363 144.738 106.307 145.229 106.299C157.267 106.093 169.31 106.138 181.346 106.434C182.167 106.454 182.841 107.152 183.091 107.922C183.341 108.692 183.259 109.523 183.174 110.326C183.128 110.761 183.055 111.245 182.703 111.511C182.415 111.729 182.021 111.734 181.658 111.73C169.568 111.6 157.479 111.471 145.389 111.341C145.19 111.339 144.98 111.333 144.811 111.229C144.565 111.076 144.485 110.766 144.427 110.485ZM146.089 107.081C145.199 107.075 144.569 108.115 144.791 108.962C145.013 109.81 145.846 110.393 146.711 110.599C147.575 110.806 148.481 110.706 149.367 110.625C160.285 109.621 171.325 111.539 182.235 110.457C182.292 109.804 182.346 109.129 182.132 108.508C181.919 107.887 181.362 107.331 180.695 107.326C169.16 107.244 157.625 107.163 146.089 107.081Z" fill="#363939"/>
<path fill-rule="evenodd" clip-rule="evenodd" d="M71.5886 136.898C71.1813 137.67 70.6197 138.455 69.7777 138.685C68.174 139.122 66.8479 137.341 66.4102 135.737C65.727 133.232 65.8998 130.501 66.8935 128.103C67.4251 126.82 66.982 125.303 66.1485 124.192C64.5766 122.097 61.6443 121.179 59.1246 121.892C56.605 122.605 54.6167 124.847 54.0897 127.413C54.0071 127.815 54.0654 128.379 54.4714 128.436C56.4964 128.72 57.4261 131.098 57.7344 133.12C57.9697 134.664 58.0721 136.282 57.5485 137.754C57.025 139.226 55.7436 140.518 54.1868 140.637C52.7897 139.695 51.7379 138.253 51.2688 136.634C50.3962 133.624 51.5297 130.433 52.7 127.526C53.4142 125.752 54.181 123.935 55.5377 122.588C58.4379 119.707 63.8534 120.049 66.3687 123.272C67.3362 124.511 67.8914 126.051 68.9636 127.201C69.7718 128.068 70.8404 128.675 71.5777 129.603C73.1791 131.619 72.7897 134.621 71.5886 136.898ZM52.1561 131.333C51.4217 133.358 51.6263 135.703 52.7001 137.57C52.8765 137.877 53.0864 138.182 53.3947 138.355C53.7029 138.528 54.1326 138.531 54.3764 138.275C55.1066 137.506 55.198 136.345 55.1955 135.285C55.1927 134.031 55.1154 132.777 54.9643 131.533C54.9024 131.023 54.7969 130.46 54.3851 130.154C53.9733 129.848 53.2002 130.104 53.2649 130.613C53.4531 132.094 53.6412 133.576 53.8294 135.057C53.8722 135.394 53.9099 135.759 53.7411 136.054C53.5723 136.348 53.1062 136.486 52.8925 136.222C52.3387 135.091 52.1717 133.775 52.4255 132.542C52.5168 132.099 52.5798 131.492 52.1561 131.333M69.1075 137.208C69.2946 137.062 69.382 136.825 69.4518 136.598C70.0008 134.814 70.0067 132.867 69.4685 131.08C69.2639 130.401 68.7093 129.606 68.0376 129.834C67.6495 129.965 67.4527 130.391 67.3291 130.782C66.7675 132.558 66.8422 134.528 67.5367 136.257C67.6697 136.588 67.8343 136.923 68.1162 137.142C68.3981 137.361 68.8262 137.428 69.1075 137.208ZM55.9275 130.798C56.4168 133.279 56.3127 135.875 55.6265 138.309C55.5633 138.533 55.8172 138.707 56.0299 138.802C57.0594 136.304 57.1897 133.445 56.3919 130.864C56.2597 130.769 56.0808 130.744 55.9275 130.798ZM70.2102 130.128C70.0581 130.371 69.906 130.614 69.7539 130.857C70.2552 130.772 70.4846 131.456 70.5115 131.964C70.5735 133.138 70.6355 134.312 70.6975 135.487C71.1644 135.311 71.2489 134.698 71.2576 134.199C71.2772 133.076 71.2968 131.952 71.3164 130.829C71.1483 130.809 70.9801 130.79 70.812 130.77C70.7947 130.452 70.5265 130.166 70.2102 130.128Z" fill="#363939"/>
<path fill-rule="evenodd" clip-rule="evenodd" d="M124.54 132.349C121.278 132.175 118.002 132.333 114.766 132.82C114.479 132.863 114.159 132.9 113.929 132.704C113.698 132.509 113.724 131.991 114.011 131.956C117.247 131.559 120.498 131.303 123.753 131.19C124.106 131.178 124.503 131.185 124.755 131.462C125.007 131.74 124.894 132.367 124.54 132.349Z" fill="#363939"/>
<path fill-rule="evenodd" clip-rule="evenodd" d="M47.7997 119.262C48.7305 119.16 49.6614 119.057 50.5922 118.955C51.0612 118.904 51.5301 118.852 51.999 118.801C54.9817 118.473 57.9644 118.146 60.9498 117.855C61.067 117.843 61.1895 117.833 61.2982 117.886C61.6212 118.042 61.5715 118.652 61.29 118.895C61.0085 119.138 60.6277 119.124 60.278 119.11C55.8814 118.939 51.4998 120.483 47.1235 119.961C46.8391 119.927 46.4671 119.756 46.5173 119.427C46.9431 119.356 47.3715 119.309 47.7997 119.262Z" fill="#363939"/>
<path fill-rule="evenodd" clip-rule="evenodd" d="M149.169 216.859C149.02 215.575 148.912 214.177 148.033 213.215C147.358 212.476 147.707 211.104 148.656 210.764C149.606 210.425 150.772 211.254 150.739 212.246C150.728 212.587 150.602 212.911 150.504 213.238C149.833 215.469 150.456 217.87 151.276 220.052C152.107 222.262 153.378 224.614 155.661 225.341C158.301 226.181 161.223 224.321 162.393 221.85C163.564 219.379 163.386 216.51 162.977 213.814C162.936 213.544 162.862 213.232 162.609 213.117C161.582 212.652 161.426 211.016 162.348 210.371C163.269 209.727 164.793 210.406 164.906 211.511C164.944 211.886 164.846 212.259 164.774 212.629C164.269 215.196 164.936 217.887 164.383 220.445C164.037 222.046 163.207 223.543 162.026 224.698C160.773 225.923 159.081 226.767 157.313 226.797C154.933 226.836 152.707 225.387 151.362 223.459C150.016 221.53 149.439 219.181 149.169 216.859Z" fill="#363939"/>
<path fill-rule="evenodd" clip-rule="evenodd" d="M80.3653 110.619C80.4304 111.516 80.4926 112.439 80.2175 113.294C79.9424 114.148 79.2435 114.926 78.3616 115.003C73.8154 115.4 69.2685 115.797 64.7135 116.071C58.5025 116.444 52.2805 116.588 46.0602 116.732C45.8383 116.737 45.6008 116.738 45.4156 116.614C45.1377 116.427 45.0856 116.042 45.0599 115.705C44.9927 114.822 44.9254 113.939 44.8582 113.056C44.8377 112.787 44.8222 112.497 44.9647 112.27C45.1734 111.937 45.6204 111.88 46.0082 111.857C57.4487 111.168 68.9054 110.755 80.3653 110.619ZM78.4512 113.717C79.1821 113.667 79.3301 112.499 78.7941 111.992C78.2582 111.485 77.4443 111.473 76.712 111.492C67.2966 111.73 57.8777 111.967 48.481 112.616C47.8043 112.663 47.1003 112.72 46.5153 113.069C45.9304 113.418 45.508 114.151 45.7315 114.801C46.049 115.725 47.2764 115.827 48.2378 115.762C58.3089 115.08 68.3801 114.398 78.4512 113.717Z" fill="#363939"/>
<path fill-rule="evenodd" clip-rule="evenodd" d="M68.694 132.603C68.705 132.871 68.716 133.139 68.727 133.407C68.7498 133.964 68.7725 134.526 68.685 135.078C67.9253 135.004 67.6898 134.104 67.6455 133.402C67.6244 133.068 67.6173 132.696 67.8603 132.447C68.1033 132.198 68.6803 132.269 68.694 132.603L68.694 132.603Z" fill="#363939"/>
<path fill-rule="evenodd" clip-rule="evenodd" d="M113.774 134.651C114.383 134.033 115.31 134.052 116.139 134.078C118.763 134.16 121.395 133.937 123.976 133.415C124.28 133.354 124.444 133.873 124.254 134.142C124.065 134.41 123.722 134.466 123.414 134.501C120.505 134.825 117.584 135.018 114.66 135.077C114.311 135.084 113.87 135.018 113.774 134.651Z" fill="#363939"/>
<path fill-rule="evenodd" clip-rule="evenodd" d="M212.635 144.646C212.35 145.649 211.399 146.269 210.493 146.728C205.958 149.027 200.626 149.59 195.737 148.286C194.095 147.848 192.224 146.835 192.154 145.079C192.102 143.788 193.096 142.706 194.149 142.014C195.764 140.953 197.647 140.417 199.524 140.039C203.146 139.31 207.071 139.159 210.349 140.913C211.723 141.648 213.073 143.11 212.635 144.646M193.274 144.883C193.276 146.302 194.803 147.132 196.126 147.492C200.723 148.741 205.751 148.202 210.003 146.004C210.685 145.651 211.405 145.186 211.622 144.428C211.913 143.41 211.152 142.385 210.308 141.784C207.767 139.975 204.406 140.222 201.341 140.562C198.874 140.836 196.246 141.194 194.365 142.871C193.784 143.389 193.272 144.089 193.274 144.883H193.274Z" fill="#363939"/>
<path fill-rule="evenodd" clip-rule="evenodd" d="M77.1105 63.0624C76.9531 62.1296 77.5704 61.2025 78.3659 60.7443C79.1613 60.2862 80.0989 60.1978 81.0061 60.1421C89.0951 59.6461 97.1713 61 105.263 61.4451C106.305 61.5024 107.403 61.5623 108.279 62.152C109.155 62.7417 109.669 64.0651 109.063 64.9496C108.77 65.3774 108.285 65.6151 107.804 65.7734C106.417 66.2301 104.929 66.1695 103.475 66.1044C95.9103 65.7655 88.3456 65.4265 80.7809 65.0876C79.2791 65.0203 77.3708 64.6055 77.1105 63.0624M78.1487 61.7105C77.7213 62.3383 78.079 63.275 78.6966 63.6973C79.3141 64.1197 80.0922 64.1672 80.8301 64.2019C88.8473 64.5779 96.8645 64.9539 104.882 65.3299C105.663 65.3665 106.528 65.3746 107.12 64.842C107.712 64.3094 107.634 63.0392 106.861 62.9112C97.9463 61.4339 88.8997 60.8205 79.8762 61.0812C79.2427 61.0995 78.5155 61.1719 78.1487 61.7105" fill="#363939"/>
<path fill-rule="evenodd" clip-rule="evenodd" d="M165.828 55.4256C167.074 52.8903 169.095 50.2769 171.968 50.0607C173.881 49.9167 175.912 50.2435 177.426 51.3942C180.173 53.4813 180.364 57.5284 179.382 60.7882C178.226 64.6305 175.644 68.1891 171.94 69.9123C171.057 70.3233 170.096 70.6306 169.118 70.5932C166.52 70.4937 164.628 68.0019 164.068 65.5231C163.302 62.1259 164.286 58.5619 165.828 55.4256M169.059 69.6652C170.979 69.9204 172.789 68.7263 174.144 67.3733C176.684 64.8373 178.389 61.517 178.95 58.0134C179.112 57.0037 179.18 55.9561 178.898 54.9717C178.345 53.0356 176.464 51.6364 174.447 51.2338C172.506 50.8466 170.374 51.3085 168.879 52.5756C168.16 53.1846 167.601 53.9537 167.114 54.7516C165.524 57.3545 164.62 60.3834 164.731 63.4119C164.781 64.7801 165.047 66.1708 165.756 67.3517C166.466 68.5325 167.669 69.4805 169.059 69.6652Z" fill="#363939"/>
<path fill-rule="evenodd" clip-rule="evenodd" d="M103.48 163.99C103.728 163.977 103.995 163.968 104.205 164.102C104.465 164.268 104.56 164.598 104.635 164.899C104.799 165.559 104.964 166.245 104.832 166.911C104.7 167.578 104.179 168.218 103.506 168.248C101.791 168.324 100.075 168.399 98.3596 168.475C97.6868 168.505 96.8986 168.602 96.5643 169.192C96.3377 169.592 96.4052 170.089 96.4794 170.543C96.6897 171.832 97.2842 173.462 98.5768 173.414C99.4367 173.383 100.203 174.042 100.573 174.826C100.943 175.611 100.999 176.503 101.048 177.371C101.094 178.187 100.888 179.303 100.078 179.324C99.4252 179.34 99.2451 180.231 99.2658 180.89C99.41 185.476 99.5542 190.061 99.6985 194.646C99.7217 195.385 98.7842 195.695 98.0559 195.769C91.9529 196.392 85.7864 196.375 79.6868 195.721C79.468 195.697 79.1887 195.611 79.1838 195.388C79.0709 190.208 78.958 185.027 78.8452 179.846C78.8386 179.544 78.6918 179.126 78.4034 179.206C77.4944 179.457 76.5804 178.605 76.3921 177.673C76.2039 176.74 76.5268 175.788 76.845 174.893C76.9921 174.479 77.1571 174.04 77.5089 173.78C78.2602 173.226 79.6489 173.621 79.9854 172.745C80.041 172.6 80.0517 172.441 80.0463 172.286C79.9994 170.933 78.7517 169.865 77.4375 169.598C76.1233 169.33 74.7687 169.682 73.4888 170.085C73.1955 168.968 73.1203 167.792 73.2689 166.646C73.3039 166.375 73.3584 166.091 73.5385 165.887C73.7951 165.597 74.2227 165.557 74.6075 165.536C84.2316 165.021 93.8557 164.506 103.48 163.99ZM77.82 174.487C77.635 174.704 77.5939 175.007 77.5606 175.291C77.4737 176.032 77.3868 176.773 77.3 177.515C77.2817 177.671 77.2646 177.835 77.3268 177.979C77.4601 178.287 77.8629 178.34 78.1958 178.349C79.9626 178.393 81.7293 178.437 83.4961 178.482C83.794 178.489 84.1066 178.493 84.3713 178.355C84.7968 178.132 84.9716 177.527 84.7315 177.108C84.9477 177.086 85.1639 177.063 85.3801 177.041C85.2849 177.687 85.937 178.229 86.5774 178.324C87.2177 178.419 87.8612 178.221 88.5064 178.17C89.8591 178.062 91.2099 178.598 92.5575 178.437C92.6993 178.42 92.8507 178.39 92.9499 178.286C93.0796 178.151 93.0772 177.939 93.0666 177.751C93.0155 176.847 92.9644 175.944 92.9133 175.04C92.8972 174.756 92.8731 174.45 92.6921 174.231C92.4336 173.919 91.9705 173.91 91.5679 173.925C89.6228 174.001 87.6777 174.077 85.7326 174.153C85.5968 174.159 85.4465 174.17 85.3524 174.269C85.2469 174.38 85.2543 174.554 85.2685 174.708C85.3339 175.41 85.3992 176.113 85.4646 176.816C85.2065 176.842 84.9534 176.918 84.7238 177.04C84.6664 176.486 84.6089 175.932 84.5515 175.378C84.4991 174.873 84.3031 174.226 83.8005 174.219C82.1951 174.197 80.5897 174.176 78.9844 174.154C78.5671 174.149 78.0923 174.168 77.82 174.487ZM87.0691 179.936C87.0423 179.563 86.8823 179.07 86.514 179.11C84.2249 179.358 81.908 179.344 79.622 179.067C79.6784 184.098 79.7712 189.127 79.9004 194.156C79.917 194.803 80.726 195.062 81.3637 195.128C83.2583 195.325 85.1661 195.391 87.0696 195.328C87.2257 195.323 87.3946 195.312 87.5135 195.21C87.6698 195.076 87.68 194.84 87.6777 194.633C87.6232 189.729 87.4202 184.828 87.0691 179.936ZM98.5168 179.659C98.4542 179.551 98.3115 179.528 98.1877 179.518C96.2185 179.349 94.2391 179.302 92.2642 179.376C92.0853 179.383 91.8937 179.395 91.752 179.506C91.5365 179.674 91.5234 179.991 91.5294 180.266C91.6382 185.287 91.7471 190.307 91.856 195.327C94.0302 195.539 96.2438 195.332 98.3423 194.72C98.4729 194.682 98.6114 194.636 98.6958 194.529C98.7868 194.413 98.7929 194.253 98.7948 194.105C98.8359 190.875 98.7533 187.645 98.6708 184.416C98.6319 182.894 98.593 181.373 98.5541 179.852C98.5524 179.786 98.5498 179.716 98.5168 179.659ZM74.0991 166.932C73.7215 167.532 74.1274 168.378 74.7479 168.713C75.3685 169.048 76.1121 169.016 76.8145 168.974C81.064 168.726 85.3136 168.477 89.5631 168.228C93.6158 167.991 97.6688 167.754 101.715 167.422C102.308 167.373 102.93 167.312 103.42 166.971C103.909 166.63 104.194 165.91 103.865 165.41C103.536 164.908 102.828 164.885 102.232 164.916C93.4018 165.376 84.5717 165.836 75.7416 166.296C75.1317 166.327 74.4269 166.412 74.0991 166.932M91.0845 195.21C90.7859 190.31 90.7268 185.394 90.9074 180.487C90.9178 180.205 90.927 179.912 90.8156 179.654C90.4903 178.898 89.4442 178.9 88.6381 179.026C88.2694 179.084 87.7989 179.262 87.8266 179.637C88.1722 184.331 88.518 189.032 88.4404 193.738C88.4301 194.361 88.7833 194.976 89.3237 195.277C89.864 195.578 90.5681 195.551 91.0845 195.21ZM100.204 177.118C100.099 176.47 99.9894 175.809 99.6768 175.233C99.3641 174.658 98.8041 174.176 98.1551 174.143C96.922 174.081 95.689 174.019 94.4559 173.957C94.1349 173.941 93.6914 174.039 93.7068 174.363C93.7538 175.349 93.8008 176.334 93.8478 177.319C93.8683 177.749 93.9477 178.269 94.3424 178.432C94.4697 178.485 94.6107 178.488 94.7482 178.492C96.3559 178.529 97.9635 178.566 99.5712 178.603C99.878 178.61 100.135 178.338 100.219 178.039C100.303 177.741 100.254 177.424 100.204 177.118ZM92.4203 172.262C92.2593 171.578 92.0916 170.878 91.7065 170.292C91.3214 169.706 90.6677 169.248 89.9731 169.3C88.9027 169.379 87.8322 169.459 86.7617 169.538C86.0948 169.588 85.3397 169.684 84.9487 170.232C84.4759 170.895 84.8002 171.819 84.6725 172.626C84.6276 172.909 84.8468 173.181 85.1092 173.291C85.3715 173.401 85.6663 173.388 85.9501 173.373C87.8663 173.273 89.7826 173.174 91.6988 173.074C91.9801 173.06 92.3177 173.008 92.4298 172.747C92.4947 172.596 92.458 172.422 92.4203 172.262ZM95.7783 171.023C95.4137 170.518 95.4227 169.771 95.7994 169.276C95.1277 168.855 94.1871 168.933 93.5923 169.459C92.9976 169.985 92.7973 170.916 93.1224 171.644C93.2369 171.901 93.1713 172.205 93.252 172.474C93.3667 172.857 93.7631 173.097 94.1561 173.146C94.549 173.195 94.9431 173.091 95.3257 172.988C95.8274 172.852 96.4381 172.582 96.4333 172.057C96.4294 171.639 96.0227 171.361 95.7783 171.023ZM83.8034 172.818C84.0259 172.083 83.7266 171.245 83.1552 170.737C82.5839 170.229 81.7836 170.032 81.0255 170.1C80.7209 170.128 80.4032 170.204 80.1828 170.418C79.9623 170.632 79.8834 171.018 80.0821 171.252C80.2289 171.426 80.4801 171.477 80.6336 171.644C80.8681 171.899 80.789 172.307 80.8963 172.638C81.1389 173.386 82.144 173.456 82.9196 173.385C83.1851 173.36 83.4781 173.322 83.6529 173.119C83.7263 173.034 83.7706 172.927 83.8034 172.818ZM83.929 170.345C84.1089 170.17 84.1414 169.861 84.0024 169.651C83.6927 169.558 83.3464 169.744 83.1835 170.026C83.3046 170.306 83.645 170.468 83.9359 170.383M92.7662 169.565C92.8114 169.442 92.7848 169.295 92.6996 169.197C92.4057 169.103 92.0634 169.187 91.8451 169.407C92.0697 169.664 92.4784 169.734 92.7741 169.565L92.7662 169.565Z" fill="#363939"/>
<path fill-rule="evenodd" clip-rule="evenodd" d="M212.996 148.703C203.439 152.435 193.881 156.166 184.323 159.898C180.212 161.503 175.456 163.912 175.015 168.297C180.6 164.008 187.499 161.447 194.534 161.054C189.674 167.168 183.536 172.266 176.63 175.925C170.428 179.21 162.576 182.715 162.044 189.705C168.705 181.786 178.946 176.992 189.303 176.944C182.677 186.634 172.051 193.507 160.485 195.585C160.882 198.562 161.279 201.54 161.676 204.518C165.606 204.379 169.56 204.94 173.295 206.167C175.955 217.577 178.615 228.987 181.275 240.396C181.93 243.204 182.506 246.43 180.784 248.744C179.076 251.04 175.849 251.435 172.992 251.638C161.731 252.437 150.471 253.236 139.21 254.035C137.862 247.937 136.513 241.838 135.165 235.74C116.17 237.501 97.1758 239.262 78.1812 241.023C74.1811 241.393 69.9506 241.726 66.331 239.986C53.2022 233.675 37.283 245.89 23.4164 241.421C35.5997 241.192 47.7454 239.07 59.283 235.156C63.4672 233.736 68.4771 229.848 66.2909 226.013C55.5913 233.467 41.8628 236.442 29.0308 234.089C29.7842 221.647 29.2997 209.131 27.5866 196.785C36.7171 195.481 45.7152 193.255 54.3994 190.152C56.815 189.289 59.3001 188.296 61.0203 186.396C62.7405 184.495 63.436 181.425 61.9246 179.355C48.7161 186.382 33.4654 189.527 18.5492 188.3C19.3275 205.151 20.1059 222.002 20.8842 238.852C18.6794 222.014 17.5102 205.04 17.3852 188.058C25.0634 187.379 32.7416 186.699 40.4198 186.019C39.1852 180.547 37.9428 174.95 38.5771 169.377C39.2113 163.804 42.0842 158.16 47.1342 155.702C43.3137 147.566 37.5398 140.353 30.434 134.839C22.1039 128.375 11.394 123.502 7.58997 113.677C5.07479 107.18 6.30851 99.6243 9.7912 93.5898C13.2739 87.5552 18.7925 82.9067 24.7906 79.3508C16.5327 77.2316 10.2777 69.013 10.445 60.5019C10.6124 51.9907 17.1856 44.0236 25.5205 42.2295C21.5908 37.5541 15.4029 35.4111 10.8831 31.3014C5.61791 26.5139 2.97209 18.7911 4.89 11.9436C6.80791 5.09614 13.5607 -0.291346 20.6757 0.0122264C26.5201 0.261584 31.6633 3.95214 35.7428 8.1379C42.0697 14.6295 46.7751 22.6847 49.319 31.379C51.0147 37.1741 57.2291 40.1223 62.4772 43.1213C67.7253 46.1204 73.1754 51.3444 71.6967 57.1984C69.7419 49.1878 63.1776 42.4731 55.2039 40.3278C51.0491 39.2099 49.5349 34.2736 48.1985 30.1899C45.5977 22.2431 41.1581 14.9025 35.325 8.90452C30.9414 4.39693 25.2101 0.463533 18.9264 0.802177C12.4577 1.15079 6.7554 6.40433 5.27651 12.7013C3.79761 18.9983 6.27718 25.8981 10.9971 30.3281C15.8047 34.8404 22.6825 37.0507 26.5584 42.3822C18.1521 44.0878 11.5061 52.1648 11.4619 60.7292C11.4178 69.2936 17.9802 77.4385 26.3684 79.2305C20.457 82.6853 14.9256 87.0738 11.2785 92.8626C7.63139 98.6514 6.06796 105.999 8.25021 112.481C13.2976 127.475 34.3357 131.053 41.7599 145.027C43.7707 138.433 40.8232 131.5 39.3083 124.775C37.7934 118.05 38.6497 109.415 44.9294 106.551C43.0941 97.7194 41.2588 88.8878 39.4235 80.0562C38.056 73.4753 37.3698 65.1375 43.0401 61.5149C39.0449 60.2778 35.499 57.6428 33.1654 54.1767C35.6855 58.028 40.5392 60.2132 45.0986 59.5492C39.3369 47.0792 32.9484 34.8979 25.9651 23.0664C33.4897 34.3942 40.1491 46.2946 45.8666 58.6304C72.3108 57.916 98.7964 58.7294 125.147 61.0652C128.645 61.3753 132.41 61.8268 134.997 64.1995C138.713 67.6093 144.293 68.853 149.109 67.3449C150.641 71.1375 151.769 75.3973 150.466 79.2744C149.164 83.1515 144.55 86.1108 140.862 84.3323C141.824 89.2773 142.787 94.2223 143.75 99.1673C153.18 99.2804 162.608 99.4727 172.035 99.7439C177.031 99.8877 182.253 100.115 186.595 102.586C190.938 105.057 194.002 110.532 192.068 115.133C193.301 111.33 194.535 107.528 195.769 103.725C200.117 110.616 202.252 118.875 201.788 127.007C203.294 124.718 204.801 122.43 206.307 120.142C200.955 111.733 200.274 100.556 204.565 91.561C208.773 98.5186 211.143 106.573 211.373 114.698C212.943 100.055 223.334 86.7065 237.158 81.5728C234.759 87.0906 232.361 92.6084 229.963 98.1261C227.909 102.85 225.3 108.09 220.366 109.591C217.111 110.581 212.398 110.521 211.808 113.867C221.157 111.419 231.107 111.298 240.513 113.517C233.265 122.217 219.298 124.359 209.769 118.233C205.274 123.238 201.379 128.781 198.194 134.705C203.604 127.993 212.023 123.795 220.648 123.509C216.014 128.977 210.787 133.944 205.089 138.295C208.113 138.585 211.384 138.983 213.578 141.082C215.772 143.181 215.826 147.598 212.996 148.703ZM86.8349 93.5988C89.3416 93.5699 92.1492 93.6588 93.8991 95.4511C95.234 96.8183 95.5918 98.8351 95.8828 100.722C97.2136 109.353 98.4597 117.996 99.6207 126.651C99.912 128.821 98.089 130.824 96.0065 131.513C93.924 132.201 91.6596 131.899 89.4879 131.59C91.2987 130.029 94.3556 131.148 96.3046 129.763C98.0525 128.522 98.0424 125.972 97.8331 123.84C97.0484 115.848 95.9799 107.884 94.6302 99.968C94.3916 98.5687 94.0994 97.0801 93.1066 96.064C91.7845 94.711 89.6718 94.621 87.7786 94.6187C80.0071 94.609 72.2356 94.5993 64.4642 94.5896C63.1247 94.588 61.7154 94.6039 60.5525 95.2675C57.2063 97.1771 58.4399 102.221 60.1033 105.692C64.8157 104.738 69.6307 104.291 74.4384 104.361C78.6977 104.422 84.009 105.803 84.7272 109.995C86.3051 119.205 87.8829 128.414 89.4608 137.623C90.2881 142.452 90.7441 148.319 86.8791 151.337C84.9477 152.845 82.3846 153.204 79.9521 153.511C73.9713 154.266 67.9905 155.021 62.0096 155.776C64.5006 177.552 66.9916 199.328 69.4826 221.104C69.7604 223.533 70.2691 226.325 72.4083 227.515C73.6737 228.219 75.2088 228.161 76.6552 228.082C95.7117 227.045 114.75 225.671 133.758 223.961C132.998 222.231 132.983 220.19 133.717 218.449C135.642 229.702 137.568 240.955 139.493 252.208C142.864 249.889 142.346 244.853 141.451 240.865C139.185 230.766 136.919 220.668 134.653 210.569C133.736 212.249 132.819 213.929 131.902 215.609C131.451 213.512 132.712 211.341 134.46 210.094C136.209 208.847 138.364 208.336 140.465 207.886C146.924 206.503 153.454 205.447 160.02 204.723C158.112 191.284 156.203 177.845 154.295 164.405C142.564 167.623 130.14 166.61 118.019 165.572C114.429 165.265 109.866 164.059 109.524 160.477C108.663 151.474 107.802 142.471 106.942 133.468C106.829 132.295 106.148 130.714 105.027 131.083C102.271 131.992 100.632 128.072 100.407 125.184C99.6994 116.123 98.9918 107.063 98.2843 98.003C98.1915 96.8149 98.1674 95.4434 99.0549 94.6464C99.6762 94.0884 100.571 93.9861 101.404 93.9102C107.341 93.3681 113.279 92.8261 119.217 92.2841C122.608 91.9745 126.459 91.8145 128.926 94.1572C130.668 95.8106 131.252 98.3177 131.62 100.689C132.297 105.059 132.522 109.499 132.288 113.914C131.817 109.598 131.347 105.282 130.876 100.965C130.665 99.0231 130.406 96.9637 129.177 95.4434C127.08 92.8487 123.177 92.8923 119.849 93.1657C113.903 93.6542 107.958 94.1426 102.012 94.6311C101.211 94.6968 100.343 94.7914 99.7612 95.3443C99.0039 96.0637 99.0253 97.2544 99.101 98.2953C99.738 107.051 100.375 115.807 101.012 124.563C101.132 126.216 101.296 127.982 102.342 129.268C103.389 130.554 105.659 130.958 106.637 129.619C105.298 126.679 107.151 123.079 109.893 121.366C112.636 119.652 116.002 119.351 119.227 119.094C124.789 118.651 130.351 118.208 135.913 117.765C135.532 106.271 134.29 94.8055 132.202 83.4959C130.278 82.9588 128.527 81.8236 127.252 80.2879C126.298 82.7412 123.457 84.3002 120.871 83.7892C118.286 83.2781 116.254 80.7559 116.308 78.1249C116.002 81.1526 113.36 83.7787 110.326 84.0716C107.292 84.3644 104.195 82.2923 103.313 79.3793C101.861 80.9971 99.9753 82.3911 97.8079 82.5881C95.6406 82.785 93.2432 81.4186 92.8907 79.2744C90.0444 82.9611 83.4294 82.5871 81.0182 78.6031C78.5381 82.6895 71.4777 82.5891 69.1153 78.4338C68.0545 82.2753 62.1328 82.5827 59.2904 79.7853C56.4479 76.9879 55.8946 72.6785 55.4991 68.7132C50.8072 73.2268 49.9607 80.4777 50.8512 86.9217C51.7417 93.3657 54.0623 99.5732 54.6252 106.054C55.9107 106.377 57.3205 106.173 58.4616 105.5C57.2291 101.781 56.4186 96.785 59.7643 94.7395C61.1064 93.9191 62.7671 93.877 64.3406 93.8588C71.8387 93.7722 79.3368 93.6855 86.8349 93.5988ZM161.113 156.18C170.949 155.693 181.096 156.973 190.443 153.878C191.889 153.399 193.371 152.767 194.303 151.564C191.915 150.468 189.379 148.579 189.438 145.956C189.476 144.233 190.672 142.744 192.019 141.667C193.433 140.537 195.079 139.697 196.825 139.216C196.967 138.784 196.207 138.691 195.83 138.946C195.454 139.2 194.882 139.516 194.632 139.137C194.565 139.035 194.551 138.908 194.539 138.787C193.601 129.255 192.211 119.767 190.374 110.366C189.822 107.54 189.002 104.391 186.507 102.947C185.16 102.167 183.545 102.036 181.991 101.929C170.295 101.121 158.577 100.626 146.855 100.445C144.084 100.402 140.985 100.505 139.043 102.477C137.569 103.974 137.148 106.197 136.991 108.29C136.508 114.77 137.898 121.22 138.802 127.655C139.886 135.364 140.275 143.15 140.99 150.901C141.085 151.933 141.2 153.008 141.759 153.881C142.717 155.377 144.662 155.846 146.424 156.093C149.026 156.457 151.657 156.611 154.284 156.553C156.564 156.503 158.836 156.293 161.113 156.18ZM80.3926 106.179C77.0629 104.717 73.2493 105.109 69.6364 105.527C64.1714 106.161 58.7063 106.794 53.2413 107.428C50.6146 107.732 47.9854 108.037 45.3868 108.526C44.7604 108.644 44.1318 108.774 43.5407 109.013C41.2246 109.947 39.8437 112.441 39.5224 114.914C39.2011 117.388 39.7518 119.881 40.2797 122.319C41.9202 129.896 43.3753 137.543 43.77 145.285C43.8481 146.818 43.8873 148.371 44.3092 149.846C44.7311 151.322 45.5926 152.741 46.9396 153.481C47.9758 154.049 49.193 154.167 50.3728 154.245C61.1869 154.954 71.9952 153.213 82.6924 151.478C84.2144 151.231 85.8156 150.949 87.002 149.966C88.8344 148.447 89.1082 145.776 89.095 143.398C89.0707 139.007 88.5382 134.619 87.5116 130.349C86.3109 125.355 84.4255 120.443 84.3756 115.307C84.3536 113.042 84.6514 110.602 83.4677 108.669C82.7682 107.527 81.6199 106.717 80.3926 106.179ZM28.9336 201.272C30.3873 211.701 30.8757 222.263 30.3906 232.781C30.365 233.335 31.0397 233.618 31.5857 233.722C38.5788 235.056 45.7806 233.346 52.5663 231.195C56.4238 229.972 60.2842 228.579 63.6203 226.291C65.1464 225.244 66.6908 223.667 66.4054 221.841C64.572 210.107 63.5637 198.245 63.3902 186.371C57.2158 191.188 49.3805 193.232 41.7867 195.161C38.1875 196.075 34.5396 196.995 30.8259 196.964C29.9282 196.956 29.1828 197.744 28.9319 198.604C28.6811 199.465 28.8098 200.384 28.9336 201.272ZM170.857 206.544C159.291 205.419 147.493 206.74 136.464 210.393C137.126 215.423 138.031 220.42 139.174 225.363C139.632 227.342 140.128 229.313 140.624 231.283C141.59 235.12 142.555 238.956 143.521 242.793C143.656 243.327 143.824 243.911 144.285 244.213C144.697 244.483 145.229 244.452 145.72 244.411C157.14 243.46 168.554 242.43 179.96 241.321C177.467 230.223 174.973 219.126 172.48 208.029C172.384 207.602 172.268 207.143 171.929 206.867C171.635 206.629 171.234 206.58 170.857 206.544ZM153.808 157.829C151.291 157.957 148.737 158.082 146.28 157.525C143.822 156.967 141.431 155.63 140.169 153.452C139.445 154.285 138.005 154.347 137.211 153.58C136.417 152.814 136.431 151.375 137.241 150.624C134.044 150.653 130.847 150.682 127.649 150.711C129.111 151.57 128.99 154.103 127.48 154.873C125.97 155.643 123.879 154.343 123.844 152.65C123.828 151.89 124.295 151.037 125.053 150.969C124.739 150.431 123.923 150.75 123.302 150.691C122.366 150.603 121.855 149.585 121.527 148.706C120.196 145.14 118.985 141.532 117.774 137.924C118.622 139.309 120.531 139.933 122.035 139.315C122.567 139.097 122.583 138.334 122.357 137.807C121.962 136.886 121.061 136.176 120.061 136.098C119.061 136.019 118.021 136.63 117.682 137.573C117.181 137.198 117.395 136.333 117.921 135.994C118.446 135.655 119.12 135.685 119.745 135.723C125.641 136.078 131.56 136.073 137.456 135.706C137.724 135.689 138.02 135.659 138.203 135.463C138.41 135.24 138.39 134.897 138.357 134.595C138.132 132.525 137.906 130.454 137.681 128.383C137.656 128.154 137.62 127.902 137.448 127.748C137.259 127.577 136.974 127.585 136.72 127.603C129.329 128.129 121.958 128.923 114.625 129.984C113.844 130.097 113.118 129.443 112.872 128.695C112.625 127.947 112.739 127.134 112.856 126.355C112.896 126.082 112.948 125.786 113.151 125.598C113.338 125.425 113.608 125.384 113.861 125.352C121.49 124.38 129.169 123.796 136.858 123.605C136.671 124.363 135.681 124.526 134.899 124.54C127.763 124.667 120.635 125.238 113.571 126.249C113.006 127.212 113.779 128.51 114.821 128.915C115.862 129.32 117.029 129.103 118.127 128.897C124.18 127.759 130.321 127.089 136.477 126.894C137.356 126.866 137.461 125.603 137.276 124.745C136.847 122.751 136.418 120.758 135.989 118.765C131.726 119.571 127.371 119.892 123.035 119.721C120.47 119.62 117.918 120.068 115.39 120.514C113.241 120.893 110.951 121.342 109.399 122.872C107.583 124.661 107.258 127.458 107.368 130.003C107.549 134.176 108.61 138.259 109.134 142.404C109.774 147.468 109.609 152.602 110.1 157.682C110.233 159.051 110.421 160.445 111.036 161.676C111.651 162.907 112.768 163.963 114.13 164.166C125.325 165.832 136.739 166.022 147.983 164.727C149.021 164.608 150.069 164.473 151.05 164.111C152.597 163.539 153.924 162.394 154.713 160.947C155.03 160.366 155.267 159.702 155.151 159.051C155.036 158.4 154.469 157.795 153.808 157.829ZM64.3128 186.381C65.4843 199.25 66.6558 212.118 67.8274 224.987C68.0379 227.3 68.2406 229.689 67.5165 231.896C66.7924 234.103 64.8876 236.098 62.5626 236.174C63.9276 238.168 66.2834 239.308 68.6655 239.725C71.0476 240.142 73.49 239.921 75.8982 239.699C95.7413 237.869 115.584 236.038 135.427 234.208C135.001 231.732 134.576 229.256 134.15 226.781C134.054 226.225 133.781 225.52 133.218 225.562C119.574 226.577 105.931 227.592 92.2879 228.608C86.6854 229.024 81.0556 229.441 75.4563 228.984C72.623 228.753 69.1237 227.628 68.8441 224.804C66.6074 202.205 64.018 179.642 61.077 157.123C61.0318 156.777 60.9757 156.407 60.7385 156.15C60.4219 155.807 59.8978 155.781 59.4308 155.778C56.6409 155.764 53.851 155.75 51.0612 155.736C51.876 160.351 52.9337 164.923 54.2284 169.427C54.4676 170.259 54.8657 171.231 55.7199 171.381C58.7875 171.918 61.2086 174.438 62.4707 177.281C63.7327 180.123 64.0308 183.284 64.3128 186.381ZM53.594 106.28C51.1994 94.1544 49.1734 81.9559 47.5196 69.7073C47.4261 69.0146 47.3356 68.2963 47.5398 67.6277C47.9606 66.2496 49.4704 65.5274 50.8744 65.1949C53.6194 64.5448 56.4859 64.7617 59.2994 64.9688C85.0225 66.8625 110.829 67.6202 136.619 67.2391C135.594 65.162 133.531 63.7452 131.337 62.9939C129.143 62.2426 126.798 62.0759 124.484 61.9162C101.782 60.3498 79.0455 58.8819 56.2909 59.1555C53.5069 59.1889 50.6904 59.2529 48.0023 59.9767C45.3142 60.7005 42.7278 62.1582 41.177 64.4668C38.7333 68.1046 39.3243 72.9099 40.0807 77.2245C41.8521 87.3287 44.0071 97.3658 46.5396 107.307C48.891 106.965 51.2425 106.623 53.594 106.28ZM108.98 82.5804C110.21 82.5932 111.487 82.5244 112.575 81.9527C114.491 80.9458 115.341 78.6261 115.468 76.4683C115.594 74.3106 115.168 72.1479 115.305 69.9908C115.337 69.4991 115.612 68.8475 116.089 68.9709C116.435 71.4542 116.781 73.9374 117.127 76.4207C117.318 77.7917 117.517 79.1883 118.119 80.4354C118.72 81.6824 119.802 82.7786 121.163 83.0397C121.945 83.1897 122.762 83.0553 123.507 82.7756C125.291 82.1059 126.787 80.4008 126.719 78.4987C126.625 75.8725 126.532 73.2463 126.438 70.6201C126.401 69.5811 126.014 68.1967 124.974 68.2511C118.041 68.6138 111.088 68.5818 104.159 68.1552C103.653 68.1241 103.52 68.8389 103.574 69.3414C103.851 71.9463 104.128 74.5512 104.406 77.1561C104.615 79.1228 105.062 81.4344 106.87 82.2438C107.525 82.5371 108.263 82.5729 108.98 82.5804ZM144.539 246.036C144.206 246.269 143.987 246.626 143.785 246.977C142.734 248.804 141.888 250.75 141.271 252.766C153.407 251.919 165.533 250.935 177.647 249.815C178.102 249.773 178.596 249.713 178.923 249.394C179.135 249.186 179.243 248.899 179.346 248.621C179.799 247.391 180.253 246.161 180.706 244.931C180.927 244.333 181.123 243.588 180.691 243.118C180.333 242.727 179.723 242.74 179.194 242.782C168.119 243.668 157.049 244.622 145.986 245.644C145.482 245.69 144.953 245.746 144.539 246.036ZM165.932 171.385C165.604 167.563 164.935 163.272 161.81 161.039C160.591 164.391 159.36 167.794 159.081 171.35C158.802 174.905 159.589 178.695 161.978 181.347C162.314 181.719 162.687 182.081 162.865 182.55C163.043 183.018 162.953 183.637 162.517 183.885C159.27 181.065 157.926 176.54 158.002 172.244C158.078 167.947 159.397 163.781 160.704 159.687C160.991 158.787 160.169 157.841 159.247 157.631C158.325 157.421 157.373 157.729 156.478 158.033C156.304 158.092 156.227 158.291 156.172 158.466C155.553 160.436 154.928 162.524 155.407 164.532C157.473 173.184 157.207 182.264 159.31 190.907C159.387 191.226 159.471 191.552 159.658 191.822C161.052 189.1 162.447 186.377 163.842 183.654C164.497 182.375 165.156 181.086 165.565 179.709C166.361 177.03 166.171 174.169 165.932 171.385ZM215.27 108.586C215.539 108.808 215.901 108.878 216.248 108.916C220.192 109.357 223.914 106.676 226.098 103.368C228.282 100.06 229.314 96.1512 230.746 92.4557C232.09 88.9874 233.808 85.664 235.863 82.562C231.75 86.4151 226.687 89.1132 222.394 92.7651C218.101 96.417 214.447 101.539 214.75 107.162C214.778 107.682 214.868 108.254 215.27 108.586ZM57.3087 71.3244C57.8694 73.7781 57.6376 76.5048 58.9992 78.6229C60.3192 80.6762 63.1037 81.6547 65.4208 80.8796C67.738 80.1046 69.37 77.6488 69.1847 75.216C69.1425 74.6631 69.0175 74.1202 68.8929 73.5799C68.4047 71.4629 67.9165 69.3459 67.4283 67.2289C67.3798 67.0183 67.3255 66.7968 67.1759 66.6406C66.9614 66.4166 66.618 66.3905 66.3078 66.3787C63.3253 66.2647 60.3427 66.1507 57.3602 66.0367C57.0733 66.0257 56.7584 66.0235 56.5353 66.2041C56.2531 66.4326 56.2369 66.8523 56.2736 67.2133C56.4167 68.6209 56.9935 69.9449 57.3087 71.3244ZM138.044 73.6132C138.115 77.0025 140.327 79.9497 142.659 82.4133C142.887 82.6539 143.121 82.8954 143.405 83.0653C143.866 83.34 144.426 83.405 144.96 83.3592C146.762 83.2046 148.303 81.8442 149.064 80.206C149.824 78.5678 149.91 76.6938 149.746 74.8956C149.583 73.0973 149.184 71.3265 149.023 69.5281C148.991 69.1673 148.858 68.6965 148.495 68.6978C145.307 68.71 142.118 68.7222 138.929 68.7344C138.522 68.736 138.089 68.7443 137.745 68.9623C137.4 69.1802 137.208 69.6893 137.464 70.0067C138.244 70.9763 138.018 72.3694 138.044 73.6132ZM186.533 178.454C177.797 178.301 169.789 183.472 163.678 189.707C162.648 190.758 161.642 191.861 160.957 193.162C160.836 193.392 160.74 193.713 160.939 193.881C161.045 193.971 161.196 193.976 161.334 193.976C166.417 193.958 171.305 191.814 175.434 188.856C179.564 185.897 183.043 182.143 186.533 178.454ZM78.435 80.2641C79.6829 79.5468 80.4861 78.1186 80.4498 76.6814C80.4314 75.9524 80.2156 75.2452 80.0421 74.5368C79.5957 72.7144 79.4221 70.8255 79.529 68.9523C79.5517 68.5534 79.5859 68.1435 79.4658 67.7623C79.3457 67.3811 79.027 67.0306 78.6273 67.0088C75.3261 66.8288 72.0248 66.6488 68.7235 66.4689C68.6047 66.4624 68.4752 66.4589 68.3793 66.5292C68.2307 66.638 68.2391 66.8587 68.2666 67.0406C68.6729 69.7228 69.9728 72.2493 70.0563 74.9606C70.087 75.9583 69.9534 76.9807 70.2332 77.9389C70.5915 79.1661 71.6151 80.1347 72.8028 80.6122C73.9904 81.0896 75.323 81.1167 76.5829 80.8898C77.2275 80.7737 77.8673 80.5904 78.435 80.2641ZM210.531 116.984C212.922 117.658 215.036 119.066 217.355 119.954C222.497 121.923 228.618 121.101 233.056 117.845C234.961 116.447 236.867 115.049 238.772 113.651C236.45 114.2 234.047 114.41 231.664 114.273C227.682 114.044 223.75 112.853 219.772 113.151C216.389 113.405 213.098 114.77 210.531 116.984ZM142.257 98.6146C141.787 96.0156 141.317 93.4166 140.847 90.8176C140.217 87.3342 139.587 83.8507 138.958 80.3673C138.913 80.1202 138.859 79.855 138.675 79.6832C138.492 79.5113 138.134 79.5109 138.034 79.7413C137.405 81.1909 136.117 82.3399 134.604 82.8015C133.686 83.0815 133.607 84.3323 133.714 85.2849C134.467 92.0056 135.358 98.7108 136.387 105.395C136.686 102.661 139.033 100.287 141.767 99.9519C142.299 99.8867 142.352 99.1411 142.257 98.6146ZM92.0266 77.4748C91.7346 74.6729 91.3661 71.8789 90.9218 69.097C90.8302 68.5233 90.5855 67.8082 90.0042 67.7827C86.9994 67.6511 83.9947 67.5195 80.9899 67.3879C80.8827 67.3832 80.7697 67.3797 80.6749 67.4299C80.4324 67.5583 80.4721 67.9115 80.5435 68.1761C81.2364 70.7448 81.6042 73.4007 81.6353 76.0608C81.643 76.7154 81.6354 77.3951 81.9098 77.9896C82.3136 78.8646 83.2329 79.3665 84.1067 79.7752C85.6295 80.4876 87.2945 81.1138 88.9561 80.8551C90.6177 80.5965 92.2007 79.1447 92.0266 77.4748ZM93.326 77.4904C93.6291 78.9564 94.1846 80.6618 95.6232 81.0832C96.8372 81.4389 98.1498 81.5369 99.3676 81.1942C100.585 80.8515 101.696 80.0353 102.241 78.8952C102.629 78.0837 102.716 77.1652 102.767 76.2675C102.905 73.8082 102.81 71.3358 102.483 68.8944C102.465 68.7637 102.446 68.6293 102.38 68.5152C102.204 68.2121 101.791 68.1695 101.441 68.1619C98.3808 68.0954 95.3212 68.0288 92.2615 67.9622C92.0116 67.9568 91.6625 68.2162 91.8739 68.3495C92.2163 71.4167 92.701 74.468 93.326 77.4904ZM196.137 107.83C193.747 113.225 193.043 119.35 194.147 125.146C194.588 127.461 195.455 129.918 197.463 131.158C198.053 131.523 199.038 131.631 199.256 130.972C201.796 123.324 200.611 114.535 196.137 107.83ZM41.2134 175.568C42.2274 176.263 43.3703 176.769 44.5666 177.054C46.0783 177.413 47.6482 177.418 49.2016 177.455C52.8317 177.542 56.4572 177.82 60.0582 178.286C60.5606 178.352 60.9758 177.809 60.9625 177.303C60.9493 176.797 60.6412 176.351 60.3219 175.958C58.4013 173.596 55.5967 171.968 52.5905 171.47C50.4609 171.118 48.2834 171.315 46.1256 171.253C43.9678 171.191 41.7155 170.827 39.9947 169.525C39.9036 170.763 39.8963 172.006 39.973 173.245C40.004 173.746 40.0547 174.266 40.3106 174.698C40.5251 175.061 40.8658 175.33 41.2134 175.568ZM128.549 79.4411C128.888 80.0547 129.432 80.5275 129.989 80.9538C130.593 81.4156 131.245 81.8478 131.986 82.0173C133.811 82.4348 135.678 81.0844 136.447 79.3798C137.217 77.6752 137.139 75.7211 136.961 73.8599C136.826 72.4527 136.643 71.0501 136.411 69.6556C136.372 69.423 136.328 69.1799 136.181 68.995C135.924 68.6706 135.454 68.633 135.04 68.622C132.815 68.5629 130.589 68.5039 128.364 68.4448C127.871 68.4317 127.171 68.667 127.318 69.137C127.973 71.2406 128.258 73.4584 128.157 75.659C128.099 76.9432 127.928 78.3153 128.549 79.4411ZM207.305 118.501C209.668 114.694 210.375 109.901 209.212 105.576C208.184 101.751 205.795 98.3638 205.037 94.4772C203.271 99.8266 201.493 105.585 203.091 110.987C203.909 113.755 205.563 116.197 207.305 118.501ZM168.163 178.391C175.19 176.584 181.677 172.732 186.621 167.429C188.1 165.842 189.614 164.288 191.162 162.768C187.37 163.287 183.668 164.458 180.269 166.213C175.082 168.892 170.532 173.062 168.163 178.391ZM210.976 131.823C213.56 129.398 216.145 126.973 218.729 124.548C209.989 125.66 201.826 130.702 196.929 138.015C198.191 138.986 200.002 138.414 201.475 137.806C203.523 136.961 205.589 136.106 207.412 134.848C208.696 133.962 209.839 132.89 210.976 131.823ZM40.9902 184.823C41.012 185.047 41.0385 185.284 41.1745 185.464C41.472 185.857 42.0785 185.761 42.5522 185.622C47.9758 184.04 53.3232 182.198 58.5699 180.104C58.9482 179.953 59.3894 179.714 59.3969 179.307C55.3719 179.028 51.3469 178.75 47.3219 178.471C46.3374 178.403 45.3491 178.334 44.384 178.128C42.9322 177.819 41.5479 177.198 40.3524 176.319C40.44 179.161 40.7152 181.993 40.9902 184.823ZM168.138 157.633C167.813 157.868 167.682 158.28 167.57 158.665C167.187 159.983 166.802 161.382 167.158 162.707C167.339 163.383 167.703 163.993 168.063 164.593C169.058 166.254 170.053 167.914 171.047 169.574C171.14 169.729 171.24 169.891 171.4 169.974C171.875 170.223 172.344 169.638 172.565 169.15C173.997 165.979 175.461 162.626 175.136 159.163C175.086 158.631 174.941 158.027 174.465 157.783C174.246 157.671 173.992 157.656 173.746 157.644C172.271 157.571 170.796 157.498 169.321 157.425C168.913 157.404 168.469 157.394 168.138 157.633ZM190.681 145.895C190.644 148.126 192.594 149.992 194.732 150.642C196.871 151.292 199.166 151.012 201.389 150.774C205.298 150.355 209.431 150.009 212.644 147.748C213.357 147.246 214.031 146.627 214.349 145.817C214.846 144.552 214.347 143.058 213.413 142.07C212.479 141.082 211.184 140.517 209.888 140.103C205.257 138.623 200.116 138.793 195.593 140.577C193.208 141.518 190.725 143.334 190.681 145.895ZM40.6222 168.691C41.0432 169.084 41.8965 169.184 42.0606 168.633C42.623 166.745 43.8875 165.126 45.377 163.834C46.8664 162.543 48.5838 161.545 50.2896 160.556C50.7498 160.289 50.7208 159.627 50.6319 159.103C50.4596 158.089 50.2874 157.074 50.1151 156.06C50.0715 155.802 49.9854 155.496 49.7334 155.427C49.5272 155.371 49.3235 155.51 49.155 155.641C47.9312 156.596 46.7074 157.55 45.4837 158.504C43.0316 160.416 40.4038 162.609 39.872 165.669C39.6867 166.736 39.8297 167.953 40.6222 168.691M50.1684 161.861C47.42 163.575 44.5108 165.472 43.2618 168.457C43.184 168.643 43.1123 168.838 43.1184 169.04C43.1304 169.437 43.4509 169.772 43.8184 169.924C44.1859 170.077 44.5953 170.084 44.9932 170.088C47.346 170.116 49.6988 170.144 52.0516 170.171C52.166 170.173 52.2902 170.171 52.3805 170.101C52.5233 169.99 52.5087 169.774 52.4804 169.595C52.1051 167.227 51.7298 164.859 51.3545 162.491C51.3011 162.154 51.1921 161.751 50.8629 161.659C50.6235 161.593 50.3793 161.73 50.1684 161.861ZM167.062 157.779C165.33 157.332 163.461 157.43 161.785 158.053C162.11 159.117 162.685 160.104 163.451 160.91C166.034 163.629 166.798 167.576 167.091 171.312C167.247 173.307 167.303 175.31 167.256 177.311C168.391 175.564 169.525 173.816 170.66 172.069C170.772 171.895 170.889 171.711 170.901 171.505C170.913 171.298 170.819 171.101 170.724 170.917C169.604 168.759 167.959 166.897 166.921 164.699C165.882 162.501 165.564 159.694 167.062 157.779ZM51.0008 66.314C50.0453 66.4653 48.9558 66.7077 48.502 67.5607C48.1882 68.1505 48.2808 68.864 48.3816 69.5242C48.7969 72.243 49.2122 74.9617 49.6274 77.6805C51.7525 73.8653 53.7424 69.9769 55.7317 66.0894C55.3635 65.6738 54.711 65.7263 54.1621 65.8133C53.1083 65.9802 52.0546 66.1471 51.0008 66.314ZM181.802 158.63C182.096 159.019 182.864 158.588 182.683 158.134C185.522 158.948 188.616 158.369 191.296 157.133C193.977 155.897 196.318 154.044 198.621 152.2C197.654 152.065 196.687 151.93 195.719 151.795C195.522 151.767 195.266 151.771 195.19 151.955C194.669 153.229 193.548 154.182 192.31 154.784C191.071 155.387 189.708 155.678 188.361 155.965C187.426 156.164 186.491 156.363 185.556 156.561C184.108 156.869 182.475 157.313 181.802 158.63ZM130.456 138.914C130.637 138.868 130.833 138.814 130.949 138.667C131.129 138.439 131.039 138.111 130.992 137.824C130.944 137.538 131.017 137.156 131.304 137.106C131.565 137.158 131.686 137.468 131.692 137.734C131.699 138 131.64 138.277 131.736 138.525C131.951 139.077 132.714 139.099 133.303 139.024C133.651 138.98 133.999 138.936 134.348 138.891C134.457 138.878 134.573 138.86 134.654 138.786C134.912 138.55 134.554 138.166 134.474 137.826C134.412 137.564 134.535 137.28 134.454 137.023C134.317 136.585 133.734 136.518 133.274 136.533C129.759 136.649 126.244 136.766 122.728 136.882C122.789 137.546 122.971 138.199 123.263 138.799C123.326 138.928 123.4 139.062 123.525 139.133C123.651 139.206 123.806 139.201 123.952 139.194C124.826 139.154 125.7 139.113 126.574 139.073C126.648 139.069 126.726 139.064 126.788 139.024C126.948 138.918 126.893 138.675 126.819 138.499C126.693 138.196 126.567 137.892 126.441 137.589C126.331 137.325 126.81 137.168 127.011 137.371C127.213 137.574 127.22 137.893 127.315 138.163C127.512 138.722 128.108 139.064 128.698 139.136C129.288 139.207 129.88 139.06 130.456 138.914ZM181.507 157.493C181.699 157.289 181.276 157.077 180.998 157.111C179.415 157.304 177.833 157.498 176.25 157.692C176.038 157.718 175.759 157.834 175.809 158.041C176.329 160.167 176.134 162.461 175.262 164.47C175.096 164.852 174.987 165.436 175.385 165.565C177.035 162.607 179.103 159.881 181.507 157.493ZM127.574 140.518C127.524 140.346 127.469 140.166 127.338 140.044C127.189 139.906 126.974 139.871 126.772 139.849C125.735 139.735 124.678 139.806 123.665 140.058C123.982 141.083 124.299 142.109 124.615 143.135C124.676 143.329 124.756 143.547 124.945 143.623C125.042 143.662 125.15 143.656 125.254 143.649C126.278 143.577 127.302 143.505 128.326 143.433C128.104 142.455 127.853 141.482 127.574 140.518ZM120.907 144.105C121.021 144.167 121.16 144.148 121.288 144.127C122.215 143.976 123.142 143.825 124.069 143.674C123.735 142.604 123.4 141.534 123.066 140.463C123.017 140.306 122.955 140.134 122.811 140.056C122.696 139.994 122.557 140.007 122.427 140.022C121.601 140.118 120.774 140.214 119.948 140.31C119.792 140.328 119.608 140.367 119.551 140.512C119.511 140.611 119.548 140.722 119.585 140.821C119.949 141.802 120.314 142.783 120.678 143.764C120.726 143.896 120.784 144.038 120.907 144.105ZM131.323 139.829C131.127 139.659 130.837 139.671 130.578 139.692C129.761 139.759 128.945 139.826 128.129 139.893C128.373 140.938 128.68 141.967 129.048 142.975C129.096 143.107 129.151 143.246 129.263 143.331C129.404 143.437 129.596 143.431 129.772 143.42C130.329 143.387 130.886 143.353 131.443 143.32C131.7 143.304 132.012 143.249 132.098 143.007C132.14 142.891 132.113 142.763 132.086 142.643C131.916 141.889 131.747 141.135 131.577 140.381C131.532 140.18 131.479 139.964 131.323 139.829ZM126.452 147.333C126.372 147.346 126.285 147.361 126.227 147.418C126.112 147.528 126.165 147.718 126.225 147.865C126.439 148.389 126.654 148.913 126.868 149.437C126.948 149.631 127.037 149.838 127.215 149.951C127.379 150.054 127.586 150.057 127.78 150.055C128.521 150.051 129.262 150.047 130.003 150.042C130.111 150.042 130.229 150.038 130.312 149.969C130.464 149.844 130.407 149.604 130.338 149.42C130.053 148.67 129.768 147.92 129.483 147.17C129.391 146.929 129.056 146.926 128.801 146.966C128.018 147.088 127.235 147.211 126.452 147.333ZM132.685 139.681C132.529 139.681 132.354 139.69 132.249 139.805C132.123 139.943 132.163 140.16 132.211 140.342C132.421 141.137 132.632 141.932 132.843 142.726C132.88 142.866 132.923 143.016 133.035 143.107C133.184 143.228 133.4 143.206 133.59 143.177C134.293 143.07 134.995 142.963 135.697 142.855C135.622 142.042 135.492 141.233 135.31 140.436C135.253 140.187 135.174 139.915 134.958 139.779C134.797 139.676 134.593 139.674 134.402 139.674C133.83 139.676 133.257 139.679 132.685 139.681ZM134.115 149.949C133.887 149.124 133.659 148.298 133.432 147.473C133.345 147.158 133.222 146.801 132.917 146.682C132.766 146.623 132.599 146.637 132.438 146.65C131.689 146.716 130.939 146.781 130.19 146.846C130.387 147.585 130.621 148.314 130.891 149.03C131.026 149.391 131.232 149.8 131.612 149.861C132.438 149.995 133.281 150.024 134.115 149.949ZM135.419 149.892C136.098 149.947 136.844 149.985 137.393 149.581C137.155 148.657 136.917 147.733 136.679 146.808C136.625 146.6 136.554 146.368 136.363 146.269C136.222 146.197 136.054 146.217 135.897 146.238C135.224 146.332 134.551 146.425 133.878 146.519C134.038 147.497 134.31 148.458 134.686 149.375C134.744 149.516 134.809 149.662 134.929 149.755C135.066 149.86 135.248 149.878 135.419 149.892ZM195.952 136.733C196.471 135.67 196.99 134.606 197.509 133.543C197.563 133.431 197.619 133.311 197.6 133.188C197.58 133.069 197.493 132.973 197.41 132.885C196.671 132.105 195.933 131.326 195.194 130.546C194.887 130.965 194.923 131.533 194.972 132.05C195.132 133.745 195.293 135.44 195.454 137.135C195.68 137.185 195.851 136.941 195.952 136.733ZM136.165 139.558C136.068 139.551 135.958 139.549 135.89 139.619C135.814 139.697 135.831 139.823 135.853 139.93C135.999 140.633 136.146 141.337 136.292 142.041C136.346 142.302 136.41 142.581 136.607 142.76C137.245 143.341 138.474 142.342 139.067 142.968C139.171 141.969 139.096 140.951 138.847 139.978C138.829 139.91 138.808 139.837 138.756 139.79C138.695 139.736 138.607 139.727 138.525 139.722C137.739 139.667 136.952 139.612 136.165 139.558ZM121.49 144.777C121.405 144.789 121.316 144.802 121.246 144.851C121.091 144.961 121.097 145.189 121.119 145.378C121.179 145.881 121.244 146.402 121.508 146.835C121.771 147.268 122.293 147.589 122.783 147.458C123.485 147.27 124.188 147.082 124.89 146.894C124.86 146.223 124.724 145.558 124.489 144.929C124.431 144.772 124.357 144.607 124.212 144.522C124.062 144.434 123.875 144.454 123.702 144.478C122.965 144.578 122.227 144.677 121.49 144.777ZM137.875 138.895C138.087 138.863 138.312 138.825 138.469 138.68C138.937 138.248 138.402 137.371 138.782 136.86C138.93 136.661 138.567 136.482 138.318 136.493C137.209 136.54 136.099 136.586 134.989 136.633C135.032 137.091 135.112 137.546 135.228 137.992C135.357 138.489 135.842 138.829 136.344 138.939C136.845 139.049 137.367 138.972 137.875 138.895ZM128.906 144.863C128.763 144.178 127.844 144.017 127.155 144.146C126.466 144.274 125.696 144.523 125.11 144.138C125.147 144.861 125.316 145.578 125.607 146.242C125.668 146.381 125.742 146.527 125.875 146.602C126.024 146.686 126.21 146.659 126.379 146.63C127.058 146.513 127.738 146.396 128.417 146.279C128.754 146.221 129.198 145.954 129.021 145.663C128.88 145.43 128.962 145.129 128.906 144.863ZM124.708 147.677C124.153 147.77 123.598 147.864 123.043 147.958C122.742 148.009 122.372 148.129 122.34 148.432C122.259 149.197 123.022 149.814 123.778 149.967C124.533 150.119 125.317 149.97 126.084 150.046C126.053 149.395 125.916 148.75 125.682 148.142C125.626 147.997 125.56 147.848 125.437 147.754C125.238 147.6 124.957 147.635 124.708 147.677ZM139.34 146.192C138.603 146.114 137.854 146.153 137.129 146.307C137.53 147.259 137.814 148.26 137.974 149.28C138.048 149.748 138.717 149.757 139.176 149.64C139.348 149.597 139.535 149.542 139.632 149.395C139.717 149.269 139.713 149.105 139.706 148.953C139.666 148.113 139.627 147.273 139.587 146.432C139.585 146.379 139.581 146.323 139.551 146.28C139.506 146.215 139.418 146.2 139.34 146.192ZM127.309 153.719C128.004 153.027 127.648 151.629 126.706 151.353C125.765 151.076 124.707 152.058 124.916 153.016C125.131 154.006 126.591 154.435 127.309 153.719ZM132.77 145.604C133.212 145.028 132.55 144.178 131.834 144.052C131.119 143.927 130.393 144.201 129.666 144.19C129.399 144.186 129.388 144.589 129.475 144.841C129.587 145.168 129.7 145.495 129.812 145.822C129.858 145.956 129.942 146.117 130.083 146.108C130.601 146.076 131.119 146.043 131.637 146.011C132.051 145.985 132.518 145.932 132.77 145.604ZM139.931 151.164C139.878 151.019 139.799 150.878 139.674 150.787C139.562 150.706 139.422 150.671 139.285 150.655C138.197 150.524 137.142 151.607 137.302 152.689C137.765 153.238 138.637 153.389 139.258 153.029C139.88 152.668 140.18 151.838 139.931 151.164ZM133.219 144.624C133.195 145.1 133.614 145.506 134.074 145.634C134.533 145.763 135.022 145.68 135.491 145.596C135.732 145.553 136.001 145.491 136.127 145.282C136.396 144.837 135.863 144.02 136.355 143.849C136.025 143.803 135.694 143.758 135.364 143.713C134.928 143.653 134.478 143.594 134.054 143.715C133.631 143.835 133.241 144.185 133.219 144.624ZM137.165 145.233C137.665 145.667 138.502 145.607 138.967 145.135C139.432 144.664 139.493 143.864 139.142 143.302C138.267 143.465 137.391 143.627 136.516 143.789C136.626 144.315 136.759 144.88 137.165 145.233ZM204.81 136.879C204.128 137.131 203.446 137.383 202.764 137.635C202.426 137.761 202.083 137.888 201.789 138.098C202.904 138.533 204.311 137.965 204.81 136.879ZM141.448 82.8617C141.43 82.561 141.112 82.3154 140.816 82.3741C140.835 82.6799 141.14 82.9372 141.446 82.9043L141.448 82.8617Z" fill="#363939"/>
</svg>
