<svg width="308" height="222" viewBox="0 0 308 222" fill="none" xmlns="http://www.w3.org/2000/svg">
<path d="M126.829 40.6769L24.4836 221.039H288.35L191.266 40.6769H126.829Z" fill="#A0D195"/>
<path d="M212.684 119.98C214.093 117.126 214.833 113.989 214.851 110.807C214.868 107.624 214.162 104.479 212.785 101.61C211.408 98.7407 209.397 96.2221 206.904 94.2446C204.411 92.2671 201.5 90.8825 198.393 90.1955C197.055 89.9024 195.834 89.219 194.884 88.2317V88.2157C193.065 86.3129 192.753 84.6063 190.173 79.4349C189.896 78.8757 189.665 78.4257 189.53 78.1686L168.034 86.5058L173.86 104.321C172.662 108.083 172.549 112.106 173.533 115.93C174.518 119.753 176.56 123.221 179.426 125.936C182.292 128.651 185.865 130.503 189.736 131.279C193.606 132.055 197.617 131.723 201.308 130.323C201.485 132.087 202.148 133.768 203.223 135.177C204.299 136.587 205.745 137.67 207.4 138.305C209.055 138.941 210.854 139.104 212.597 138.777C214.339 138.45 215.956 137.645 217.268 136.453C218.58 135.26 219.535 133.726 220.026 132.022C220.518 130.319 220.526 128.512 220.051 126.804C219.575 125.096 218.635 123.553 217.334 122.348C216.034 121.143 214.424 120.323 212.684 119.98Z" fill="black"/>
<path d="M149.437 130.827C155.23 130.827 159.926 126.131 159.926 120.337C159.926 114.543 155.23 109.846 149.437 109.846C143.644 109.846 138.947 114.543 138.947 120.337C138.947 126.131 143.644 130.827 149.437 130.827Z" fill="black"/>
<path d="M183.173 92.6287C183.183 90.7835 182.466 89.0087 181.177 87.6884C179.888 86.3681 178.131 85.6085 176.287 85.5739L175.853 80.8492C175.725 79.3509 175.304 77.8924 174.612 76.5574C173.92 75.2224 172.971 74.0371 171.82 73.0694C170.669 72.1018 169.339 71.3707 167.905 70.9182C166.471 70.4657 164.962 70.3007 163.464 70.4325L146.062 72.0556C143.784 72.2816 141.688 73.4019 140.235 75.1708C138.781 76.9397 138.088 79.2129 138.308 81.492L140.236 102.75C140.388 104.535 140.891 106.272 141.715 107.862C142.54 109.453 143.67 110.865 145.041 112.018C146.412 113.17 147.998 114.041 149.706 114.58C151.414 115.119 153.212 115.316 154.996 115.159L155.803 115.082L156.892 126.865L179.88 124.724L178.594 110.769H178.575L177.553 99.5485C179.144 99.2207 180.573 98.3526 181.597 97.0914C182.622 95.8302 183.179 94.2536 183.173 92.6287Z" fill="white"/>
<path d="M176.116 95.9905C175.577 95.9905 175.049 95.8305 174.601 95.5306C174.152 95.2308 173.802 94.8046 173.596 94.306C173.389 93.8074 173.335 93.2588 173.44 92.7294C173.546 92.2001 173.806 91.7139 174.187 91.3323C174.569 90.9507 175.055 90.6908 175.584 90.5855C176.113 90.4802 176.662 90.5342 177.161 90.7408C177.659 90.9473 178.085 91.2971 178.385 91.7458C178.685 92.1945 178.845 92.7221 178.845 93.2618C178.844 93.9852 178.556 94.6788 178.045 95.1903C177.533 95.7019 176.84 95.9897 176.116 95.9905ZM176.116 91.8123C175.831 91.8123 175.552 91.8969 175.315 92.0555C175.077 92.214 174.893 92.4394 174.783 92.7031C174.674 92.9668 174.646 93.257 174.701 93.5369C174.757 93.8168 174.894 94.074 175.096 94.2758C175.298 94.4776 175.555 94.6151 175.835 94.6707C176.115 94.7264 176.405 94.6978 176.669 94.5886C176.932 94.4794 177.158 94.2944 177.316 94.0571C177.475 93.8198 177.559 93.5408 177.559 93.2554C177.557 92.874 177.404 92.5091 177.134 92.24C176.863 91.971 176.498 91.8195 176.116 91.8187V91.8123Z" fill="#363939"/>
<path d="M155.755 115.101L169.442 113.401C169.53 113.39 169.619 113.411 169.693 113.459C169.767 113.508 169.821 113.582 169.846 113.667C169.871 113.752 169.865 113.843 169.828 113.924C169.792 114.005 169.727 114.07 169.647 114.108L156.25 120.51L155.755 115.101Z" fill="black"/>
<path d="M174.105 94.4478C173.954 94.4506 173.807 94.4004 173.689 94.3058C173.572 94.2112 173.491 94.0783 173.462 93.9303C173.314 93.2011 173.361 92.446 173.596 91.7404C173.832 91.0348 174.249 90.4035 174.805 89.9095C175.342 89.4561 175.981 89.1381 176.666 88.982C177.352 88.826 178.065 88.8366 178.745 89.0128C178.909 89.0586 179.048 89.1675 179.132 89.3157C179.216 89.464 179.237 89.6394 179.192 89.8035C179.146 89.9675 179.037 90.1066 178.889 90.1904C178.741 90.2741 178.565 90.2956 178.401 90.2502C177.928 90.1313 177.434 90.1252 176.959 90.2324C176.483 90.3396 176.039 90.5571 175.663 90.8673C175.276 91.2113 174.986 91.651 174.823 92.1423C174.659 92.6337 174.628 93.1594 174.731 93.6667C174.748 93.7497 174.748 93.8352 174.732 93.9182C174.716 94.0013 174.683 94.0803 174.637 94.1508C174.59 94.2213 174.529 94.2818 174.459 94.3289C174.389 94.376 174.31 94.4087 174.227 94.4253C174.187 94.4358 174.146 94.4433 174.105 94.4478Z" fill="#363939"/>
<path d="M142.408 94.7628C143.159 94.7628 143.768 94.1541 143.768 93.4032C143.768 92.6524 143.159 92.0437 142.408 92.0437C141.658 92.0437 141.049 92.6524 141.049 93.4032C141.049 94.1541 141.658 94.7628 142.408 94.7628Z" fill="#363939"/>
<path d="M156.912 93.0819C157.662 93.0819 158.271 92.4732 158.271 91.7223C158.271 90.9715 157.662 90.3628 156.912 90.3628C156.161 90.3628 155.552 90.9715 155.552 91.7223C155.552 92.4732 156.161 93.0819 156.912 93.0819Z" fill="#363939"/>
<path d="M148.299 98.8252C148.248 98.8253 148.197 98.8189 148.148 98.8059C147.123 98.5585 146.062 98.1856 145.989 97.3275C145.981 97.0019 146.102 96.6866 146.326 96.4501C146.39 96.3665 146.464 96.2701 146.544 96.1447C146.845 95.6635 146.997 95.1046 146.982 94.5377L146.953 88.611C146.953 88.4405 147.02 88.277 147.141 88.1565C147.261 88.0359 147.425 87.9682 147.595 87.9682C147.766 87.9682 147.929 88.0359 148.05 88.1565C148.17 88.277 148.238 88.4405 148.238 88.611L148.267 94.5377C148.276 95.3432 148.053 96.1342 147.624 96.8165C147.521 96.9739 147.438 97.0897 147.364 97.1861C147.705 97.3519 148.066 97.4739 148.437 97.5493C148.592 97.5845 148.728 97.6758 148.82 97.8055C148.911 97.9353 148.952 98.0943 148.933 98.252C148.914 98.4097 148.838 98.5548 148.718 98.6595C148.599 98.7641 148.445 98.8209 148.286 98.8188L148.299 98.8252Z" fill="#363939"/>
<path d="M150.51 104.485C149.641 104.473 148.786 104.271 148.003 103.894C147.852 103.816 147.737 103.681 147.685 103.518C147.633 103.356 147.647 103.179 147.725 103.028C147.803 102.876 147.938 102.761 148.101 102.709C148.263 102.657 148.44 102.672 148.592 102.75C148.611 102.75 150.092 103.502 151.429 103.071C151.794 102.939 152.128 102.733 152.411 102.467C152.694 102.202 152.92 101.881 153.075 101.525C153.109 101.445 153.16 101.372 153.224 101.313C153.287 101.253 153.363 101.206 153.445 101.176C153.527 101.146 153.614 101.134 153.702 101.139C153.789 101.144 153.874 101.167 153.953 101.206C154.031 101.245 154.1 101.3 154.156 101.367C154.213 101.434 154.255 101.511 154.28 101.595C154.305 101.679 154.313 101.767 154.303 101.854C154.293 101.941 154.265 102.025 154.222 102.1C153.994 102.611 153.663 103.07 153.25 103.448C152.837 103.825 152.35 104.114 151.821 104.296C151.397 104.427 150.954 104.491 150.51 104.485Z" fill="#363939"/>
<path d="M179.234 117.983L155.976 120.129L156.963 130.834L180.221 128.689L179.234 117.983Z" fill="#D9D7F1"/>
<path d="M146.393 72.872C148.437 72.7113 150.388 74.3922 151.535 75.8868C153.463 78.4066 154.277 81.4792 155.761 84.2433C158.708 89.7071 165.884 90.3917 171.113 88.1162L190.812 80.7657C190.324 79.194 187.798 70.3072 178.765 66.0068C174.585 64.0516 169.922 63.3676 165.357 64.0398L148.778 64.9076C146.848 64.9943 144.97 65.561 143.315 66.5564C140.316 68.4045 137.038 72.3417 138.199 80.6564C138.463 78.6122 139.423 76.7214 140.918 75.3025C142.413 73.8835 144.351 73.0229 146.406 72.8656L146.393 72.872Z" fill="black"/>
<path d="M139.606 127.986C139.606 127.986 132.151 129.031 127.253 143.998C126.041 147.701 124.756 151.365 123.271 154.978L113.222 177.778L120.54 209.24L136.945 198.57L131.466 184.399C128.387 177.007 127.481 168.676 129.805 161.02L139.606 127.986Z" fill="white"/>
<path d="M203.882 188.802L135.602 196.802C132.539 189.207 131.951 188.51 128.892 180.921C126.389 174.72 126.064 167.852 127.97 161.441L137.524 129.413C137.734 128.702 138.162 128.075 138.748 127.62C139.334 127.166 140.048 126.907 140.789 126.881L201.025 124.589C202.494 150.96 202.43 162.431 203.882 188.802Z" fill="#D9D7F1"/>
<mask id="mask0_415_1019" style="mask-type:luminance" maskUnits="userSpaceOnUse" x="126" y="124" width="79" height="73">
<path d="M204.046 188.767L135.762 196.767C132.703 189.172 132.115 188.474 129.056 180.883C126.555 174.68 126.234 167.812 128.146 161.403C131.33 150.725 134.513 140.05 137.697 129.375C137.91 128.664 138.339 128.038 138.925 127.584C139.511 127.13 140.225 126.871 140.965 126.842L201.202 124.55C202.655 150.922 202.593 162.392 204.046 188.767Z" fill="white"/>
</mask>
<g mask="url(#mask0_415_1019)">
<path d="M130.1 103.974C132.234 105.195 133.484 107.426 134.599 109.528C135.89 111.943 137.021 114.44 137.983 117.004C139.909 122.118 141.147 127.466 141.663 132.907C142.17 138.231 141.914 143.6 140.904 148.852C139.945 153.782 138.309 158.556 136.042 163.038C133.776 167.535 130.858 171.674 127.384 175.319C126.956 175.776 126.51 176.223 126.048 176.663C125.154 177.527 126.517 178.89 127.41 178.025C131.156 174.384 134.338 170.205 136.852 165.626C139.381 161.048 141.259 156.14 142.431 151.044C143.648 145.683 144.09 140.176 143.745 134.691C143.391 129.018 142.27 123.42 140.413 118.048C139.474 115.324 138.356 112.664 137.067 110.087C135.907 107.767 134.667 105.282 132.716 103.518C132.218 103.062 131.672 102.662 131.087 102.325C130.007 101.708 129.036 103.373 130.122 103.99L130.1 103.974Z" fill="white"/>
<path d="M178.517 215.646C178.276 208.345 179.693 201.085 182.659 194.411C185.604 187.702 190.003 181.731 195.536 176.93C198.429 174.445 201.745 171.964 205.556 171.209C207.246 170.865 208.998 171.006 210.611 171.614C211.273 171.885 211.905 172.223 212.498 172.623C213.095 173.032 213.649 173.5 214.153 174.021C216.374 176.271 217.861 179.292 218.922 182.249C220.336 186.208 221.268 190.384 222.02 194.514C223.615 203.279 224.021 212.22 223.225 221.094C223.126 222.206 223.009 223.316 222.872 224.423C222.807 224.941 223.36 225.388 223.836 225.388C224.09 225.382 224.331 225.278 224.511 225.099C224.691 224.919 224.794 224.677 224.8 224.423C225.92 215.206 225.765 205.877 224.337 196.702C223.663 192.254 222.674 187.859 221.377 183.55C220.358 180.201 218.951 176.901 216.791 174.124C214.68 171.401 211.752 169.425 208.259 169.123C204.02 168.759 200.016 171.029 196.748 173.487C190.641 178.112 185.666 184.066 182.2 190.898C178.697 197.715 176.773 205.233 176.569 212.895C176.547 213.811 176.569 214.723 176.589 215.639C176.63 216.877 178.559 216.883 178.517 215.639V215.646Z" fill="white"/>
<path d="M143.199 199.302C142.302 194.083 142.322 188.747 143.257 183.534C144.108 178.787 145.641 174.075 148.167 169.945C149.302 168.061 150.693 166.344 152.3 164.842C153.077 164.127 153.916 163.482 154.806 162.913C155.637 162.375 156.518 161.918 157.435 161.547C159.256 160.835 161.201 160.492 163.155 160.538C165.007 160.56 166.832 160.973 168.513 161.75C170.258 162.561 171.729 163.861 172.748 165.494C173.941 167.439 174.413 169.82 173.712 171.961C173.403 172.895 172.877 173.744 172.176 174.435C171.495 175.104 170.547 175.721 169.544 175.808C169.126 175.838 168.707 175.77 168.32 175.608C167.934 175.447 167.59 175.197 167.317 174.879C166.674 174.181 166.203 173.342 165.942 172.43C164.502 167.689 166.549 162.508 168.988 158.478C171.379 154.595 174.451 151.176 178.057 148.386C181.82 145.472 186.015 143.164 190.491 141.546C195.44 139.763 200.595 138.611 205.833 138.117C207.118 137.988 208.404 137.892 209.689 137.828C209.943 137.821 210.184 137.717 210.364 137.538C210.543 137.359 210.647 137.117 210.653 136.863C210.653 136.608 210.552 136.362 210.371 136.182C210.19 136.001 209.945 135.899 209.689 135.899C204.063 136.143 198.486 137.066 193.081 138.647C188.018 140.135 183.222 142.413 178.87 145.397C174.786 148.21 171.242 151.735 168.407 155.804C165.466 160.091 163.03 165.427 163.65 170.749C163.927 173.131 164.791 175.625 166.864 177.016C169.081 178.495 171.871 177.473 173.597 175.731C174.459 174.834 175.113 173.758 175.511 172.58C175.91 171.402 176.043 170.15 175.901 168.914C175.597 166.378 174.421 164.028 172.575 162.264C169.47 159.278 164.92 158.217 160.726 158.764C156.066 159.371 152.027 161.943 149.015 165.494C145.802 169.296 143.713 173.947 142.373 178.717C140.831 184.21 140.287 189.936 140.766 195.622C140.885 197.033 141.087 198.444 141.312 199.842C141.381 200.089 141.544 200.298 141.766 200.424C141.989 200.55 142.252 200.582 142.498 200.514C142.742 200.442 142.949 200.278 143.075 200.057C143.201 199.836 143.236 199.575 143.173 199.328L143.199 199.302Z" fill="white"/>
</g>
<path d="M239.428 185.833H239.464L234.576 174.455L224.292 150.494C222.812 147.049 221.331 143.601 219.851 140.151C217.833 135.456 216.187 130.374 211.932 127.173C206.469 123.069 198.21 122.224 192.58 126.463C187.788 130.069 186.474 136.619 186.561 142.321C186.676 148.784 188.81 155.071 191.619 160.824C194.511 166.751 196.889 172.922 199.547 178.961L203.885 188.815L138.812 196.426C136.653 196.677 134.546 197.259 132.565 198.152C129.833 199.388 127.055 200.717 124.229 202.137C122.573 202.969 120.955 203.806 119.376 204.651L123.461 221.042H216.284C234.534 221.042 246.592 202.324 239.428 185.833Z" fill="white"/>
<path d="M266.973 171.806H245.12C244.087 171.805 243.097 171.395 242.367 170.664C241.636 169.934 241.226 168.944 241.225 167.911V146.036C241.226 145.003 241.636 144.013 242.367 143.283C243.097 142.552 244.087 142.142 245.12 142.141H266.973C268.005 142.142 268.996 142.552 269.726 143.283C270.456 144.013 270.867 145.003 270.868 146.036V167.911C270.867 168.944 270.456 169.934 269.726 170.664C268.996 171.395 268.005 171.805 266.973 171.806ZM245.12 143.426C244.428 143.427 243.765 143.702 243.276 144.192C242.786 144.681 242.511 145.344 242.51 146.036V167.911C242.511 168.603 242.786 169.266 243.276 169.755C243.765 170.245 244.428 170.52 245.12 170.521H266.973C267.664 170.52 268.328 170.245 268.817 169.755C269.306 169.266 269.581 168.603 269.582 167.911V146.036C269.581 145.344 269.306 144.681 268.817 144.192C268.328 143.702 267.664 143.427 266.973 143.426H245.12Z" fill="#363939"/>
<path d="M251.165 154.579C250.501 154.579 249.853 154.382 249.301 154.014C248.749 153.645 248.319 153.121 248.065 152.508C247.811 151.895 247.745 151.22 247.874 150.569C248.004 149.918 248.323 149.32 248.792 148.851C249.262 148.382 249.859 148.062 250.51 147.933C251.161 147.803 251.836 147.87 252.449 148.124C253.062 148.378 253.586 148.808 253.954 149.36C254.323 149.911 254.52 150.56 254.52 151.224C254.519 152.113 254.165 152.966 253.536 153.596C252.907 154.225 252.054 154.578 251.165 154.579ZM251.165 149.154C250.755 149.154 250.355 149.275 250.015 149.503C249.675 149.73 249.409 150.053 249.253 150.432C249.096 150.81 249.055 151.226 249.135 151.628C249.215 152.029 249.412 152.398 249.701 152.687C249.991 152.977 250.36 153.174 250.761 153.254C251.162 153.334 251.579 153.293 251.957 153.136C252.335 152.979 252.658 152.714 252.886 152.374C253.113 152.033 253.234 151.633 253.234 151.224C253.231 150.677 253.012 150.153 252.624 149.767C252.236 149.381 251.712 149.164 251.165 149.164V149.154Z" fill="#363939"/>
<path d="M260.912 164.989C260.248 164.989 259.598 164.792 259.046 164.423C258.494 164.053 258.064 163.528 257.811 162.914C257.557 162.3 257.492 161.625 257.622 160.973C257.753 160.322 258.074 159.724 258.545 159.256C259.016 158.787 259.615 158.469 260.267 158.341C260.919 158.213 261.594 158.282 262.207 158.539C262.82 158.795 263.343 159.228 263.709 159.781C264.076 160.335 264.27 160.986 264.267 161.65C264.262 162.537 263.906 163.386 263.278 164.011C262.649 164.637 261.799 164.989 260.912 164.989ZM260.912 159.564C260.502 159.564 260.102 159.686 259.762 159.913C259.422 160.14 259.156 160.464 259 160.842C258.843 161.22 258.802 161.636 258.882 162.038C258.962 162.439 259.159 162.808 259.448 163.098C259.738 163.387 260.107 163.584 260.508 163.664C260.909 163.744 261.326 163.703 261.704 163.546C262.082 163.39 262.405 163.124 262.633 162.784C262.86 162.444 262.981 162.043 262.981 161.634C262.981 161.085 262.762 160.559 262.374 160.171C261.986 159.783 261.46 159.565 260.912 159.564Z" fill="#363939"/>
<path d="M249.629 166.982C249.515 166.981 249.404 166.949 249.307 166.889C249.162 166.801 249.057 166.659 249.016 166.494C248.975 166.329 249.001 166.154 249.089 166.008L260.372 147.274C260.416 147.201 260.473 147.138 260.541 147.088C260.609 147.038 260.686 147.002 260.769 146.981C260.851 146.961 260.936 146.957 261.019 146.97C261.103 146.982 261.183 147.011 261.256 147.055C261.328 147.099 261.391 147.156 261.441 147.224C261.491 147.292 261.528 147.37 261.548 147.452C261.568 147.534 261.572 147.619 261.56 147.703C261.547 147.786 261.518 147.867 261.474 147.939L250.191 166.67C250.133 166.767 250.05 166.847 249.952 166.902C249.853 166.956 249.742 166.984 249.629 166.982Z" fill="#363939"/>
<path d="M301.828 125.788H232.384C230.85 125.788 229.379 125.178 228.294 124.093C227.209 123.008 226.6 121.537 226.6 120.003V65.7497C226.6 64.2153 227.209 62.7438 228.294 61.6589C229.379 60.5739 230.85 59.9644 232.384 59.9644H301.828C303.362 59.9644 304.833 60.5739 305.918 61.6589C307.003 62.7438 307.613 64.2153 307.613 65.7497V120.009C307.611 121.542 307.001 123.012 305.916 124.096C304.831 125.179 303.361 125.788 301.828 125.788ZM232.384 61.2564C231.191 61.2564 230.047 61.7305 229.203 62.5743C228.359 63.4182 227.885 64.5627 227.885 65.7561V120.009C227.885 121.202 228.359 122.347 229.203 123.191C230.047 124.035 231.191 124.509 232.384 124.509H301.828C303.021 124.509 304.166 124.035 305.009 123.191C305.853 122.347 306.327 121.202 306.327 120.009V65.7497C306.327 64.5563 305.853 63.4118 305.009 62.5679C304.166 61.7241 303.021 61.25 301.828 61.25L232.384 61.2564Z" fill="#363939"/>
<path d="M263.842 72.6758H239.033C237.429 72.6758 236.128 73.9766 236.128 75.5813V113.433C236.128 115.038 237.429 116.338 239.033 116.338H263.842C265.447 116.338 266.748 115.038 266.748 113.433V75.5813C266.748 73.9766 265.447 72.6758 263.842 72.6758Z" fill="#A0D195"/>
<path d="M284.182 74.0258H277.719C276.828 74.0258 276.106 74.7482 276.106 75.6393V82.1027C276.106 82.9938 276.828 83.7161 277.719 83.7161H284.182C285.073 83.7161 285.795 82.9938 285.795 82.1027V75.6393C285.795 74.7482 285.073 74.0258 284.182 74.0258Z" fill="#FEDCD7"/>
<path d="M298.364 74.0258H291.901C291.01 74.0258 290.288 74.7482 290.288 75.6393V82.1027C290.288 82.9938 291.01 83.7161 291.901 83.7161H298.364C299.255 83.7161 299.977 82.9938 299.977 82.1027V75.6393C299.977 74.7482 299.255 74.0258 298.364 74.0258Z" fill="#FEDCD7"/>
<path d="M299.974 91.6997H276.723C276.552 91.6997 276.389 91.632 276.268 91.5115C276.148 91.3909 276.08 91.2274 276.08 91.0569C276.08 90.8864 276.148 90.723 276.268 90.6024C276.389 90.4819 276.552 90.4141 276.723 90.4141H299.974C300.144 90.4141 300.308 90.4819 300.428 90.6024C300.549 90.723 300.616 90.8864 300.616 91.0569C300.616 91.2274 300.549 91.3909 300.428 91.5115C300.308 91.632 300.144 91.6997 299.974 91.6997Z" fill="#363939"/>
<path d="M299.974 98.2403H276.723C276.552 98.2403 276.389 98.1726 276.268 98.052C276.148 97.9315 276.08 97.768 276.08 97.5975C276.08 97.427 276.148 97.2635 276.268 97.143C276.389 97.0224 276.552 96.9547 276.723 96.9547H299.974C300.144 96.9547 300.308 97.0224 300.428 97.143C300.549 97.2635 300.616 97.427 300.616 97.5975C300.616 97.768 300.549 97.9315 300.428 98.052C300.308 98.1726 300.144 98.2403 299.974 98.2403Z" fill="#363939"/>
<path d="M293.019 105.228H276.723C276.552 105.228 276.389 105.16 276.268 105.039C276.148 104.919 276.08 104.755 276.08 104.585C276.08 104.414 276.148 104.251 276.268 104.13C276.389 104.01 276.552 103.942 276.723 103.942H293.019C293.19 103.942 293.353 104.01 293.474 104.13C293.594 104.251 293.662 104.414 293.662 104.585C293.662 104.755 293.594 104.919 293.474 105.039C293.353 105.16 293.19 105.228 293.019 105.228Z" fill="#363939"/>
<path d="M255.156 85.3681V86.9751C255.156 87.7806 254.843 88.5545 254.284 89.1342C253.725 89.7138 252.963 90.054 252.158 90.0831C251.968 90.0831 251.785 90.0831 251.602 90.0831C250.775 90.0572 249.991 89.71 249.416 89.1153C248.842 88.5206 248.521 87.7252 248.523 86.898V85.3713C248.523 84.8838 248.33 84.4161 247.985 84.0714C247.64 83.7266 247.173 83.5329 246.685 83.5329C246.197 83.5329 245.73 83.7266 245.385 84.0714C245.04 84.4161 244.847 84.8838 244.847 85.3713V102.062C244.847 102.37 244.907 102.675 245.025 102.96C245.143 103.244 245.316 103.503 245.534 103.721C245.752 103.939 246.01 104.112 246.295 104.229C246.58 104.347 246.885 104.408 247.193 104.408H256.487C256.795 104.408 257.1 104.347 257.384 104.229C257.669 104.112 257.928 103.939 258.145 103.721C258.363 103.503 258.536 103.244 258.654 102.96C258.772 102.675 258.833 102.37 258.833 102.062V85.3681C258.833 84.8805 258.639 84.4129 258.294 84.0682C257.949 83.7234 257.482 83.5297 256.994 83.5297C256.507 83.5297 256.039 83.7234 255.695 84.0682C255.35 84.4129 255.156 84.8805 255.156 85.3681Z" fill="white"/>
<path d="M216.666 182.712C216.666 181.159 211.164 179.899 204.374 179.899C197.583 179.899 192.082 181.159 192.082 182.712L190.761 196.583C193.84 196.082 198.152 196.05 201.957 198.415C203.314 199.284 204.811 199.91 206.382 200.264C209.027 200.82 213.009 200.951 217.801 198.92L216.666 182.712Z" fill="white"/>
<path d="M209.85 201.26C208.64 201.261 207.433 201.138 206.248 200.893C204.606 200.522 203.04 199.87 201.62 198.965C197.924 196.677 193.731 196.754 190.864 197.22L190.041 197.355L191.442 182.68C191.513 179.977 199.92 179.26 204.374 179.26C208.828 179.26 217.254 179.97 217.309 182.686L218.472 199.335L218.048 199.511C215.462 200.642 212.673 201.237 209.85 201.26ZM194.039 195.667C196.944 195.616 199.805 196.378 202.298 197.869C203.589 198.697 205.015 199.294 206.511 199.634C208.864 200.129 212.588 200.321 217.116 198.502L216.024 182.712C216.024 182.191 212.521 180.542 204.374 180.542C196.228 180.542 192.725 182.191 192.725 182.712V182.773L191.478 195.831C192.327 195.723 193.183 195.669 194.039 195.667Z" fill="#363939"/>
<path d="M218.649 197.782C213.549 199.814 209.307 199.682 206.492 199.126C204.833 198.773 203.243 198.148 201.787 197.278C197.715 194.909 193.142 194.944 189.864 195.443L188.524 208.643C188.353 210.324 188.536 212.022 189.062 213.628C189.588 215.234 190.445 216.712 191.578 217.966C192.711 219.22 194.094 220.222 195.638 220.908C197.183 221.594 198.854 221.949 200.543 221.949H207.43C209.092 221.949 210.737 221.606 212.26 220.942C213.784 220.277 215.154 219.306 216.285 218.088C217.416 216.869 218.284 215.431 218.834 213.862C219.384 212.294 219.604 210.628 219.481 208.97L218.649 197.782Z" fill="#FFC257"/>
<path d="M203.397 213.608H203.339C203.17 213.593 203.013 213.511 202.904 213.38C202.795 213.249 202.742 213.08 202.757 212.911L206.758 168.621C206.816 167.948 207.124 167.322 207.623 166.866C208.121 166.411 208.773 166.159 209.448 166.163H218.967C219.138 166.163 219.301 166.23 219.422 166.351C219.542 166.471 219.61 166.635 219.61 166.805C219.61 166.976 219.542 167.139 219.422 167.26C219.301 167.381 219.138 167.448 218.967 167.448H209.448C209.095 167.448 208.754 167.579 208.493 167.817C208.232 168.055 208.07 168.382 208.037 168.734L204.036 213.023C204.022 213.183 203.948 213.332 203.83 213.44C203.712 213.548 203.557 213.608 203.397 213.608Z" fill="#363939"/>
<path d="M204.348 186.077C203.979 186.077 203.609 186.077 203.243 186.057C199.287 185.908 195.4 184.969 191.812 183.296C191.735 183.261 191.666 183.21 191.609 183.148C191.552 183.086 191.508 183.013 191.479 182.934C191.45 182.854 191.437 182.77 191.441 182.685C191.444 182.601 191.464 182.518 191.5 182.442C191.536 182.365 191.586 182.296 191.648 182.239C191.711 182.182 191.784 182.138 191.863 182.109C191.942 182.08 192.027 182.067 192.111 182.07C192.195 182.074 192.278 182.094 192.355 182.13C195.785 183.73 199.5 184.628 203.281 184.772C207.797 184.934 212.287 184.029 216.387 182.13C216.463 182.094 216.546 182.073 216.631 182.069C216.716 182.065 216.8 182.078 216.88 182.107C216.96 182.136 217.033 182.181 217.095 182.238C217.158 182.295 217.208 182.364 217.244 182.441C217.279 182.518 217.299 182.602 217.303 182.686C217.306 182.771 217.293 182.855 217.263 182.935C217.234 183.014 217.189 183.087 217.131 183.149C217.073 183.211 217.004 183.261 216.927 183.296C212.983 185.12 208.692 186.068 204.348 186.077Z" fill="#363939"/>
<path d="M163.721 127.115C163.557 127.116 163.399 127.053 163.28 126.941C163.16 126.829 163.088 126.675 163.079 126.511L162.699 119.974C162.69 119.803 162.748 119.636 162.861 119.508C162.975 119.381 163.135 119.304 163.305 119.294C163.476 119.284 163.643 119.342 163.77 119.456C163.898 119.57 163.975 119.729 163.985 119.9L164.364 126.434C164.369 126.518 164.358 126.603 164.33 126.683C164.303 126.763 164.259 126.837 164.203 126.9C164.147 126.963 164.079 127.015 164.003 127.052C163.927 127.089 163.844 127.11 163.76 127.115H163.721Z" fill="#363939"/>
<path d="M170.239 126.639C170.075 126.64 169.917 126.577 169.797 126.465C169.678 126.353 169.606 126.199 169.596 126.035L169.217 119.498C169.212 119.413 169.224 119.329 169.251 119.249C169.279 119.169 169.323 119.096 169.379 119.033C169.435 118.969 169.503 118.918 169.579 118.881C169.655 118.844 169.738 118.823 169.822 118.818C169.907 118.813 169.991 118.825 170.071 118.853C170.151 118.881 170.225 118.924 170.288 118.98C170.351 119.037 170.402 119.105 170.439 119.181C170.476 119.257 170.497 119.34 170.502 119.424L170.881 125.974C170.887 126.059 170.875 126.143 170.847 126.223C170.82 126.303 170.777 126.377 170.721 126.44C170.665 126.504 170.596 126.555 170.52 126.592C170.444 126.629 170.362 126.651 170.277 126.656L170.239 126.639Z" fill="#363939"/>
<path d="M103.671 127.932H35.4904C34.2972 127.932 33.1528 127.458 32.3091 126.614C31.4653 125.77 30.9913 124.625 30.9913 123.432V79.9075C30.9913 78.7141 31.4653 77.5696 32.3091 76.7257C33.1528 75.8819 34.2972 75.4078 35.4904 75.4078H103.671C104.864 75.4078 106.009 75.8819 106.853 76.7257C107.696 77.5696 108.17 78.7141 108.17 79.9075V123.422C108.172 124.014 108.056 124.6 107.831 125.147C107.605 125.694 107.274 126.191 106.856 126.61C106.438 127.029 105.942 127.361 105.395 127.588C104.849 127.815 104.263 127.932 103.671 127.932ZM35.4904 76.6838C34.6381 76.6838 33.8207 77.0224 33.218 77.6251C32.6154 78.2279 32.2768 79.0454 32.2768 79.8978V123.422C32.2768 124.275 32.6154 125.092 33.218 125.695C33.8207 126.298 34.6381 126.636 35.4904 126.636H103.671C104.524 126.636 105.341 126.298 105.944 125.695C106.546 125.092 106.885 124.275 106.885 123.422V79.9075C106.885 79.055 106.546 78.2375 105.944 77.6348C105.341 77.032 104.524 76.6934 103.671 76.6934L35.4904 76.6838Z" fill="#363939"/>
<path d="M97.5457 108.326H68.6679C67.2853 108.326 66.1644 109.447 66.1644 110.83V111.739C66.1644 113.122 67.2853 114.243 68.6679 114.243H97.5457C98.9283 114.243 100.049 113.122 100.049 111.739V110.83C100.049 109.447 98.9283 108.326 97.5457 108.326Z" fill="#FFC257"/>
<path d="M98.6352 93.3518H67.5785C67.4081 93.3518 67.2446 93.2841 67.124 93.1635C67.0035 93.043 66.9358 92.8795 66.9358 92.709C66.9358 92.5385 67.0035 92.375 67.124 92.2544C67.2446 92.1339 67.4081 92.0662 67.5785 92.0662H98.6352C98.8057 92.0662 98.9692 92.1339 99.0897 92.2544C99.2102 92.375 99.278 92.5385 99.278 92.709C99.278 92.8795 99.2102 93.043 99.0897 93.1635C98.9692 93.2841 98.8057 93.3518 98.6352 93.3518Z" fill="#363939"/>
<path d="M94.2616 100.381H67.5883C67.4178 100.381 67.2543 100.313 67.1338 100.193C67.0133 100.072 66.9456 99.9086 66.9456 99.7381C66.9456 99.5676 67.0133 99.4041 67.1338 99.2835C67.2543 99.163 67.4178 99.0953 67.5883 99.0953H94.2616C94.432 99.0953 94.5955 99.163 94.7161 99.2835C94.8366 99.4041 94.9043 99.5676 94.9043 99.7381C94.9043 99.9086 94.8366 100.072 94.7161 100.193C94.5955 100.313 94.432 100.381 94.2616 100.381Z" fill="#363939"/>
<path d="M45.4879 94.0459C45.3175 94.0459 45.154 93.9782 45.0334 93.8577C44.9129 93.7371 44.8452 93.5736 44.8452 93.4031C44.7906 91.1533 45.6293 89.7938 46.3427 89.0545C47.138 88.2203 48.2279 87.7301 49.3796 87.6886C50.5042 87.7077 51.5759 88.1696 52.3619 88.9742C53.0914 89.707 53.9687 91.0698 53.9302 93.3967C53.9302 93.5672 53.8625 93.7307 53.7419 93.8512C53.6214 93.9718 53.4579 94.0395 53.2874 94.0395C53.117 94.0395 52.9535 93.9718 52.833 93.8512C52.7124 93.7307 52.6447 93.5672 52.6447 93.3967C52.6672 91.5165 52.002 90.4559 51.4524 89.8966C50.9051 89.343 50.1673 89.0188 49.3893 88.9903C48.5826 89.0222 47.8203 89.3683 47.2651 89.9545C46.4874 90.758 46.0953 91.9407 46.1306 93.3774C46.1306 93.5479 46.0629 93.7114 45.9424 93.832C45.8219 93.9525 45.6584 94.0202 45.4879 94.0202V94.0459Z" fill="#363939"/>
<path d="M57.2404 115.046H41.6092C41.2261 115.047 40.8475 114.965 40.4986 114.807C40.1497 114.649 39.8387 114.418 39.5864 114.129C39.3341 113.841 39.1463 113.502 39.0357 113.135C38.9251 112.769 38.8942 112.382 38.9451 112.003L41.1239 95.7462C41.2111 95.1015 41.5291 94.5103 42.0191 94.0824C42.509 93.6544 43.1375 93.4188 43.788 93.4192H54.6984C55.3388 93.4184 55.9583 93.6467 56.4451 94.0629C56.9319 94.479 57.2539 95.0555 57.3528 95.6883L59.9013 111.945C59.9618 112.329 59.9382 112.721 59.8321 113.095C59.7261 113.469 59.5401 113.815 59.2871 114.11C59.034 114.405 58.72 114.642 58.3666 114.803C58.0132 114.965 57.6289 115.048 57.2404 115.046Z" fill="#FEDCD7"/>
<path d="M171.325 221.801H119.376V210.568H171.325C172.042 210.568 172.731 210.853 173.238 211.36C173.746 211.868 174.031 212.556 174.031 213.274V219.091C174.031 219.447 173.961 219.799 173.826 220.128C173.69 220.457 173.491 220.755 173.239 221.007C172.988 221.259 172.689 221.458 172.361 221.595C172.032 221.731 171.68 221.801 171.325 221.801Z" fill="#363939"/>
<path d="M125.241 221.801H64.3553C63.2204 221.811 62.1124 221.455 61.1963 220.785C60.2802 220.115 59.605 219.167 59.2713 218.082L44.3632 167.532C43.3991 164.257 45.9347 160.994 49.4472 160.994H106.869C108.053 160.981 109.208 161.368 110.145 162.094C111.081 162.82 111.744 163.842 112.027 164.993L125.241 221.801Z" fill="#363939"/>
<path d="M81.0213 204.628C85.6803 204.628 89.4571 200.851 89.4571 196.191C89.4571 191.532 85.6803 187.754 81.0213 187.754C76.3623 187.754 72.5854 191.532 72.5854 196.191C72.5854 200.851 76.3623 204.628 81.0213 204.628Z" fill="#FEDCD7"/>
<path d="M79.167 190.194C79.023 190.194 78.8833 190.145 78.7703 190.056C78.6572 189.967 78.5774 189.842 78.5436 189.702L77.5345 185.569C77.5144 185.487 77.5108 185.402 77.5236 185.318C77.5365 185.235 77.5657 185.154 77.6096 185.082C77.6982 184.936 77.8411 184.832 78.0069 184.791C78.1727 184.751 78.3477 184.778 78.4936 184.866C78.6394 184.955 78.7441 185.098 78.7846 185.264L79.7937 189.397C79.8138 189.479 79.8176 189.564 79.8047 189.648C79.7919 189.731 79.7627 189.812 79.7188 189.884C79.6749 189.956 79.6172 190.019 79.549 190.069C79.4808 190.119 79.4034 190.155 79.3213 190.175C79.2708 190.187 79.219 190.194 79.167 190.194Z" fill="#6DC8C2"/>
<path d="M288.35 221.685H33.5911C33.4206 221.685 33.2572 221.617 33.1366 221.497C33.0161 221.376 32.9484 221.213 32.9484 221.042C32.9484 220.872 33.0161 220.708 33.1366 220.588C33.2572 220.467 33.4206 220.399 33.5911 220.399H288.35C288.52 220.399 288.684 220.467 288.804 220.588C288.925 220.708 288.993 220.872 288.993 221.042C288.993 221.213 288.925 221.376 288.804 221.497C288.684 221.617 288.52 221.685 288.35 221.685Z" fill="#363939"/>
<path d="M159.045 49.0366C156.88 49.0398 154.763 48.4006 152.962 47.2C151.16 45.9995 149.755 44.2914 148.924 42.2919C148.094 40.2925 147.875 38.0916 148.295 35.9676C148.715 33.8437 149.756 31.8922 151.286 30.3601C152.816 28.8279 154.766 27.784 156.889 27.3605C159.012 26.9369 161.213 27.1527 163.213 27.9805C165.213 28.8083 166.923 30.211 168.126 32.0111C169.33 33.8111 169.972 35.9276 169.972 38.0928C169.968 40.9912 168.815 43.7699 166.768 45.8209C164.72 47.8719 161.943 49.0281 159.045 49.0366ZM159.045 28.4346C157.139 28.4346 155.275 29.0001 153.689 30.0596C152.104 31.1191 150.868 32.625 150.138 34.3868C149.409 36.1487 149.218 38.0874 149.59 39.9578C149.962 41.8282 150.88 43.5463 152.228 44.8947C153.576 46.2432 155.294 47.1615 157.164 47.5336C159.035 47.9056 160.973 47.7147 162.735 46.9849C164.496 46.2551 166.002 45.0192 167.062 43.4336C168.121 41.848 168.686 39.9837 168.686 38.0767C168.68 35.5216 167.662 33.073 165.855 31.2662C164.048 29.4594 161.6 28.4414 159.045 28.4346Z" fill="white"/>
<path d="M159.499 0H158.596C157.218 0 156.102 1.11664 156.102 2.49409V23.1089C156.102 24.4864 157.218 25.603 158.596 25.603H159.499C160.876 25.603 161.992 24.4864 161.992 23.1089V2.49409C161.992 1.11664 160.876 0 159.499 0Z" fill="#363939"/>
<path d="M158.576 18.4616C151.773 18.5643 145.123 20.4991 139.326 24.0624C133.53 27.6257 128.8 32.6857 125.636 38.71C125.528 38.9154 125.474 39.1454 125.48 39.3777C125.487 39.61 125.553 39.8366 125.673 40.0356C125.793 40.2346 125.963 40.3991 126.165 40.5132C126.368 40.6273 126.596 40.687 126.829 40.6867H191.278C191.51 40.6865 191.738 40.6263 191.94 40.512C192.142 40.3977 192.311 40.2331 192.431 40.0342C192.551 39.8353 192.617 39.6089 192.623 39.3769C192.63 39.1449 192.576 38.9152 192.467 38.71C189.227 32.5436 184.349 27.3907 178.369 23.8182C172.39 20.2457 165.541 18.3922 158.576 18.4616Z" fill="#FEDCD7"/>
<path d="M139.249 34.5188C135.02 34.5188 131.572 31.6615 131.521 31.6261C131.39 31.5162 131.309 31.3589 131.294 31.1889C131.28 31.019 131.333 30.8502 131.443 30.7198C131.553 30.5894 131.711 30.508 131.881 30.4935C132.051 30.479 132.219 30.5327 132.35 30.6427C132.632 30.8805 139.317 36.3893 145.024 30.6812L145.413 30.2923L145.86 30.6137C146.181 30.8451 153.708 36.2319 159.264 30.678L159.64 30.2988L160.083 30.6009C161.348 31.4125 162.733 32.0199 164.187 32.4007C167.192 33.1592 169.679 32.5807 171.579 30.678L171.977 30.2795L172.424 30.6202C172.723 30.8484 179.838 36.1676 185.33 30.678C185.452 30.567 185.612 30.5072 185.777 30.5109C185.942 30.5147 186.099 30.5818 186.216 30.6982C186.333 30.8147 186.4 30.9717 186.405 31.1366C186.409 31.3016 186.35 31.4619 186.239 31.5844C180.795 37.0289 173.909 33.1432 172.099 31.954C169.92 33.8824 167.076 34.4674 163.834 33.6381C162.417 33.2629 161.06 32.6917 159.801 31.9411C154.337 36.9132 147.38 33.1014 145.555 31.9411C143.462 33.8663 141.268 34.5188 139.249 34.5188Z" fill="#FB6D6D"/>
<path d="M121.028 204.917C120.89 204.914 120.756 204.866 120.647 204.78C120.539 204.694 120.46 204.576 120.424 204.442C120.388 204.309 120.396 204.167 120.447 204.039C120.498 203.91 120.589 203.801 120.706 203.728C122.795 202.443 124.961 201.247 127.134 200.138C130.026 198.676 133.005 197.339 136.02 196.166C136.178 196.104 136.355 196.108 136.512 196.176C136.668 196.245 136.79 196.373 136.852 196.532C136.914 196.691 136.91 196.868 136.841 197.024C136.772 197.18 136.644 197.303 136.486 197.364C133.51 198.521 130.56 199.839 127.715 201.285C125.566 202.378 123.432 203.571 121.365 204.821C121.264 204.885 121.147 204.918 121.028 204.917Z" fill="#363939"/>
<path d="M38.0805 186.417L41.8051 172.314H20.6753L24.0304 186.572C20.2198 188.235 17.1012 191.164 15.2032 194.863C13.3051 198.563 12.7444 202.805 13.6159 206.87C14.4875 210.936 16.7377 214.575 19.9854 217.171C23.233 219.768 27.2782 221.161 31.4355 221.115C35.5928 221.07 39.6064 219.588 42.7963 216.921C45.9861 214.254 48.1559 210.566 48.938 206.483C49.7201 202.399 49.0664 198.17 47.0876 194.513C45.1088 190.856 41.9267 187.996 38.0805 186.417Z" fill="white"/>
<path d="M31.2386 221.753C26.9993 221.749 22.8874 220.302 19.5797 217.651C16.2719 214.999 13.9654 211.3 13.0396 207.162C12.1138 203.024 12.624 198.695 14.4861 194.886C16.3482 191.077 19.4513 188.016 23.2848 186.205L19.8623 171.672H42.6374L38.8453 186.045C42.7457 187.789 45.9295 190.819 47.8652 194.628C49.8009 198.438 50.3712 202.796 49.4809 206.975C48.5906 211.155 46.2936 214.902 42.9735 217.591C39.6534 220.281 35.5112 221.75 31.2386 221.753ZM21.4852 172.957L24.7792 186.948L24.2875 187.16C20.6117 188.763 17.6033 191.588 15.7721 195.156C13.9409 198.724 13.3995 202.816 14.2397 206.738C15.0799 210.659 17.2501 214.17 20.3823 216.674C23.5146 219.178 27.4163 220.523 31.4262 220.479C35.4361 220.435 39.3075 219.006 42.3844 216.434C45.4613 213.862 47.5543 210.305 48.3088 206.366C49.0632 202.427 48.4327 198.348 46.5241 194.821C44.6154 191.294 41.5461 188.535 37.8363 187.012L37.3156 186.797L40.9696 172.957H21.4852Z" fill="#363939"/>
<path d="M31.2323 174.066C37.5472 174.066 42.6664 172.981 42.6664 171.642C42.6664 170.304 37.5472 169.219 31.2323 169.219C24.9173 169.219 19.7981 170.304 19.7981 171.642C19.7981 172.981 24.9173 174.066 31.2323 174.066Z" fill="#363939"/>
<path d="M28.1214 173.593C27.9902 173.593 27.8624 173.552 27.7549 173.477C27.6475 173.402 27.5657 173.295 27.5204 173.172C23.6191 162.534 15.556 153.888 15.4757 153.814C15.4177 153.753 15.3723 153.681 15.3422 153.602C15.3121 153.523 15.2978 153.439 15.3002 153.354C15.3026 153.27 15.3216 153.186 15.3561 153.109C15.3906 153.032 15.44 152.963 15.5014 152.905C15.5628 152.847 15.635 152.801 15.714 152.771C15.7929 152.741 15.877 152.727 15.9615 152.729C16.0459 152.732 16.1291 152.751 16.2062 152.785C16.2833 152.82 16.3528 152.869 16.4109 152.93C16.4944 153.02 24.7342 161.84 28.7256 172.729C28.7808 172.887 28.7721 173.061 28.7013 173.213C28.6304 173.364 28.5031 173.483 28.3464 173.542C28.2749 173.572 28.1988 173.589 28.1214 173.593Z" fill="#363939"/>
<path d="M33.2697 173.68C33.0992 173.68 32.9357 173.613 32.8152 173.492C32.6947 173.371 32.627 173.208 32.627 173.037V163.832C32.627 163.662 32.6947 163.498 32.8152 163.378C32.9357 163.257 33.0992 163.19 33.2697 163.19C33.4401 163.19 33.6036 163.257 33.7242 163.378C33.8447 163.498 33.9124 163.662 33.9124 163.832V173.037C33.9124 173.208 33.8447 173.371 33.7242 173.492C33.6036 173.613 33.4401 173.68 33.2697 173.68Z" fill="#363939"/>
<path d="M19.1971 147.38H16.4558C16.4044 147.238 16.3466 147.1 16.2855 146.965L18.2812 145.197C18.4925 145.015 18.6655 144.793 18.7903 144.544C18.915 144.295 18.989 144.023 19.0079 143.745C19.0268 143.466 18.9902 143.187 18.9003 142.923C18.8104 142.659 18.669 142.416 18.4842 142.207C18.2995 141.998 18.0751 141.828 17.824 141.707C17.573 141.585 17.3004 141.515 17.022 141.5C16.7436 141.485 16.4649 141.525 16.2022 141.619C15.9395 141.712 15.698 141.857 15.4917 142.044L13.39 143.905C13.3579 143.934 13.3322 143.97 13.3 144.002C13.1683 143.941 13.0333 143.886 12.8951 143.835V141.286C12.8738 140.741 12.6426 140.226 12.2499 139.849C11.8571 139.471 11.3334 139.26 10.7886 139.26C10.2437 139.26 9.71997 139.471 9.32724 139.849C8.93452 140.226 8.70327 140.741 8.682 141.286V143.835C8.48723 143.906 8.2963 143.988 8.10997 144.079C8.0508 144.006 7.98636 143.937 7.91715 143.873L5.79936 142.044C5.37312 141.705 4.83187 141.543 4.2892 141.594C3.74652 141.645 3.24459 141.904 2.88872 142.317C2.53285 142.73 2.35069 143.264 2.38048 143.808C2.41027 144.353 2.64967 144.864 3.04848 145.236L5.17591 147.071C5.19273 147.086 5.21104 147.099 5.23054 147.11C5.19198 147.2 5.15984 147.293 5.12449 147.386H2.48287C1.92739 147.389 1.39543 147.611 1.00295 148.004C0.610459 148.397 0.389264 148.929 0.387573 149.485C0.387573 150.044 0.60924 150.579 1.0039 150.975C1.39856 151.37 1.93395 151.592 2.49251 151.593H5.10842L5.1727 151.767H5.15342L3.04848 153.628C2.65088 154.004 2.41498 154.519 2.39062 155.066C2.36627 155.613 2.55535 156.147 2.91793 156.557C3.28051 156.967 3.78818 157.22 4.33367 157.262C4.87915 157.304 5.41971 157.133 5.84114 156.784L7.94286 154.923L7.98785 154.875C8.21768 154.999 8.4561 155.106 8.70128 155.196V157.723C8.72255 158.267 8.9538 158.782 9.34653 159.16C9.73925 159.538 10.263 159.749 10.8078 159.749C11.3527 159.749 11.8764 159.538 12.2691 159.16C12.6619 158.782 12.8931 158.267 12.9144 157.723V155.222C13.059 155.167 13.2036 155.109 13.345 155.042L15.4082 156.819C15.833 157.183 16.3849 157.363 16.9424 157.319C17.4999 157.276 18.0173 157.013 18.3808 156.588C18.7443 156.163 18.9241 155.611 18.8808 155.054C18.8374 154.496 18.5743 153.979 18.1494 153.615L16.3176 152.034C16.3819 151.889 16.4398 151.741 16.4944 151.593H19.1971C19.7562 151.593 20.2924 151.371 20.6878 150.976C21.0831 150.58 21.3052 150.044 21.3052 149.485C21.3044 148.926 21.0819 148.391 20.6866 147.996C20.2914 147.601 19.7556 147.38 19.1971 147.38Z" fill="#D9D7F1"/>
<path d="M19.1971 147.38H16.4558C16.4044 147.238 16.3466 147.1 16.2855 146.965L18.2812 145.197C18.4925 145.015 18.6655 144.793 18.7903 144.544C18.915 144.295 18.989 144.023 19.0079 143.745C19.0268 143.466 18.9902 143.187 18.9003 142.923C18.8104 142.659 18.669 142.416 18.4842 142.207C18.2995 141.998 18.0751 141.828 17.824 141.707C17.573 141.585 17.3004 141.515 17.022 141.5C16.7436 141.485 16.4649 141.525 16.2022 141.619C15.9395 141.712 15.698 141.857 15.4917 142.044L13.39 143.905C13.3579 143.934 13.3322 143.97 13.3 144.002C13.1683 143.941 13.0333 143.886 12.8951 143.835V141.286C12.8738 140.741 12.6426 140.226 12.2499 139.849C11.8571 139.471 11.3334 139.26 10.7886 139.26C10.2437 139.26 9.71997 139.471 9.32724 139.849C8.93452 140.226 8.70327 140.741 8.682 141.286V143.835C8.48723 143.906 8.2963 143.988 8.10997 144.079C8.0508 144.006 7.98636 143.937 7.91715 143.873L5.79936 142.044C5.37312 141.705 4.83187 141.543 4.2892 141.594C3.74652 141.645 3.24459 141.904 2.88872 142.317C2.53285 142.73 2.35069 143.264 2.38048 143.808C2.41027 144.353 2.64967 144.864 3.04848 145.236L5.17591 147.071C5.19273 147.086 5.21104 147.099 5.23054 147.11C5.19198 147.2 5.15984 147.293 5.12449 147.386H2.48287C1.92739 147.389 1.39543 147.611 1.00295 148.004C0.610459 148.397 0.389264 148.929 0.387573 149.485C0.387573 150.044 0.60924 150.579 1.0039 150.975C1.39856 151.37 1.93395 151.592 2.49251 151.593H5.10842L5.1727 151.767H5.15342L3.04848 153.628C2.65088 154.004 2.41498 154.519 2.39062 155.066C2.36627 155.613 2.55535 156.147 2.91793 156.557C3.28051 156.967 3.78818 157.22 4.33367 157.262C4.87915 157.304 5.41971 157.133 5.84114 156.784L7.94286 154.923L7.98785 154.875C8.21768 154.999 8.4561 155.106 8.70128 155.196V157.723C8.72255 158.267 8.9538 158.782 9.34653 159.16C9.73925 159.538 10.263 159.749 10.8078 159.749C11.3527 159.749 11.8764 159.538 12.2691 159.16C12.6619 158.782 12.8931 158.267 12.9144 157.723V155.222C13.059 155.167 13.2036 155.109 13.345 155.042L15.4082 156.819C15.833 157.183 16.3849 157.363 16.9424 157.319C17.4999 157.276 18.0173 157.013 18.3808 156.588C18.7443 156.163 18.9241 155.611 18.8808 155.054C18.8374 154.496 18.5743 153.979 18.1494 153.615L16.3176 152.034C16.3819 151.889 16.4398 151.741 16.4944 151.593H19.1971C19.7562 151.593 20.2924 151.371 20.6878 150.976C21.0831 150.58 21.3052 150.044 21.3052 149.485C21.3044 148.926 21.0819 148.391 20.6866 147.996C20.2914 147.601 19.7556 147.38 19.1971 147.38Z" fill="#D9D7F1"/>
<path d="M19.1971 147.38H16.4558C16.4044 147.238 16.3466 147.1 16.2855 146.965L18.2812 145.197C18.4925 145.015 18.6655 144.793 18.7903 144.544C18.915 144.295 18.989 144.023 19.0079 143.745C19.0268 143.466 18.9902 143.187 18.9003 142.923C18.8104 142.659 18.669 142.416 18.4842 142.207C18.2995 141.998 18.0751 141.828 17.824 141.707C17.573 141.585 17.3004 141.515 17.022 141.5C16.7436 141.485 16.4649 141.525 16.2022 141.619C15.9395 141.712 15.698 141.857 15.4917 142.044L13.39 143.905C13.3579 143.934 13.3322 143.97 13.3 144.002C13.1683 143.941 13.0333 143.886 12.8951 143.835V141.286C12.8738 140.741 12.6426 140.226 12.2499 139.849C11.8571 139.471 11.3334 139.26 10.7886 139.26C10.2437 139.26 9.71997 139.471 9.32724 139.849C8.93452 140.226 8.70327 140.741 8.682 141.286V143.835C8.48723 143.906 8.2963 143.988 8.10997 144.079C8.0508 144.006 7.98636 143.937 7.91715 143.873L5.79936 142.044C5.37312 141.705 4.83187 141.543 4.2892 141.594C3.74652 141.645 3.24459 141.904 2.88872 142.317C2.53285 142.73 2.35069 143.264 2.38048 143.808C2.41027 144.353 2.64967 144.864 3.04848 145.236L5.17591 147.071C5.19273 147.086 5.21104 147.099 5.23054 147.11C5.19198 147.2 5.15984 147.293 5.12449 147.386H2.48287C1.92739 147.389 1.39543 147.611 1.00295 148.004C0.610459 148.397 0.389264 148.929 0.387573 149.485C0.387573 150.044 0.60924 150.579 1.0039 150.975C1.39856 151.37 1.93395 151.592 2.49251 151.593H5.10842L5.1727 151.767H5.15342L3.04848 153.628C2.65088 154.004 2.41498 154.519 2.39062 155.066C2.36627 155.613 2.55535 156.147 2.91793 156.557C3.28051 156.967 3.78818 157.22 4.33367 157.262C4.87915 157.304 5.41971 157.133 5.84114 156.784L7.94286 154.923L7.98785 154.875C8.21768 154.999 8.4561 155.106 8.70128 155.196V157.723C8.72255 158.267 8.9538 158.782 9.34653 159.16C9.73925 159.538 10.263 159.749 10.8078 159.749C11.3527 159.749 11.8764 159.538 12.2691 159.16C12.6619 158.782 12.8931 158.267 12.9144 157.723V155.222C13.059 155.167 13.2036 155.109 13.345 155.042L15.4082 156.819C15.833 157.183 16.3849 157.363 16.9424 157.319C17.4999 157.276 18.0173 157.013 18.3808 156.588C18.7443 156.163 18.9241 155.611 18.8808 155.054C18.8374 154.496 18.5743 153.979 18.1494 153.615L16.3176 152.034C16.3819 151.889 16.4398 151.741 16.4944 151.593H19.1971C19.7562 151.593 20.2924 151.371 20.6878 150.976C21.0831 150.58 21.3052 150.044 21.3052 149.485C21.3044 148.926 21.0819 148.391 20.6866 147.996C20.2914 147.601 19.7556 147.38 19.1971 147.38Z" fill="#D9D7F1"/>
<path d="M19.1971 147.38H16.4558C16.4044 147.238 16.3466 147.1 16.2855 146.965L18.2812 145.197C18.4925 145.015 18.6655 144.793 18.7903 144.544C18.915 144.295 18.989 144.023 19.0079 143.745C19.0268 143.466 18.9902 143.187 18.9003 142.923C18.8104 142.659 18.669 142.416 18.4842 142.207C18.2995 141.998 18.0751 141.828 17.824 141.707C17.573 141.585 17.3004 141.515 17.022 141.5C16.7436 141.485 16.4649 141.525 16.2022 141.619C15.9395 141.712 15.698 141.857 15.4917 142.044L13.39 143.905C13.3579 143.934 13.3322 143.97 13.3 144.002C13.1683 143.941 13.0333 143.886 12.8951 143.835V141.286C12.8738 140.741 12.6426 140.226 12.2499 139.849C11.8571 139.471 11.3334 139.26 10.7886 139.26C10.2437 139.26 9.71997 139.471 9.32724 139.849C8.93452 140.226 8.70327 140.741 8.682 141.286V143.835C8.48723 143.906 8.2963 143.988 8.10997 144.079C8.0508 144.006 7.98636 143.937 7.91715 143.873L5.79936 142.044C5.37312 141.705 4.83187 141.543 4.2892 141.594C3.74652 141.645 3.24459 141.904 2.88872 142.317C2.53285 142.73 2.35069 143.264 2.38048 143.808C2.41027 144.353 2.64967 144.864 3.04848 145.236L5.17591 147.071C5.19273 147.086 5.21104 147.099 5.23054 147.11C5.19198 147.2 5.15984 147.293 5.12449 147.386H2.48287C1.92739 147.389 1.39543 147.611 1.00295 148.004C0.610459 148.397 0.389264 148.929 0.387573 149.485C0.387573 150.044 0.60924 150.579 1.0039 150.975C1.39856 151.37 1.93395 151.592 2.49251 151.593H5.10842L5.1727 151.767H5.15342L3.04848 153.628C2.65088 154.004 2.41498 154.519 2.39062 155.066C2.36627 155.613 2.55535 156.147 2.91793 156.557C3.28051 156.967 3.78818 157.22 4.33367 157.262C4.87915 157.304 5.41971 157.133 5.84114 156.784L7.94286 154.923L7.98785 154.875C8.21768 154.999 8.4561 155.106 8.70128 155.196V157.723C8.72255 158.267 8.9538 158.782 9.34653 159.16C9.73925 159.538 10.263 159.749 10.8078 159.749C11.3527 159.749 11.8764 159.538 12.2691 159.16C12.6619 158.782 12.8931 158.267 12.9144 157.723V155.222C13.059 155.167 13.2036 155.109 13.345 155.042L15.4082 156.819C15.833 157.183 16.3849 157.363 16.9424 157.319C17.4999 157.276 18.0173 157.013 18.3808 156.588C18.7443 156.163 18.9241 155.611 18.8808 155.054C18.8374 154.496 18.5743 153.979 18.1494 153.615L16.3176 152.034C16.3819 151.889 16.4398 151.741 16.4944 151.593H19.1971C19.7562 151.593 20.2924 151.371 20.6878 150.976C21.0831 150.58 21.3052 150.044 21.3052 149.485C21.3044 148.926 21.0819 148.391 20.6866 147.996C20.2914 147.601 19.7556 147.38 19.1971 147.38Z" fill="#D9D7F1"/>
<path d="M19.1971 147.38H16.4558C16.4044 147.238 16.3466 147.1 16.2855 146.965L18.2812 145.197C18.4925 145.015 18.6655 144.793 18.7903 144.544C18.915 144.295 18.989 144.023 19.0079 143.745C19.0268 143.466 18.9902 143.187 18.9003 142.923C18.8104 142.659 18.669 142.416 18.4842 142.207C18.2995 141.998 18.0751 141.828 17.824 141.707C17.573 141.585 17.3004 141.515 17.022 141.5C16.7436 141.485 16.4649 141.525 16.2022 141.619C15.9395 141.712 15.698 141.857 15.4917 142.044L13.39 143.905C13.3579 143.934 13.3322 143.97 13.3 144.002C13.1683 143.941 13.0333 143.886 12.8951 143.835V141.286C12.8738 140.741 12.6426 140.226 12.2499 139.849C11.8571 139.471 11.3334 139.26 10.7886 139.26C10.2437 139.26 9.71997 139.471 9.32724 139.849C8.93452 140.226 8.70327 140.741 8.682 141.286V143.835C8.48723 143.906 8.2963 143.988 8.10997 144.079C8.0508 144.006 7.98636 143.937 7.91715 143.873L5.79936 142.044C5.37312 141.705 4.83187 141.543 4.2892 141.594C3.74652 141.645 3.24459 141.904 2.88872 142.317C2.53285 142.73 2.35069 143.264 2.38048 143.808C2.41027 144.353 2.64967 144.864 3.04848 145.236L5.17591 147.071C5.19273 147.086 5.21104 147.099 5.23054 147.11C5.19198 147.2 5.15984 147.293 5.12449 147.386H2.48287C1.92739 147.389 1.39543 147.611 1.00295 148.004C0.610459 148.397 0.389264 148.929 0.387573 149.485C0.387573 150.044 0.60924 150.579 1.0039 150.975C1.39856 151.37 1.93395 151.592 2.49251 151.593H5.10842L5.1727 151.767H5.15342L3.04848 153.628C2.65088 154.004 2.41498 154.519 2.39062 155.066C2.36627 155.613 2.55535 156.147 2.91793 156.557C3.28051 156.967 3.78818 157.22 4.33367 157.262C4.87915 157.304 5.41971 157.133 5.84114 156.784L7.94286 154.923L7.98785 154.875C8.21768 154.999 8.4561 155.106 8.70128 155.196V157.723C8.72255 158.267 8.9538 158.782 9.34653 159.16C9.73925 159.538 10.263 159.749 10.8078 159.749C11.3527 159.749 11.8764 159.538 12.2691 159.16C12.6619 158.782 12.8931 158.267 12.9144 157.723V155.222C13.059 155.167 13.2036 155.109 13.345 155.042L15.4082 156.819C15.833 157.183 16.3849 157.363 16.9424 157.319C17.4999 157.276 18.0173 157.013 18.3808 156.588C18.7443 156.163 18.9241 155.611 18.8808 155.054C18.8374 154.496 18.5743 153.979 18.1494 153.615L16.3176 152.034C16.3819 151.889 16.4398 151.741 16.4944 151.593H19.1971C19.7562 151.593 20.2924 151.371 20.6878 150.976C21.0831 150.58 21.3052 150.044 21.3052 149.485C21.3044 148.926 21.0819 148.391 20.6866 147.996C20.2914 147.601 19.7556 147.38 19.1971 147.38Z" fill="#D9D7F1"/>
<path d="M19.1971 147.38H16.4558C16.4044 147.238 16.3466 147.1 16.2855 146.965L18.2812 145.197C18.4925 145.015 18.6655 144.793 18.7903 144.544C18.915 144.295 18.989 144.023 19.0079 143.745C19.0268 143.466 18.9902 143.187 18.9003 142.923C18.8104 142.659 18.669 142.416 18.4842 142.207C18.2995 141.998 18.0751 141.828 17.824 141.707C17.573 141.585 17.3004 141.515 17.022 141.5C16.7436 141.485 16.4649 141.525 16.2022 141.619C15.9395 141.712 15.698 141.857 15.4917 142.044L13.39 143.905C13.3579 143.934 13.3322 143.97 13.3 144.002C13.1683 143.941 13.0333 143.886 12.8951 143.835V141.286C12.8738 140.741 12.6426 140.226 12.2499 139.849C11.8571 139.471 11.3334 139.26 10.7886 139.26C10.2437 139.26 9.71997 139.471 9.32724 139.849C8.93452 140.226 8.70327 140.741 8.682 141.286V143.835C8.48723 143.906 8.2963 143.988 8.10997 144.079C8.0508 144.006 7.98636 143.937 7.91715 143.873L5.79936 142.044C5.37312 141.705 4.83187 141.543 4.2892 141.594C3.74652 141.645 3.24459 141.904 2.88872 142.317C2.53285 142.73 2.35069 143.264 2.38048 143.808C2.41027 144.353 2.64967 144.864 3.04848 145.236L5.17591 147.071C5.19273 147.086 5.21104 147.099 5.23054 147.11C5.19198 147.2 5.15984 147.293 5.12449 147.386H2.48287C1.92739 147.389 1.39543 147.611 1.00295 148.004C0.610459 148.397 0.389264 148.929 0.387573 149.485C0.387573 150.044 0.60924 150.579 1.0039 150.975C1.39856 151.37 1.93395 151.592 2.49251 151.593H5.10842L5.1727 151.767H5.15342L3.04848 153.628C2.65088 154.004 2.41498 154.519 2.39062 155.066C2.36627 155.613 2.55535 156.147 2.91793 156.557C3.28051 156.967 3.78818 157.22 4.33367 157.262C4.87915 157.304 5.41971 157.133 5.84114 156.784L7.94286 154.923L7.98785 154.875C8.21768 154.999 8.4561 155.106 8.70128 155.196V157.723C8.72255 158.267 8.9538 158.782 9.34653 159.16C9.73925 159.538 10.263 159.749 10.8078 159.749C11.3527 159.749 11.8764 159.538 12.2691 159.16C12.6619 158.782 12.8931 158.267 12.9144 157.723V155.222C13.059 155.167 13.2036 155.109 13.345 155.042L15.4082 156.819C15.833 157.183 16.3849 157.363 16.9424 157.319C17.4999 157.276 18.0173 157.013 18.3808 156.588C18.7443 156.163 18.9241 155.611 18.8808 155.054C18.8374 154.496 18.5743 153.979 18.1494 153.615L16.3176 152.034C16.3819 151.889 16.4398 151.741 16.4944 151.593H19.1971C19.7562 151.593 20.2924 151.371 20.6878 150.976C21.0831 150.58 21.3052 150.044 21.3052 149.485C21.3044 148.926 21.0819 148.391 20.6866 147.996C20.2914 147.601 19.7556 147.38 19.1971 147.38Z" fill="#D9D7F1"/>
<path d="M19.1971 147.38H16.4558C16.4044 147.238 16.3466 147.1 16.2855 146.965L18.2812 145.197C18.4925 145.015 18.6655 144.793 18.7903 144.544C18.915 144.295 18.989 144.023 19.0079 143.745C19.0268 143.466 18.9902 143.187 18.9003 142.923C18.8104 142.659 18.669 142.416 18.4842 142.207C18.2995 141.998 18.0751 141.828 17.824 141.707C17.573 141.585 17.3004 141.515 17.022 141.5C16.7436 141.485 16.4649 141.525 16.2022 141.619C15.9395 141.712 15.698 141.857 15.4917 142.044L13.39 143.905C13.3579 143.934 13.3322 143.97 13.3 144.002C13.1683 143.941 13.0333 143.886 12.8951 143.835V141.286C12.8738 140.741 12.6426 140.226 12.2499 139.849C11.8571 139.471 11.3334 139.26 10.7886 139.26C10.2437 139.26 9.71997 139.471 9.32724 139.849C8.93452 140.226 8.70327 140.741 8.682 141.286V143.835C8.48723 143.906 8.2963 143.988 8.10997 144.079C8.0508 144.006 7.98636 143.937 7.91715 143.873L5.79936 142.044C5.37312 141.705 4.83187 141.543 4.2892 141.594C3.74652 141.645 3.24459 141.904 2.88872 142.317C2.53285 142.73 2.35069 143.264 2.38048 143.808C2.41027 144.353 2.64967 144.864 3.04848 145.236L5.17591 147.071C5.19273 147.086 5.21104 147.099 5.23054 147.11C5.19198 147.2 5.15984 147.293 5.12449 147.386H2.48287C1.92739 147.389 1.39543 147.611 1.00295 148.004C0.610459 148.397 0.389264 148.929 0.387573 149.485C0.387573 150.044 0.60924 150.579 1.0039 150.975C1.39856 151.37 1.93395 151.592 2.49251 151.593H5.10842L5.1727 151.767H5.15342L3.04848 153.628C2.65088 154.004 2.41498 154.519 2.39062 155.066C2.36627 155.613 2.55535 156.147 2.91793 156.557C3.28051 156.967 3.78818 157.22 4.33367 157.262C4.87915 157.304 5.41971 157.133 5.84114 156.784L7.94286 154.923L7.98785 154.875C8.21768 154.999 8.4561 155.106 8.70128 155.196V157.723C8.72255 158.267 8.9538 158.782 9.34653 159.16C9.73925 159.538 10.263 159.749 10.8078 159.749C11.3527 159.749 11.8764 159.538 12.2691 159.16C12.6619 158.782 12.8931 158.267 12.9144 157.723V155.222C13.059 155.167 13.2036 155.109 13.345 155.042L15.4082 156.819C15.833 157.183 16.3849 157.363 16.9424 157.319C17.4999 157.276 18.0173 157.013 18.3808 156.588C18.7443 156.163 18.9241 155.611 18.8808 155.054C18.8374 154.496 18.5743 153.979 18.1494 153.615L16.3176 152.034C16.3819 151.889 16.4398 151.741 16.4944 151.593H19.1971C19.7562 151.593 20.2924 151.371 20.6878 150.976C21.0831 150.58 21.3052 150.044 21.3052 149.485C21.3044 148.926 21.0819 148.391 20.6866 147.996C20.2914 147.601 19.7556 147.38 19.1971 147.38Z" fill="#D9D7F1"/>
<path d="M41.6282 155.142H38.8998C38.8484 155 38.7906 154.865 38.7263 154.73L40.7252 152.963C41.1228 152.587 41.3587 152.071 41.383 151.524C41.4074 150.978 41.2183 150.443 40.8557 150.033C40.4931 149.623 39.9855 149.371 39.44 149.328C38.8945 149.286 38.3539 149.458 37.9325 149.806L35.8308 151.667C35.7992 151.698 35.7691 151.73 35.7408 151.764C35.609 151.703 35.4709 151.648 35.3327 151.597V149.048C35.3114 148.503 35.0802 147.988 34.6874 147.611C34.2947 147.233 33.771 147.022 33.2261 147.022C32.6813 147.022 32.1575 147.233 31.7648 147.611C31.3721 147.988 31.1408 148.503 31.1196 149.048V151.597C30.9268 151.667 30.7372 151.751 30.5508 151.841C30.4907 151.769 30.4263 151.7 30.3579 151.635L28.2305 149.8C28.0229 149.607 27.7785 149.457 27.5118 149.36C27.245 149.264 26.9616 149.222 26.6783 149.237C26.395 149.253 26.1178 149.326 25.8632 149.451C25.6087 149.576 25.382 149.751 25.1967 149.966C25.0115 150.181 24.8716 150.431 24.7853 150.701C24.699 150.972 24.6681 151.257 24.6945 151.539C24.7209 151.822 24.8041 152.096 24.939 152.345C25.0739 152.595 25.2578 152.815 25.4796 152.992L27.6038 154.827C27.6224 154.841 27.6417 154.854 27.6617 154.865C27.6231 154.955 27.5878 155.049 27.5556 155.142H24.914C24.3558 155.142 23.8204 155.364 23.4256 155.758C23.0309 156.153 22.8091 156.689 22.8091 157.247C22.8091 157.806 23.0307 158.341 23.4254 158.737C23.8201 159.132 24.3555 159.355 24.914 159.355H27.5299C27.5492 159.413 27.5717 159.474 27.5942 159.532C27.5942 159.532 27.5942 159.532 27.5749 159.532L25.47 161.393C25.2523 161.573 25.073 161.796 24.9429 162.047C24.8128 162.298 24.7345 162.572 24.7126 162.854C24.6907 163.136 24.7258 163.419 24.8156 163.687C24.9055 163.955 25.0483 164.203 25.2357 164.414C25.423 164.626 25.651 164.798 25.9061 164.92C26.1612 165.042 26.4382 165.111 26.7206 165.123C27.003 165.136 27.285 165.092 27.5499 164.993C27.8148 164.894 28.0572 164.743 28.2626 164.549L30.3644 162.688L30.4094 162.643C30.639 162.765 30.8762 162.873 31.1196 162.965V165.507C31.1408 166.052 31.3721 166.567 31.7648 166.944C32.1575 167.322 32.6813 167.533 33.2261 167.533C33.771 167.533 34.2947 167.322 34.6874 166.944C35.0802 166.567 35.3114 166.052 35.3327 165.507V162.968C35.4805 162.913 35.6251 162.855 35.7665 162.788L37.8265 164.565C38.0358 164.746 38.2787 164.884 38.5413 164.971C38.8039 165.058 39.081 165.092 39.3569 165.072C39.6328 165.052 39.902 164.978 40.1492 164.854C40.3964 164.729 40.6166 164.558 40.7975 164.348C40.9783 164.139 41.1162 163.896 41.2031 163.633C41.2901 163.371 41.3245 163.094 41.3043 162.818C41.2842 162.542 41.2099 162.273 41.0857 162.025C40.9615 161.778 40.7899 161.558 40.5806 161.377L38.7456 159.796C38.8131 159.651 38.8709 159.503 38.9255 159.355H41.6282C42.1868 159.355 42.7222 159.132 43.1168 158.737C43.5115 158.341 43.7332 157.806 43.7332 157.247C43.7332 156.97 43.6787 156.697 43.5729 156.441C43.4671 156.186 43.3121 155.954 43.1166 155.758C42.9212 155.563 42.6891 155.408 42.4337 155.302C42.1784 155.196 41.9046 155.142 41.6282 155.142Z" fill="#D9D7F1"/>
<path d="M41.6282 155.142H38.8998C38.8484 155 38.7906 154.865 38.7263 154.73L40.7252 152.963C41.1228 152.587 41.3587 152.071 41.383 151.524C41.4074 150.978 41.2183 150.443 40.8557 150.033C40.4931 149.623 39.9855 149.371 39.44 149.328C38.8945 149.286 38.3539 149.458 37.9325 149.806L35.8308 151.667C35.7992 151.698 35.7691 151.73 35.7408 151.764C35.609 151.703 35.4709 151.648 35.3327 151.597V149.048C35.3114 148.503 35.0802 147.988 34.6874 147.611C34.2947 147.233 33.771 147.022 33.2261 147.022C32.6813 147.022 32.1575 147.233 31.7648 147.611C31.3721 147.988 31.1408 148.503 31.1196 149.048V151.597C30.9268 151.667 30.7372 151.751 30.5508 151.841C30.4907 151.769 30.4263 151.7 30.3579 151.635L28.2305 149.8C28.0229 149.607 27.7785 149.457 27.5118 149.36C27.245 149.264 26.9616 149.222 26.6783 149.237C26.395 149.253 26.1178 149.326 25.8632 149.451C25.6087 149.576 25.382 149.751 25.1967 149.966C25.0115 150.181 24.8716 150.431 24.7853 150.701C24.699 150.972 24.6681 151.257 24.6945 151.539C24.7209 151.822 24.8041 152.096 24.939 152.345C25.0739 152.595 25.2578 152.815 25.4796 152.992L27.6038 154.827C27.6224 154.841 27.6417 154.854 27.6617 154.865C27.6231 154.955 27.5878 155.049 27.5556 155.142H24.914C24.3558 155.142 23.8204 155.364 23.4256 155.758C23.0309 156.153 22.8091 156.689 22.8091 157.247C22.8091 157.806 23.0307 158.341 23.4254 158.737C23.8201 159.132 24.3555 159.355 24.914 159.355H27.5299C27.5492 159.413 27.5717 159.474 27.5942 159.532C27.5942 159.532 27.5942 159.532 27.5749 159.532L25.47 161.393C25.2523 161.573 25.073 161.796 24.9429 162.047C24.8128 162.298 24.7345 162.572 24.7126 162.854C24.6907 163.136 24.7258 163.419 24.8156 163.687C24.9055 163.955 25.0483 164.203 25.2357 164.414C25.423 164.626 25.651 164.798 25.9061 164.92C26.1612 165.042 26.4382 165.111 26.7206 165.123C27.003 165.136 27.285 165.092 27.5499 164.993C27.8148 164.894 28.0572 164.743 28.2626 164.549L30.3644 162.688L30.4094 162.643C30.639 162.765 30.8762 162.873 31.1196 162.965V165.507C31.1408 166.052 31.3721 166.567 31.7648 166.944C32.1575 167.322 32.6813 167.533 33.2261 167.533C33.771 167.533 34.2947 167.322 34.6874 166.944C35.0802 166.567 35.3114 166.052 35.3327 165.507V162.968C35.4805 162.913 35.6251 162.855 35.7665 162.788L37.8265 164.565C38.0358 164.746 38.2787 164.884 38.5413 164.971C38.8039 165.058 39.081 165.092 39.3569 165.072C39.6328 165.052 39.902 164.978 40.1492 164.854C40.3964 164.729 40.6166 164.558 40.7975 164.348C40.9783 164.139 41.1162 163.896 41.2031 163.633C41.2901 163.371 41.3245 163.094 41.3043 162.818C41.2842 162.542 41.2099 162.273 41.0857 162.025C40.9615 161.778 40.7899 161.558 40.5806 161.377L38.7456 159.796C38.8131 159.651 38.8709 159.503 38.9255 159.355H41.6282C42.1868 159.355 42.7222 159.132 43.1168 158.737C43.5115 158.341 43.7332 157.806 43.7332 157.247C43.7332 156.97 43.6787 156.697 43.5729 156.441C43.4671 156.186 43.3121 155.954 43.1166 155.758C42.9212 155.563 42.6891 155.408 42.4337 155.302C42.1784 155.196 41.9046 155.142 41.6282 155.142Z" fill="#D9D7F1"/>
<path d="M41.6282 155.142H38.8998C38.8484 155 38.7906 154.865 38.7263 154.73L40.7252 152.963C41.1228 152.587 41.3587 152.071 41.383 151.524C41.4074 150.978 41.2183 150.443 40.8557 150.033C40.4931 149.623 39.9855 149.371 39.44 149.328C38.8945 149.286 38.3539 149.458 37.9325 149.806L35.8308 151.667C35.7992 151.698 35.7691 151.73 35.7408 151.764C35.609 151.703 35.4709 151.648 35.3327 151.597V149.048C35.3114 148.503 35.0802 147.988 34.6874 147.611C34.2947 147.233 33.771 147.022 33.2261 147.022C32.6813 147.022 32.1575 147.233 31.7648 147.611C31.3721 147.988 31.1408 148.503 31.1196 149.048V151.597C30.9268 151.667 30.7372 151.751 30.5508 151.841C30.4907 151.769 30.4263 151.7 30.3579 151.635L28.2305 149.8C28.0229 149.607 27.7785 149.457 27.5118 149.36C27.245 149.264 26.9616 149.222 26.6783 149.237C26.395 149.253 26.1178 149.326 25.8632 149.451C25.6087 149.576 25.382 149.751 25.1967 149.966C25.0115 150.181 24.8716 150.431 24.7853 150.701C24.699 150.972 24.6681 151.257 24.6945 151.539C24.7209 151.822 24.8041 152.096 24.939 152.345C25.0739 152.595 25.2578 152.815 25.4796 152.992L27.6038 154.827C27.6224 154.841 27.6417 154.854 27.6617 154.865C27.6231 154.955 27.5878 155.049 27.5556 155.142H24.914C24.3558 155.142 23.8204 155.364 23.4256 155.758C23.0309 156.153 22.8091 156.689 22.8091 157.247C22.8091 157.806 23.0307 158.341 23.4254 158.737C23.8201 159.132 24.3555 159.355 24.914 159.355H27.5299C27.5492 159.413 27.5717 159.474 27.5942 159.532C27.5942 159.532 27.5942 159.532 27.5749 159.532L25.47 161.393C25.2523 161.573 25.073 161.796 24.9429 162.047C24.8128 162.298 24.7345 162.572 24.7126 162.854C24.6907 163.136 24.7258 163.419 24.8156 163.687C24.9055 163.955 25.0483 164.203 25.2357 164.414C25.423 164.626 25.651 164.798 25.9061 164.92C26.1612 165.042 26.4382 165.111 26.7206 165.123C27.003 165.136 27.285 165.092 27.5499 164.993C27.8148 164.894 28.0572 164.743 28.2626 164.549L30.3644 162.688L30.4094 162.643C30.639 162.765 30.8762 162.873 31.1196 162.965V165.507C31.1408 166.052 31.3721 166.567 31.7648 166.944C32.1575 167.322 32.6813 167.533 33.2261 167.533C33.771 167.533 34.2947 167.322 34.6874 166.944C35.0802 166.567 35.3114 166.052 35.3327 165.507V162.968C35.4805 162.913 35.6251 162.855 35.7665 162.788L37.8265 164.565C38.0358 164.746 38.2787 164.884 38.5413 164.971C38.8039 165.058 39.081 165.092 39.3569 165.072C39.6328 165.052 39.902 164.978 40.1492 164.854C40.3964 164.729 40.6166 164.558 40.7975 164.348C40.9783 164.139 41.1162 163.896 41.2031 163.633C41.2901 163.371 41.3245 163.094 41.3043 162.818C41.2842 162.542 41.2099 162.273 41.0857 162.025C40.9615 161.778 40.7899 161.558 40.5806 161.377L38.7456 159.796C38.8131 159.651 38.8709 159.503 38.9255 159.355H41.6282C42.1868 159.355 42.7222 159.132 43.1168 158.737C43.5115 158.341 43.7332 157.806 43.7332 157.247C43.7332 156.97 43.6787 156.697 43.5729 156.441C43.4671 156.186 43.3121 155.954 43.1166 155.758C42.9212 155.563 42.6891 155.408 42.4337 155.302C42.1784 155.196 41.9046 155.142 41.6282 155.142Z" fill="#D9D7F1"/>
<path d="M41.6282 155.142H38.8998C38.8484 155 38.7906 154.865 38.7263 154.73L40.7252 152.963C41.1228 152.587 41.3587 152.071 41.383 151.524C41.4074 150.978 41.2183 150.443 40.8557 150.033C40.4931 149.623 39.9855 149.371 39.44 149.328C38.8945 149.286 38.3539 149.458 37.9325 149.806L35.8308 151.667C35.7992 151.698 35.7691 151.73 35.7408 151.764C35.609 151.703 35.4709 151.648 35.3327 151.597V149.048C35.3114 148.503 35.0802 147.988 34.6874 147.611C34.2947 147.233 33.771 147.022 33.2261 147.022C32.6813 147.022 32.1575 147.233 31.7648 147.611C31.3721 147.988 31.1408 148.503 31.1196 149.048V151.597C30.9268 151.667 30.7372 151.751 30.5508 151.841C30.4907 151.769 30.4263 151.7 30.3579 151.635L28.2305 149.8C28.0229 149.607 27.7785 149.457 27.5118 149.36C27.245 149.264 26.9616 149.222 26.6783 149.237C26.395 149.253 26.1178 149.326 25.8632 149.451C25.6087 149.576 25.382 149.751 25.1967 149.966C25.0115 150.181 24.8716 150.431 24.7853 150.701C24.699 150.972 24.6681 151.257 24.6945 151.539C24.7209 151.822 24.8041 152.096 24.939 152.345C25.0739 152.595 25.2578 152.815 25.4796 152.992L27.6038 154.827C27.6224 154.841 27.6417 154.854 27.6617 154.865C27.6231 154.955 27.5878 155.049 27.5556 155.142H24.914C24.3558 155.142 23.8204 155.364 23.4256 155.758C23.0309 156.153 22.8091 156.689 22.8091 157.247C22.8091 157.806 23.0307 158.341 23.4254 158.737C23.8201 159.132 24.3555 159.355 24.914 159.355H27.5299C27.5492 159.413 27.5717 159.474 27.5942 159.532C27.5942 159.532 27.5942 159.532 27.5749 159.532L25.47 161.393C25.2523 161.573 25.073 161.796 24.9429 162.047C24.8128 162.298 24.7345 162.572 24.7126 162.854C24.6907 163.136 24.7258 163.419 24.8156 163.687C24.9055 163.955 25.0483 164.203 25.2357 164.414C25.423 164.626 25.651 164.798 25.9061 164.92C26.1612 165.042 26.4382 165.111 26.7206 165.123C27.003 165.136 27.285 165.092 27.5499 164.993C27.8148 164.894 28.0572 164.743 28.2626 164.549L30.3644 162.688L30.4094 162.643C30.639 162.765 30.8762 162.873 31.1196 162.965V165.507C31.1408 166.052 31.3721 166.567 31.7648 166.944C32.1575 167.322 32.6813 167.533 33.2261 167.533C33.771 167.533 34.2947 167.322 34.6874 166.944C35.0802 166.567 35.3114 166.052 35.3327 165.507V162.968C35.4805 162.913 35.6251 162.855 35.7665 162.788L37.8265 164.565C38.0358 164.746 38.2787 164.884 38.5413 164.971C38.8039 165.058 39.081 165.092 39.3569 165.072C39.6328 165.052 39.902 164.978 40.1492 164.854C40.3964 164.729 40.6166 164.558 40.7975 164.348C40.9783 164.139 41.1162 163.896 41.2031 163.633C41.2901 163.371 41.3245 163.094 41.3043 162.818C41.2842 162.542 41.2099 162.273 41.0857 162.025C40.9615 161.778 40.7899 161.558 40.5806 161.377L38.7456 159.796C38.8131 159.651 38.8709 159.503 38.9255 159.355H41.6282C42.1868 159.355 42.7222 159.132 43.1168 158.737C43.5115 158.341 43.7332 157.806 43.7332 157.247C43.7332 156.97 43.6787 156.697 43.5729 156.441C43.4671 156.186 43.3121 155.954 43.1166 155.758C42.9212 155.563 42.6891 155.408 42.4337 155.302C42.1784 155.196 41.9046 155.142 41.6282 155.142Z" fill="#D9D7F1"/>
<path d="M41.6282 155.142H38.8998C38.8484 155 38.7906 154.865 38.7263 154.73L40.7252 152.963C41.1228 152.587 41.3587 152.071 41.383 151.524C41.4074 150.978 41.2183 150.443 40.8557 150.033C40.4931 149.623 39.9855 149.371 39.44 149.328C38.8945 149.286 38.3539 149.458 37.9325 149.806L35.8308 151.667C35.7992 151.698 35.7691 151.73 35.7408 151.764C35.609 151.703 35.4709 151.648 35.3327 151.597V149.048C35.3114 148.503 35.0802 147.988 34.6874 147.611C34.2947 147.233 33.771 147.022 33.2261 147.022C32.6813 147.022 32.1575 147.233 31.7648 147.611C31.3721 147.988 31.1408 148.503 31.1196 149.048V151.597C30.9268 151.667 30.7372 151.751 30.5508 151.841C30.4907 151.769 30.4263 151.7 30.3579 151.635L28.2305 149.8C28.0229 149.607 27.7785 149.457 27.5118 149.36C27.245 149.264 26.9616 149.222 26.6783 149.237C26.395 149.253 26.1178 149.326 25.8632 149.451C25.6087 149.576 25.382 149.751 25.1967 149.966C25.0115 150.181 24.8716 150.431 24.7853 150.701C24.699 150.972 24.6681 151.257 24.6945 151.539C24.7209 151.822 24.8041 152.096 24.939 152.345C25.0739 152.595 25.2578 152.815 25.4796 152.992L27.6038 154.827C27.6224 154.841 27.6417 154.854 27.6617 154.865C27.6231 154.955 27.5878 155.049 27.5556 155.142H24.914C24.3558 155.142 23.8204 155.364 23.4256 155.758C23.0309 156.153 22.8091 156.689 22.8091 157.247C22.8091 157.806 23.0307 158.341 23.4254 158.737C23.8201 159.132 24.3555 159.355 24.914 159.355H27.5299C27.5492 159.413 27.5717 159.474 27.5942 159.532C27.5942 159.532 27.5942 159.532 27.5749 159.532L25.47 161.393C25.2523 161.573 25.073 161.796 24.9429 162.047C24.8128 162.298 24.7345 162.572 24.7126 162.854C24.6907 163.136 24.7258 163.419 24.8156 163.687C24.9055 163.955 25.0483 164.203 25.2357 164.414C25.423 164.626 25.651 164.798 25.9061 164.92C26.1612 165.042 26.4382 165.111 26.7206 165.123C27.003 165.136 27.285 165.092 27.5499 164.993C27.8148 164.894 28.0572 164.743 28.2626 164.549L30.3644 162.688L30.4094 162.643C30.639 162.765 30.8762 162.873 31.1196 162.965V165.507C31.1408 166.052 31.3721 166.567 31.7648 166.944C32.1575 167.322 32.6813 167.533 33.2261 167.533C33.771 167.533 34.2947 167.322 34.6874 166.944C35.0802 166.567 35.3114 166.052 35.3327 165.507V162.968C35.4805 162.913 35.6251 162.855 35.7665 162.788L37.8265 164.565C38.0358 164.746 38.2787 164.884 38.5413 164.971C38.8039 165.058 39.081 165.092 39.3569 165.072C39.6328 165.052 39.902 164.978 40.1492 164.854C40.3964 164.729 40.6166 164.558 40.7975 164.348C40.9783 164.139 41.1162 163.896 41.2031 163.633C41.2901 163.371 41.3245 163.094 41.3043 162.818C41.2842 162.542 41.2099 162.273 41.0857 162.025C40.9615 161.778 40.7899 161.558 40.5806 161.377L38.7456 159.796C38.8131 159.651 38.8709 159.503 38.9255 159.355H41.6282C42.1868 159.355 42.7222 159.132 43.1168 158.737C43.5115 158.341 43.7332 157.806 43.7332 157.247C43.7332 156.97 43.6787 156.697 43.5729 156.441C43.4671 156.186 43.3121 155.954 43.1166 155.758C42.9212 155.563 42.6891 155.408 42.4337 155.302C42.1784 155.196 41.9046 155.142 41.6282 155.142Z" fill="#D9D7F1"/>
<path d="M41.6282 155.142H38.8998C38.8484 155 38.7906 154.865 38.7263 154.73L40.7252 152.963C41.1228 152.587 41.3587 152.071 41.383 151.524C41.4074 150.978 41.2183 150.443 40.8557 150.033C40.4931 149.623 39.9855 149.371 39.44 149.328C38.8945 149.286 38.3539 149.458 37.9325 149.806L35.8308 151.667C35.7992 151.698 35.7691 151.73 35.7408 151.764C35.609 151.703 35.4709 151.648 35.3327 151.597V149.048C35.3114 148.503 35.0802 147.988 34.6874 147.611C34.2947 147.233 33.771 147.022 33.2261 147.022C32.6813 147.022 32.1575 147.233 31.7648 147.611C31.3721 147.988 31.1408 148.503 31.1196 149.048V151.597C30.9268 151.667 30.7372 151.751 30.5508 151.841C30.4907 151.769 30.4263 151.7 30.3579 151.635L28.2305 149.8C28.0229 149.607 27.7785 149.457 27.5118 149.36C27.245 149.264 26.9616 149.222 26.6783 149.237C26.395 149.253 26.1178 149.326 25.8632 149.451C25.6087 149.576 25.382 149.751 25.1967 149.966C25.0115 150.181 24.8716 150.431 24.7853 150.701C24.699 150.972 24.6681 151.257 24.6945 151.539C24.7209 151.822 24.8041 152.096 24.939 152.345C25.0739 152.595 25.2578 152.815 25.4796 152.992L27.6038 154.827C27.6224 154.841 27.6417 154.854 27.6617 154.865C27.6231 154.955 27.5878 155.049 27.5556 155.142H24.914C24.3558 155.142 23.8204 155.364 23.4256 155.758C23.0309 156.153 22.8091 156.689 22.8091 157.247C22.8091 157.806 23.0307 158.341 23.4254 158.737C23.8201 159.132 24.3555 159.355 24.914 159.355H27.5299C27.5492 159.413 27.5717 159.474 27.5942 159.532C27.5942 159.532 27.5942 159.532 27.5749 159.532L25.47 161.393C25.2523 161.573 25.073 161.796 24.9429 162.047C24.8128 162.298 24.7345 162.572 24.7126 162.854C24.6907 163.136 24.7258 163.419 24.8156 163.687C24.9055 163.955 25.0483 164.203 25.2357 164.414C25.423 164.626 25.651 164.798 25.9061 164.92C26.1612 165.042 26.4382 165.111 26.7206 165.123C27.003 165.136 27.285 165.092 27.5499 164.993C27.8148 164.894 28.0572 164.743 28.2626 164.549L30.3644 162.688L30.4094 162.643C30.639 162.765 30.8762 162.873 31.1196 162.965V165.507C31.1408 166.052 31.3721 166.567 31.7648 166.944C32.1575 167.322 32.6813 167.533 33.2261 167.533C33.771 167.533 34.2947 167.322 34.6874 166.944C35.0802 166.567 35.3114 166.052 35.3327 165.507V162.968C35.4805 162.913 35.6251 162.855 35.7665 162.788L37.8265 164.565C38.0358 164.746 38.2787 164.884 38.5413 164.971C38.8039 165.058 39.081 165.092 39.3569 165.072C39.6328 165.052 39.902 164.978 40.1492 164.854C40.3964 164.729 40.6166 164.558 40.7975 164.348C40.9783 164.139 41.1162 163.896 41.2031 163.633C41.2901 163.371 41.3245 163.094 41.3043 162.818C41.2842 162.542 41.2099 162.273 41.0857 162.025C40.9615 161.778 40.7899 161.558 40.5806 161.377L38.7456 159.796C38.8131 159.651 38.8709 159.503 38.9255 159.355H41.6282C42.1868 159.355 42.7222 159.132 43.1168 158.737C43.5115 158.341 43.7332 157.806 43.7332 157.247C43.7332 156.97 43.6787 156.697 43.5729 156.441C43.4671 156.186 43.3121 155.954 43.1166 155.758C42.9212 155.563 42.6891 155.408 42.4337 155.302C42.1784 155.196 41.9046 155.142 41.6282 155.142Z" fill="#D9D7F1"/>
<path d="M41.6282 155.142H38.8998C38.8484 155 38.7906 154.865 38.7263 154.73L40.7252 152.963C41.1228 152.587 41.3587 152.071 41.383 151.524C41.4074 150.978 41.2183 150.443 40.8557 150.033C40.4931 149.623 39.9855 149.371 39.44 149.328C38.8945 149.286 38.3539 149.458 37.9325 149.806L35.8308 151.667C35.7992 151.698 35.7691 151.73 35.7408 151.764C35.609 151.703 35.4709 151.648 35.3327 151.597V149.048C35.3114 148.503 35.0802 147.988 34.6874 147.611C34.2947 147.233 33.771 147.022 33.2261 147.022C32.6813 147.022 32.1575 147.233 31.7648 147.611C31.3721 147.988 31.1408 148.503 31.1196 149.048V151.597C30.9268 151.667 30.7372 151.751 30.5508 151.841C30.4907 151.769 30.4263 151.7 30.3579 151.635L28.2305 149.8C28.0229 149.607 27.7785 149.457 27.5118 149.36C27.245 149.264 26.9616 149.222 26.6783 149.237C26.395 149.253 26.1178 149.326 25.8632 149.451C25.6087 149.576 25.382 149.751 25.1967 149.966C25.0115 150.181 24.8716 150.431 24.7853 150.701C24.699 150.972 24.6681 151.257 24.6945 151.539C24.7209 151.822 24.8041 152.096 24.939 152.345C25.0739 152.595 25.2578 152.815 25.4796 152.992L27.6038 154.827C27.6224 154.841 27.6417 154.854 27.6617 154.865C27.6231 154.955 27.5878 155.049 27.5556 155.142H24.914C24.3558 155.142 23.8204 155.364 23.4256 155.758C23.0309 156.153 22.8091 156.689 22.8091 157.247C22.8091 157.806 23.0307 158.341 23.4254 158.737C23.8201 159.132 24.3555 159.355 24.914 159.355H27.5299C27.5492 159.413 27.5717 159.474 27.5942 159.532C27.5942 159.532 27.5942 159.532 27.5749 159.532L25.47 161.393C25.2523 161.573 25.073 161.796 24.9429 162.047C24.8128 162.298 24.7345 162.572 24.7126 162.854C24.6907 163.136 24.7258 163.419 24.8156 163.687C24.9055 163.955 25.0483 164.203 25.2357 164.414C25.423 164.626 25.651 164.798 25.9061 164.92C26.1612 165.042 26.4382 165.111 26.7206 165.123C27.003 165.136 27.285 165.092 27.5499 164.993C27.8148 164.894 28.0572 164.743 28.2626 164.549L30.3644 162.688L30.4094 162.643C30.639 162.765 30.8762 162.873 31.1196 162.965V165.507C31.1408 166.052 31.3721 166.567 31.7648 166.944C32.1575 167.322 32.6813 167.533 33.2261 167.533C33.771 167.533 34.2947 167.322 34.6874 166.944C35.0802 166.567 35.3114 166.052 35.3327 165.507V162.968C35.4805 162.913 35.6251 162.855 35.7665 162.788L37.8265 164.565C38.0358 164.746 38.2787 164.884 38.5413 164.971C38.8039 165.058 39.081 165.092 39.3569 165.072C39.6328 165.052 39.902 164.978 40.1492 164.854C40.3964 164.729 40.6166 164.558 40.7975 164.348C40.9783 164.139 41.1162 163.896 41.2031 163.633C41.2901 163.371 41.3245 163.094 41.3043 162.818C41.2842 162.542 41.2099 162.273 41.0857 162.025C40.9615 161.778 40.7899 161.558 40.5806 161.377L38.7456 159.796C38.8131 159.651 38.8709 159.503 38.9255 159.355H41.6282C42.1868 159.355 42.7222 159.132 43.1168 158.737C43.5115 158.341 43.7332 157.806 43.7332 157.247C43.7332 156.97 43.6787 156.697 43.5729 156.441C43.4671 156.186 43.3121 155.954 43.1166 155.758C42.9212 155.563 42.6891 155.408 42.4337 155.302C42.1784 155.196 41.9046 155.142 41.6282 155.142Z" fill="#D9D7F1"/>
<path d="M10.8414 152.297C12.382 152.297 13.6309 151.048 13.6309 149.507C13.6309 147.967 12.382 146.718 10.8414 146.718C9.30088 146.718 8.052 147.967 8.052 149.507C8.052 151.048 9.30088 152.297 10.8414 152.297Z" fill="white"/>
<path d="M33.273 160.21C34.8135 160.21 36.0624 158.961 36.0624 157.42C36.0624 155.88 34.8135 154.631 33.273 154.631C31.7324 154.631 30.4835 155.88 30.4835 157.42C30.4835 158.961 31.7324 160.21 33.273 160.21Z" fill="white"/>
<path d="M36.9364 207.852C35.8915 207.852 34.8701 207.542 34.0012 206.961C33.1324 206.381 32.4552 205.556 32.0554 204.59C31.6555 203.625 31.5509 202.562 31.7547 201.537C31.9586 200.512 32.4618 199.571 33.2006 198.832C33.9395 198.093 34.8809 197.59 35.9057 197.386C36.9306 197.182 37.9929 197.286 38.9583 197.686C39.9236 198.086 40.7488 198.763 41.3293 199.632C41.9098 200.501 42.2197 201.523 42.2197 202.568C42.218 203.969 41.6608 205.312 40.6704 206.302C39.6799 207.293 38.3371 207.85 36.9364 207.852ZM36.9364 198.57C36.1458 198.57 35.3728 198.804 34.7154 199.244C34.058 199.683 33.5456 200.307 33.243 201.038C32.9404 201.768 32.8612 202.572 33.0155 203.348C33.1697 204.124 33.5505 204.836 34.1096 205.395C34.6687 205.954 35.381 206.335 36.1565 206.489C36.932 206.644 37.7358 206.564 38.4663 206.262C39.1968 205.959 39.8212 205.447 40.2605 204.789C40.6998 204.132 40.9342 203.359 40.9342 202.568C40.9317 201.508 40.5097 200.493 39.7605 199.744C39.0113 198.994 37.9959 198.572 36.9364 198.57Z" fill="#363939"/>
<path d="M28.6132 216.642C27.8893 216.642 27.1816 216.427 26.5796 216.025C25.9777 215.623 25.5086 215.051 25.2315 214.382C24.9545 213.713 24.882 212.977 25.0232 212.267C25.1645 211.557 25.5131 210.905 26.025 210.393C26.5369 209.881 27.1891 209.532 27.8991 209.391C28.6092 209.25 29.3451 209.322 30.014 209.599C30.6828 209.876 31.2545 210.346 31.6567 210.948C32.0589 211.55 32.2736 212.257 32.2736 212.981C32.2727 213.952 31.8868 214.883 31.2005 215.569C30.5143 216.255 29.5838 216.641 28.6132 216.642ZM28.6132 210.606C28.1435 210.606 27.6844 210.745 27.2938 211.006C26.9033 211.267 26.5989 211.638 26.4191 212.072C26.2394 212.506 26.1923 212.984 26.284 213.445C26.3756 213.905 26.6018 214.329 26.9339 214.661C27.2661 214.993 27.6892 215.219 28.1499 215.311C28.6106 215.403 29.0881 215.355 29.5221 215.176C29.956 214.996 30.3269 214.692 30.5879 214.301C30.8488 213.91 30.9881 213.451 30.9881 212.981C30.9873 212.352 30.7368 211.748 30.2916 211.303C29.8464 210.858 29.2428 210.607 28.6132 210.606Z" fill="#363939"/>
</svg>
