<svg width="24" height="24" viewBox="0 0 24 24" fill="none" xmlns="http://www.w3.org/2000/svg">
<path fill-rule="evenodd" clip-rule="evenodd" d="M21.1 6.7601H20.89V5.7601C20.89 4.29492 19.7052 3.10561 18.24 3.1001H4.89998C4.18749 3.10265 3.50581 3.39093 3.00767 3.90035C2.50953 4.40977 2.23659 5.09773 2.24998 5.8101V12.4801C2.24998 13.1829 2.52918 13.857 3.02615 14.3539C3.52312 14.8509 4.19716 15.1301 4.89998 15.1301H15.38V16.5201H5.85998C5.44577 16.5201 5.10998 16.8559 5.10998 17.2701C5.10998 17.6843 5.44577 18.0201 5.85998 18.0201H15.38V18.1901C15.3855 19.2427 16.2374 20.0946 17.29 20.1001H21.1C22.1509 20.0946 23 19.2411 23 18.1901V8.6701C23.0026 8.16446 22.8036 7.67861 22.447 7.32013C22.0904 6.96164 21.6056 6.76009 21.1 6.7601ZM4.89998 13.6301C4.26712 13.6247 3.75542 13.113 3.74998 12.4801V5.8101C3.74996 5.17333 4.26324 4.65559 4.89998 4.6501H18.24C18.5467 4.65009 18.8408 4.77262 19.0567 4.99045C19.2727 5.20829 19.3927 5.50337 19.39 5.8101V6.8101H17.29C16.2374 6.81557 15.3855 7.66751 15.38 8.7201V13.7201L4.89998 13.6301ZM21.1 18.6001C21.3225 18.5947 21.5 18.4127 21.5 18.1901V8.6701C21.5027 8.56229 21.4617 8.45796 21.3864 8.38077C21.3111 8.30358 21.2078 8.26006 21.1 8.2601H17.29C17.0658 8.26538 16.8853 8.44588 16.88 8.6701V18.1901C16.8853 18.4143 17.0658 18.5948 17.29 18.6001H21.1Z" fill="#2E4A43"/>
<path d="M20.14 8.8701H18.24C17.8258 8.8701 17.49 9.20588 17.49 9.6201C17.49 10.0343 17.8258 10.3701 18.24 10.3701H20.14C20.5542 10.3701 20.89 10.0343 20.89 9.6201C20.89 9.20588 20.5542 8.8701 20.14 8.8701Z" fill="#2E4A43"/>
</svg>
